<svg width="76" height="78" viewBox="0 0 76 78" fill="none" xmlns="http://www.w3.org/2000/svg">
<path d="M37.8649 38.7125L33.5979 31.3241L29.3328 38.7114L33.6946 45.9357L37.8649 38.7125Z" fill="#71DCD5"/>
<path d="M46.397 38.7136L37.8649 38.7125L33.6946 45.9357L42.2267 45.9368L46.397 38.7136Z" fill="#71DCD5"/>
<path d="M46.397 38.7136L42.13 31.3251L33.5979 31.3241L37.8649 38.7125L46.397 38.7136Z" fill="#71DCD5"/>
<path d="M33.6946 45.9357L42.2267 45.9368L46.397 38.7136M33.6946 45.9357L29.3328 38.7114L33.5979 31.3241M33.6946 45.9357L37.8649 38.7125M37.8649 38.7125L46.397 38.7136M37.8649 38.7125L33.5979 31.3241M46.397 38.7136L42.13 31.3251L33.5979 31.3241" stroke="white" stroke-width="0.18956"/>
<path d="M26.8122 38.8986L22.5452 31.5101L18.2801 38.8975L22.6418 46.1218L26.8122 38.8986Z" fill="#71DCD5"/>
<path d="M35.3443 38.8996L26.8122 38.8986L22.6418 46.1218L31.1739 46.1228L35.3443 38.8996Z" fill="#71DCD5"/>
<path d="M35.3443 38.8996L31.0773 31.5112L22.5452 31.5101L26.8122 38.8986L35.3443 38.8996Z" fill="#71DCD5"/>
<path d="M22.6418 46.1218L31.1739 46.1228L35.3443 38.8996M22.6418 46.1218L18.2801 38.8975L22.5452 31.5101M22.6418 46.1218L26.8122 38.8986M26.8122 38.8986L35.3443 38.8996M26.8122 38.8986L22.5452 31.5101M35.3443 38.8996L31.0773 31.5112L22.5452 31.5101" stroke="white" stroke-width="0.18956"/>
<path d="M15.6911 38.8253L11.4241 31.4369L7.15897 38.8242L11.5207 46.0485L15.6911 38.8253Z" fill="#71DCD5"/>
<path d="M24.2232 38.8264L15.6911 38.8253L11.5207 46.0485L20.0528 46.0496L24.2232 38.8264Z" fill="#71DCD5"/>
<path d="M24.2232 38.8264L19.9562 31.4379L11.4241 31.4369L15.6911 38.8253L24.2232 38.8264Z" fill="#71DCD5"/>
<path d="M11.5207 46.0485L20.0528 46.0496L24.2232 38.8264M11.5207 46.0485L7.15897 38.8242L11.4241 31.4369M11.5207 46.0485L15.6911 38.8253M15.6911 38.8253L24.2232 38.8264M15.6911 38.8253L11.4241 31.4369M24.2232 38.8264L19.9562 31.4379L11.4241 31.4369" stroke="white" stroke-width="0.18956"/>
<path d="M43.0639 48.282L51.596 48.283L47.3308 55.6704L38.8935 55.5052L43.0639 48.282Z" fill="#71DCD5"/>
<path d="M38.7969 40.8935L43.0639 48.282L38.8935 55.5052L34.6265 48.1167L38.7969 40.8935Z" fill="#71DCD5"/>
<path d="M38.7969 40.8935L47.329 40.8946L51.596 48.283L43.0639 48.282L38.7969 40.8935Z" fill="#71DCD5"/>
<path d="M38.8935 55.5052L34.6265 48.1167L38.7969 40.8935M38.8935 55.5052L47.3308 55.6704L51.596 48.283M38.8935 55.5052L43.0639 48.282M43.0639 48.282L38.7969 40.8935M43.0639 48.282L51.596 48.283M38.7969 40.8935L47.329 40.8946L51.596 48.283" stroke="white" stroke-width="0.18956"/>
<path d="M48.6891 57.8761L44.4221 50.4876L40.157 57.875L44.5188 65.0993L48.6891 57.8761Z" fill="#71DCD5"/>
<path d="M57.2212 57.8772L48.6891 57.8761L44.5188 65.0993L53.0509 65.1004L57.2212 57.8772Z" fill="#71DCD5"/>
<path d="M57.2212 57.8772L52.9542 50.4887L44.4221 50.4876L48.6891 57.8761L57.2212 57.8772Z" fill="#71DCD5"/>
<path d="M44.5188 65.0993L53.0509 65.1004L57.2212 57.8772M44.5188 65.0993L40.157 57.875L44.4221 50.4876M44.5188 65.0993L48.6891 57.8761M48.6891 57.8761L57.2212 57.8772M48.6891 57.8761L44.4221 50.4876M57.2212 57.8772L52.9542 50.4887L44.4221 50.4876" stroke="white" stroke-width="0.18956"/>
<path d="M21.695 47.7633L17.428 40.3748L13.1629 47.7622L17.5246 54.9865L21.695 47.7633Z" fill="#71DCD5"/>
<path d="M30.2271 47.7644L21.695 47.7633L17.5246 54.9865L26.0567 54.9876L30.2271 47.7644Z" fill="#71DCD5"/>
<path d="M30.2271 47.7644L25.9601 40.3759L17.428 40.3748L21.695 47.7633L30.2271 47.7644Z" fill="#71DCD5"/>
<path d="M17.5246 54.9865L26.0567 54.9876L30.2271 47.7644M17.5246 54.9865L13.1629 47.7622L17.428 40.3748M17.5246 54.9865L21.695 47.7633M21.695 47.7633L30.2271 47.7644M21.695 47.7633L17.428 40.3748M30.2271 47.7644L25.9601 40.3759L17.428 40.3748" stroke="white" stroke-width="0.18956"/>
<path d="M37.9469 57.1466L33.6799 49.7581L29.4148 57.1455L33.7766 64.3698L37.9469 57.1466Z" fill="#71DCD5"/>
<path d="M46.479 57.1477L37.9469 57.1466L33.7766 64.3698L42.3087 64.3709L46.479 57.1477Z" fill="#71DCD5"/>
<path d="M46.479 57.1477L42.212 49.7592L33.6799 49.7581L37.9469 57.1466L46.479 57.1477Z" fill="#71DCD5"/>
<path d="M33.7766 64.3698L42.3087 64.3709L46.479 57.1477M33.7766 64.3698L29.4148 57.1455L33.6799 49.7581M33.7766 64.3698L37.9469 57.1466M37.9469 57.1466L46.479 57.1477M37.9469 57.1466L33.6799 49.7581M46.479 57.1477L42.212 49.7592L33.6799 49.7581" stroke="white" stroke-width="0.18956"/>
<path d="M26.9879 57.1686L22.721 49.7801L18.4558 57.1675L22.8176 64.3918L26.9879 57.1686Z" fill="#71DCD5"/>
<path d="M35.52 57.1697L26.9879 57.1686L22.8176 64.3918L31.3497 64.3929L35.52 57.1697Z" fill="#71DCD5"/>
<path d="M35.52 57.1697L31.2531 49.7812L22.721 49.7801L26.9879 57.1686L35.52 57.1697Z" fill="#71DCD5"/>
<path d="M22.8176 64.3918L31.3497 64.3929L35.52 57.1697M22.8176 64.3918L18.4558 57.1675L22.721 49.7801M22.8176 64.3918L26.9879 57.1686M26.9879 57.1686L35.52 57.1697M26.9879 57.1686L22.721 49.7801M35.52 57.1697L31.2531 49.7812L22.721 49.7801" stroke="white" stroke-width="0.18956"/>
<path d="M43.0739 29.6837L38.8069 22.2953L34.5418 29.6826L38.9035 36.9069L43.0739 29.6837Z" fill="#71DCD5"/>
<path d="M51.606 29.6848L43.0739 29.6837L38.9035 36.9069L47.4356 36.908L51.606 29.6848Z" fill="#71DCD5"/>
<path d="M51.606 29.6848L47.339 22.2963L38.8069 22.2953L43.0739 29.6837L51.606 29.6848Z" fill="#71DCD5"/>
<path d="M38.9035 36.9069L47.4356 36.908L51.606 29.6848M38.9035 36.9069L34.5418 29.6826L38.8069 22.2953M38.9035 36.9069L43.0739 29.6837M43.0739 29.6837L51.606 29.6848M43.0739 29.6837L38.8069 22.2953M51.606 29.6848L47.339 22.2963L38.8069 22.2953" stroke="white" stroke-width="0.18956"/>
<path d="M32.0251 29.8697L27.7581 22.4813L23.493 29.8687L27.8547 37.093L32.0251 29.8697Z" fill="#71DCD5"/>
<path d="M40.5572 29.8708L32.0251 29.8697L27.8547 37.093L36.3868 37.094L40.5572 29.8708Z" fill="#71DCD5"/>
<path d="M40.5572 29.8708L36.2902 22.4824L27.7581 22.4813L32.0251 29.8697L40.5572 29.8708Z" fill="#71DCD5"/>
<path d="M27.8547 37.093L36.3868 37.094L40.5572 29.8708M27.8547 37.093L23.493 29.8687L27.7581 22.4813M27.8547 37.093L32.0251 29.8697M32.0251 29.8697L40.5572 29.8708M32.0251 29.8697L27.7581 22.4813M40.5572 29.8708L36.2902 22.4824L27.7581 22.4813" stroke="white" stroke-width="0.18956"/>
<path d="M20.902 29.7965L16.635 22.408L12.3699 29.7954L16.7317 37.0197L20.902 29.7965Z" fill="#71DCD5"/>
<path d="M29.4341 29.7976L20.902 29.7965L16.7317 37.0197L25.2638 37.0208L29.4341 29.7976Z" fill="#71DCD5"/>
<path d="M29.4341 29.7976L25.1671 22.4091L16.635 22.408L20.902 29.7965L29.4341 29.7976Z" fill="#71DCD5"/>
<path d="M16.7317 37.0197L25.2638 37.0208L29.4341 29.7976M16.7317 37.0197L12.3699 29.7954L16.635 22.408M16.7317 37.0197L20.902 29.7965M20.902 29.7965L29.4341 29.7976M20.902 29.7965L16.635 22.408M29.4341 29.7976L25.1671 22.4091L16.635 22.408" stroke="white" stroke-width="0.18956"/>
<path d="M48.2767 39.2527L56.8088 39.2537L52.5437 46.6411L44.1064 46.4759L48.2767 39.2527Z" fill="#71DCD5"/>
<path d="M44.0098 31.8642L48.2767 39.2527L44.1064 46.4759L39.8394 39.0874L44.0098 31.8642Z" fill="#71DCD5"/>
<path d="M44.0098 31.8642L52.5419 31.8653L56.8088 39.2537L48.2767 39.2527L44.0098 31.8642Z" fill="#71DCD5"/>
<path d="M44.1064 46.4759L39.8394 39.0874L44.0098 31.8642M44.1064 46.4759L52.5437 46.6411L56.8088 39.2537M44.1064 46.4759L48.2767 39.2527M48.2767 39.2527L44.0098 31.8642M48.2767 39.2527L56.8088 39.2537M44.0098 31.8642L52.5419 31.8653L56.8088 39.2537" stroke="white" stroke-width="0.18956"/>
<path d="M53.8981 48.8473L49.6311 41.4588L45.366 48.8462L49.7278 56.0705L53.8981 48.8473Z" fill="#71DCD5"/>
<path d="M62.4302 48.8484L53.8981 48.8473L49.7278 56.0705L58.2599 56.0716L62.4302 48.8484Z" fill="#71DCD5"/>
<path d="M62.4302 48.8484L58.1632 41.4599L49.6311 41.4588L53.8981 48.8473L62.4302 48.8484Z" fill="#71DCD5"/>
<path d="M49.7278 56.0705L58.2599 56.0716L62.4302 48.8484M49.7278 56.0705L45.366 48.8462L49.6311 41.4588M49.7278 56.0705L53.8981 48.8473M53.8981 48.8473L62.4302 48.8484M53.8981 48.8473L49.6311 41.4588M62.4302 48.8484L58.1632 41.4599L49.6311 41.4588" stroke="white" stroke-width="0.18956"/>
<path d="M37.5094 38.9464L33.2424 31.5579L28.9773 38.9453L33.3391 46.1696L37.5094 38.9464Z" fill="#71DCD5"/>
<path d="M46.0415 38.9475L37.5094 38.9464L33.3391 46.1696L41.8712 46.1707L46.0415 38.9475Z" fill="#71DCD5"/>
<path d="M46.0415 38.9475L41.7745 31.559L33.2424 31.5579L37.5094 38.9464L46.0415 38.9475Z" fill="#71DCD5"/>
<path d="M33.3391 46.1696L41.8712 46.1707L46.0415 38.9475M33.3391 46.1696L28.9773 38.9453L33.2424 31.5579M33.3391 46.1696L37.5094 38.9464M37.5094 38.9464L46.0415 38.9475M37.5094 38.9464L33.2424 31.5579M46.0415 38.9475L41.7745 31.559L33.2424 31.5579" stroke="white" stroke-width="0.18956"/>
<path d="M26.8122 38.8986L22.5452 31.5101L18.2801 38.8975L22.6418 46.1218L26.8122 38.8986Z" fill="#71DCD5"/>
<path d="M35.3443 38.8996L26.8122 38.8986L22.6418 46.1218L31.1739 46.1228L35.3443 38.8996Z" fill="#71DCD5"/>
<path d="M35.3443 38.8996L31.0773 31.5112L22.5452 31.5101L26.8122 38.8986L35.3443 38.8996Z" fill="#71DCD5"/>
<path d="M22.6418 46.1218L31.1739 46.1228L35.3443 38.8996M22.6418 46.1218L18.2801 38.8975L22.5452 31.5101M22.6418 46.1218L26.8122 38.8986M26.8122 38.8986L35.3443 38.8996M26.8122 38.8986L22.5452 31.5101M35.3443 38.8996L31.0773 31.5112L22.5452 31.5101" stroke="white" stroke-width="0.18956"/>
<path d="M43.0622 48.2819L38.7952 40.8934L34.5301 48.2808L38.8918 55.5051L43.0622 48.2819Z" fill="#71DCD5"/>
<path d="M51.5943 48.2829L43.0622 48.2819L38.8918 55.5051L47.4239 55.5061L51.5943 48.2829Z" fill="#71DCD5"/>
<path d="M51.5943 48.2829L47.3273 40.8945L38.7952 40.8934L43.0622 48.2819L51.5943 48.2829Z" fill="#71DCD5"/>
<path d="M38.8918 55.5051L47.4239 55.5061L51.5943 48.2829M38.8918 55.5051L34.5301 48.2808L38.7952 40.8934M38.8918 55.5051L43.0622 48.2819M43.0622 48.2819L51.5943 48.2829M43.0622 48.2819L38.7952 40.8934M51.5943 48.2829L47.3273 40.8945L38.7952 40.8934" stroke="white" stroke-width="0.18956"/>
<path d="M32.0133 48.4679L27.7463 41.0794L23.4812 48.4668L27.843 55.6911L32.0133 48.4679Z" fill="#71DCD5"/>
<path d="M40.5454 48.469L32.0133 48.4679L27.843 55.6911L36.3751 55.6922L40.5454 48.469Z" fill="#71DCD5"/>
<path d="M40.5454 48.469L36.2784 41.0805L27.7463 41.0794L32.0133 48.4679L40.5454 48.469Z" fill="#71DCD5"/>
<path d="M27.843 55.6911L36.3751 55.6922L40.5454 48.469M27.843 55.6911L23.4812 48.4668L27.7463 41.0794M27.843 55.6911L32.0133 48.4679M32.0133 48.4679L40.5454 48.469M32.0133 48.4679L27.7463 41.0794M40.5454 48.469L36.2784 41.0805L27.7463 41.0794" stroke="white" stroke-width="0.18956"/>
<path d="M48.2907 20.6549L44.0237 13.2664L39.7586 20.6538L44.1203 27.8781L48.2907 20.6549Z" fill="#71DCD5"/>
<path d="M56.8228 20.656L48.2907 20.6549L44.1203 27.8781L52.6524 27.8792L56.8228 20.656Z" fill="#71DCD5"/>
<path d="M56.8228 20.656L52.5558 13.2675L44.0237 13.2664L48.2907 20.6549L56.8228 20.656Z" fill="#71DCD5"/>
<path d="M44.1203 27.8781L52.6524 27.8792L56.8228 20.656M44.1203 27.8781L39.7586 20.6538L44.0237 13.2664M44.1203 27.8781L48.2907 20.6549M48.2907 20.6549L56.8228 20.656M48.2907 20.6549L44.0237 13.2664M56.8228 20.656L52.5558 13.2675L44.0237 13.2664" stroke="white" stroke-width="0.18956"/>
<path d="M37.2379 20.8404L32.971 13.452L28.7058 20.8394L33.0676 28.0637L37.2379 20.8404Z" fill="#71DCD5"/>
<path d="M45.77 20.8415L37.2379 20.8404L33.0676 28.0637L41.5997 28.0647L45.77 20.8415Z" fill="#71DCD5"/>
<path d="M45.77 20.8415L41.5031 13.4531L32.971 13.452L37.2379 20.8404L45.77 20.8415Z" fill="#71DCD5"/>
<path d="M33.0676 28.0637L41.5997 28.0647L45.77 20.8415M33.0676 28.0637L28.7058 20.8394L32.971 13.452M33.0676 28.0637L37.2379 20.8404M37.2379 20.8404L45.77 20.8415M37.2379 20.8404L32.971 13.452M45.77 20.8415L41.5031 13.4531L32.971 13.452" stroke="white" stroke-width="0.18956"/>
<path d="M26.1169 20.7677L21.8499 13.3792L17.5848 20.7666L21.9465 27.9909L26.1169 20.7677Z" fill="#71DCD5"/>
<path d="M34.649 20.7688L26.1169 20.7677L21.9465 27.9909L30.4786 27.992L34.649 20.7688Z" fill="#71DCD5"/>
<path d="M34.649 20.7688L30.382 13.3803L21.8499 13.3792L26.1169 20.7677L34.649 20.7688Z" fill="#71DCD5"/>
<path d="M21.9465 27.9909L30.4786 27.992L34.649 20.7688M21.9465 27.9909L17.5848 20.7666L21.8499 13.3792M21.9465 27.9909L26.1169 20.7677M26.1169 20.7677L34.649 20.7688M26.1169 20.7677L21.8499 13.3792M34.649 20.7688L30.382 13.3803L21.8499 13.3792" stroke="white" stroke-width="0.18956"/>
<path d="M53.4899 30.2237L49.2229 22.8353L44.9578 30.2227L49.3196 37.447L53.4899 30.2237Z" fill="#71DCD5"/>
<path d="M62.022 30.2248L53.4899 30.2237L49.3196 37.447L57.8517 37.448L62.022 30.2248Z" fill="#71DCD5"/>
<path d="M62.022 30.2248L57.755 22.8364L49.2229 22.8353L53.4899 30.2237L62.022 30.2248Z" fill="#71DCD5"/>
<path d="M49.3196 37.447L57.8517 37.448L62.022 30.2248M49.3196 37.447L44.9578 30.2227L49.2229 22.8353M49.3196 37.447L53.4899 30.2237M53.4899 30.2237L62.022 30.2248M53.4899 30.2237L49.2229 22.8353M62.022 30.2248L57.755 22.8364L49.2229 22.8353" stroke="white" stroke-width="0.18956"/>
<path d="M59.1129 39.8185L54.846 32.43L50.5808 39.8174L54.9426 47.0417L59.1129 39.8185Z" fill="#71DCD5"/>
<path d="M67.645 39.8196L59.1129 39.8185L54.9426 47.0417L63.4747 47.0428L67.645 39.8196Z" fill="#71DCD5"/>
<path d="M67.645 39.8196L63.3781 32.4311L54.846 32.43L59.1129 39.8185L67.645 39.8196Z" fill="#71DCD5"/>
<path d="M54.9426 47.0417L63.4747 47.0428L67.645 39.8196M54.9426 47.0417L50.5808 39.8174L54.846 32.43M54.9426 47.0417L59.1129 39.8185M59.1129 39.8185L67.645 39.8196M59.1129 39.8185L54.846 32.43M67.645 39.8196L63.3781 32.4311L54.846 32.43" stroke="white" stroke-width="0.18956"/>
</svg>
