<svg width="377" height="328" viewBox="0 0 377 328" fill="none" xmlns="http://www.w3.org/2000/svg">
<g filter="url(#filter0_f_282_1380)">
<path d="M86.722 240.465L78.188 225.688L69.6578 240.462L78.3813 254.911L86.722 240.465Z" fill="#71DCD5"/>
<path d="M103.786 240.467L86.722 240.465L78.3813 254.911L95.4455 254.913L103.786 240.467Z" fill="#71DCD5"/>
<path d="M103.786 240.467L95.2522 225.69L78.188 225.688L86.722 240.465L103.786 240.467Z" fill="#71DCD5"/>
<path d="M78.3813 254.911L95.4455 254.913L103.786 240.467M78.3813 254.911L69.6578 240.462L78.188 225.688M78.3813 254.911L86.722 240.465M86.722 240.465L103.786 240.467M86.722 240.465L78.188 225.688M103.786 240.467L95.2522 225.69L78.188 225.688" stroke="white" stroke-width="0.37912"/>
<path d="M64.6185 240.836L56.0845 226.059L47.5543 240.834L56.2778 255.283L64.6185 240.836Z" fill="#71DCD5"/>
<path d="M81.6826 240.839L64.6185 240.836L56.2778 255.283L73.342 255.285L81.6826 240.839Z" fill="#71DCD5"/>
<path d="M81.6826 240.839L73.1487 226.062L56.0845 226.059L64.6185 240.836L81.6826 240.839Z" fill="#71DCD5"/>
<path d="M56.2778 255.283L73.342 255.285L81.6826 240.839M56.2778 255.283L47.5543 240.834L56.0845 226.059M56.2778 255.283L64.6185 240.836M64.6185 240.836L81.6826 240.839M64.6185 240.836L56.0845 226.059M81.6826 240.839L73.1487 226.062L56.0845 226.059" stroke="white" stroke-width="0.37912"/>
<path d="M42.3763 240.69L33.8423 225.913L25.3121 240.688L34.0356 255.137L42.3763 240.69Z" fill="#71DCD5"/>
<path d="M59.4404 240.692L42.3763 240.69L34.0356 255.137L51.0998 255.139L59.4404 240.692Z" fill="#71DCD5"/>
<path d="M59.4404 240.692L50.9065 225.915L33.8423 225.913L42.3763 240.69L59.4404 240.692Z" fill="#71DCD5"/>
<path d="M34.0356 255.137L51.0998 255.139L59.4404 240.692M34.0356 255.137L25.3121 240.688L33.8423 225.913M34.0356 255.137L42.3763 240.69M42.3763 240.69L59.4404 240.692M42.3763 240.69L33.8423 225.913M59.4404 240.692L50.9065 225.915L33.8423 225.913" stroke="white" stroke-width="0.37912"/>
<path d="M97.12 259.603L114.184 259.605L105.654 274.38L88.7793 274.049L97.12 259.603Z" fill="#71DCD5"/>
<path d="M88.586 244.826L97.12 259.603L88.7793 274.049L80.2454 259.272L88.586 244.826Z" fill="#71DCD5"/>
<path d="M88.586 244.826L105.65 244.828L114.184 259.605L97.12 259.603L88.586 244.826Z" fill="#71DCD5"/>
<path d="M88.7793 274.049L80.2454 259.272L88.586 244.826M88.7793 274.049L105.654 274.38L114.184 259.605M88.7793 274.049L97.12 259.603M97.12 259.603L88.586 244.826M97.12 259.603L114.184 259.605M88.586 244.826L105.65 244.828L114.184 259.605" stroke="white" stroke-width="0.37912"/>
<path d="M108.37 278.792L99.8365 264.015L91.3063 278.79L100.03 293.238L108.37 278.792Z" fill="#71DCD5"/>
<path d="M125.435 278.794L108.37 278.792L100.03 293.238L117.094 293.241L125.435 278.794Z" fill="#71DCD5"/>
<path d="M125.435 278.794L116.901 264.017L99.8365 264.015L108.37 278.792L125.435 278.794Z" fill="#71DCD5"/>
<path d="M100.03 293.238L117.094 293.241L125.435 278.794M100.03 293.238L91.3063 278.79L99.8365 264.015M100.03 293.238L108.37 278.792M108.37 278.792L125.435 278.794M108.37 278.792L99.8365 264.015M125.435 278.794L116.901 264.017L99.8365 264.015" stroke="white" stroke-width="0.37912"/>
<path d="M54.3821 258.566L45.8482 243.789L37.318 258.564L46.0415 273.012L54.3821 258.566Z" fill="#71DCD5"/>
<path d="M71.4463 258.568L54.3821 258.566L46.0415 273.012L63.1056 273.014L71.4463 258.568Z" fill="#71DCD5"/>
<path d="M71.4463 258.568L62.9123 243.791L45.8482 243.789L54.3821 258.566L71.4463 258.568Z" fill="#71DCD5"/>
<path d="M46.0415 273.012L63.1056 273.014L71.4463 258.568M46.0415 273.012L37.318 258.564L45.8482 243.789M46.0415 273.012L54.3821 258.566M54.3821 258.566L71.4463 258.568M54.3821 258.566L45.8482 243.789M71.4463 258.568L62.9123 243.791L45.8482 243.789" stroke="white" stroke-width="0.37912"/>
<path d="M86.886 277.333L78.3521 262.556L69.8219 277.33L78.5454 291.779L86.886 277.333Z" fill="#71DCD5"/>
<path d="M103.95 277.335L86.886 277.333L78.5454 291.779L95.6095 291.781L103.95 277.335Z" fill="#71DCD5"/>
<path d="M103.95 277.335L95.4162 262.558L78.3521 262.556L86.886 277.333L103.95 277.335Z" fill="#71DCD5"/>
<path d="M78.5454 291.779L95.6095 291.781L103.95 277.335M78.5454 291.779L69.8219 277.33L78.3521 262.556M78.5454 291.779L86.886 277.333M86.886 277.333L103.95 277.335M86.886 277.333L78.3521 262.556M103.95 277.335L95.4162 262.558L78.3521 262.556" stroke="white" stroke-width="0.37912"/>
<path d="M64.9739 277.376L56.44 262.599L47.9098 277.374L56.6333 291.823L64.9739 277.376Z" fill="#71DCD5"/>
<path d="M82.0381 277.378L64.9739 277.376L56.6333 291.823L73.6974 291.825L82.0381 277.378Z" fill="#71DCD5"/>
<path d="M82.0381 277.378L73.5041 262.601L56.44 262.599L64.9739 277.376L82.0381 277.378Z" fill="#71DCD5"/>
<path d="M56.6333 291.823L73.6974 291.825L82.0381 277.378M56.6333 291.823L47.9098 277.374L56.44 262.599M56.6333 291.823L64.9739 277.376M64.9739 277.376L82.0381 277.378M64.9739 277.376L56.44 262.599M82.0381 277.378L73.5041 262.601L56.44 262.599" stroke="white" stroke-width="0.37912"/>
<path d="M97.1458 222.407L88.6118 207.63L80.0816 222.405L88.8052 236.853L97.1458 222.407Z" fill="#71DCD5"/>
<path d="M114.21 222.409L97.1458 222.407L88.8052 236.853L105.869 236.855L114.21 222.409Z" fill="#71DCD5"/>
<path d="M114.21 222.409L105.676 207.632L88.6118 207.63L97.1458 222.407L114.21 222.409Z" fill="#71DCD5"/>
<path d="M88.8052 236.853L105.869 236.855L114.21 222.409M88.8052 236.853L80.0816 222.405L88.6118 207.63M88.8052 236.853L97.1458 222.407M97.1458 222.407L114.21 222.409M97.1458 222.407L88.6118 207.63M114.21 222.409L105.676 207.632L88.6118 207.63" stroke="white" stroke-width="0.37912"/>
<path d="M75.0423 222.778L66.5083 208.001L57.9781 222.776L66.7016 237.225L75.0423 222.778Z" fill="#71DCD5"/>
<path d="M92.1064 222.78L75.0423 222.778L66.7016 237.225L83.7658 237.227L92.1064 222.78Z" fill="#71DCD5"/>
<path d="M92.1064 222.78L83.5725 208.004L66.5083 208.001L75.0423 222.778L92.1064 222.78Z" fill="#71DCD5"/>
<path d="M66.7016 237.225L83.7658 237.227L92.1064 222.78M66.7016 237.225L57.9781 222.776L66.5083 208.001M66.7016 237.225L75.0423 222.778M75.0423 222.778L92.1064 222.78M75.0423 222.778L66.5083 208.001M92.1064 222.78L83.5725 208.004L66.5083 208.001" stroke="white" stroke-width="0.37912"/>
<path d="M52.802 222.632L44.2681 207.855L35.7379 222.63L44.4614 237.079L52.802 222.632Z" fill="#71DCD5"/>
<path d="M69.8662 222.634L52.802 222.632L44.4614 237.079L61.5256 237.081L69.8662 222.634Z" fill="#71DCD5"/>
<path d="M69.8662 222.634L61.3323 207.858L44.2681 207.855L52.802 222.632L69.8662 222.634Z" fill="#71DCD5"/>
<path d="M44.4614 237.079L61.5256 237.081L69.8662 222.634M44.4614 237.079L35.7379 222.63L44.2681 207.855M44.4614 237.079L52.802 222.632M52.802 222.632L69.8662 222.634M52.802 222.632L44.2681 207.855M69.8662 222.634L61.3323 207.858L44.2681 207.855" stroke="white" stroke-width="0.37912"/>
<path d="M107.546 241.545L124.61 241.547L116.08 256.322L99.2051 255.991L107.546 241.545Z" fill="#71DCD5"/>
<path d="M99.0118 226.768L107.546 241.545L99.2051 255.991L90.6711 241.214L99.0118 226.768Z" fill="#71DCD5"/>
<path d="M99.0118 226.768L116.076 226.77L124.61 241.547L107.546 241.545L99.0118 226.768Z" fill="#71DCD5"/>
<path d="M99.2051 255.991L90.6711 241.214L99.0118 226.768M99.2051 255.991L116.08 256.322L124.61 241.547M99.2051 255.991L107.546 241.545M107.546 241.545L99.0118 226.768M107.546 241.545L124.61 241.547M99.0118 226.768L116.076 226.77L124.61 241.547" stroke="white" stroke-width="0.37912"/>
<path d="M118.796 260.734L110.262 245.957L101.732 260.732L110.456 275.18L118.796 260.734Z" fill="#71DCD5"/>
<path d="M135.86 260.736L118.796 260.734L110.456 275.18L127.52 275.182L135.86 260.736Z" fill="#71DCD5"/>
<path d="M135.86 260.736L127.326 245.959L110.262 245.957L118.796 260.734L135.86 260.736Z" fill="#71DCD5"/>
<path d="M110.456 275.18L127.52 275.182L135.86 260.736M110.456 275.18L101.732 260.732L110.262 245.957M110.456 275.18L118.796 260.734M118.796 260.734L135.86 260.736M118.796 260.734L110.262 245.957M135.86 260.736L127.326 245.959L110.262 245.957" stroke="white" stroke-width="0.37912"/>
<path d="M86.011 240.932L77.4771 226.155L68.9469 240.929L77.6704 255.378L86.011 240.932Z" fill="#71DCD5"/>
<path d="M103.075 240.934L86.011 240.932L77.6704 255.378L94.7345 255.38L103.075 240.934Z" fill="#71DCD5"/>
<path d="M103.075 240.934L94.5412 226.157L77.4771 226.155L86.011 240.932L103.075 240.934Z" fill="#71DCD5"/>
<path d="M77.6704 255.378L94.7345 255.38L103.075 240.934M77.6704 255.378L68.9469 240.929L77.4771 226.155M77.6704 255.378L86.011 240.932M86.011 240.932L103.075 240.934M86.011 240.932L77.4771 226.155M103.075 240.934L94.5412 226.157L77.4771 226.155" stroke="white" stroke-width="0.37912"/>
<path d="M64.6165 240.836L56.0826 226.059L47.5523 240.834L56.2759 255.283L64.6165 240.836Z" fill="#71DCD5"/>
<path d="M81.6807 240.839L64.6165 240.836L56.2759 255.283L73.34 255.285L81.6807 240.839Z" fill="#71DCD5"/>
<path d="M81.6807 240.839L73.1467 226.062L56.0826 226.059L64.6165 240.836L81.6807 240.839Z" fill="#71DCD5"/>
<path d="M56.2759 255.283L73.34 255.285L81.6807 240.839M56.2759 255.283L47.5523 240.834L56.0826 226.059M56.2759 255.283L64.6165 240.836M64.6165 240.836L81.6807 240.839M64.6165 240.836L56.0826 226.059M81.6807 240.839L73.1467 226.062L56.0826 226.059" stroke="white" stroke-width="0.37912"/>
<path d="M97.1224 259.603L88.5884 244.826L80.0582 259.601L88.7817 274.049L97.1224 259.603Z" fill="#71DCD5"/>
<path d="M114.187 259.605L97.1224 259.603L88.7817 274.049L105.846 274.051L114.187 259.605Z" fill="#71DCD5"/>
<path d="M114.187 259.605L105.653 244.828L88.5884 244.826L97.1224 259.603L114.187 259.605Z" fill="#71DCD5"/>
<path d="M88.7817 274.049L105.846 274.051L114.187 259.605M88.7817 274.049L80.0582 259.601L88.5884 244.826M88.7817 274.049L97.1224 259.603M97.1224 259.603L114.187 259.605M97.1224 259.603L88.5884 244.826M114.187 259.605L105.653 244.828L88.5884 244.826" stroke="white" stroke-width="0.37912"/>
<path d="M75.0188 259.975L66.4849 245.198L57.9547 259.972L66.6782 274.421L75.0188 259.975Z" fill="#71DCD5"/>
<path d="M92.083 259.977L75.0188 259.975L66.6782 274.421L83.7424 274.423L92.083 259.977Z" fill="#71DCD5"/>
<path d="M92.083 259.977L83.5491 245.2L66.4849 245.198L75.0188 259.975L92.083 259.977Z" fill="#71DCD5"/>
<path d="M66.6782 274.421L83.7424 274.423L92.083 259.977M66.6782 274.421L57.9547 259.972L66.4849 245.198M66.6782 274.421L75.0188 259.975M75.0188 259.975L92.083 259.977M75.0188 259.975L66.4849 245.198M92.083 259.977L83.5491 245.2L66.4849 245.198" stroke="white" stroke-width="0.37912"/>
<path d="M107.574 204.349L99.0396 189.572L90.5094 204.346L99.2329 218.795L107.574 204.349Z" fill="#71DCD5"/>
<path d="M124.638 204.351L107.574 204.349L99.2329 218.795L116.297 218.797L124.638 204.351Z" fill="#71DCD5"/>
<path d="M124.638 204.351L116.104 189.574L99.0396 189.572L107.574 204.349L124.638 204.351Z" fill="#71DCD5"/>
<path d="M99.2329 218.795L116.297 218.797L124.638 204.351M99.2329 218.795L90.5094 204.346L99.0396 189.572M99.2329 218.795L107.574 204.349M107.574 204.349L124.638 204.351M107.574 204.349L99.0396 189.572M124.638 204.351L116.104 189.574L99.0396 189.572" stroke="white" stroke-width="0.37912"/>
<path d="M85.47 204.72L76.9361 189.944L68.4059 204.718L77.1294 219.167L85.47 204.72Z" fill="#71DCD5"/>
<path d="M102.534 204.723L85.47 204.72L77.1294 219.167L94.1935 219.169L102.534 204.723Z" fill="#71DCD5"/>
<path d="M102.534 204.723L94.0002 189.946L76.9361 189.944L85.47 204.72L102.534 204.723Z" fill="#71DCD5"/>
<path d="M77.1294 219.167L94.1935 219.169L102.534 204.723M77.1294 219.167L68.4059 204.718L76.9361 189.944M77.1294 219.167L85.47 204.72M85.47 204.72L102.534 204.723M85.47 204.72L76.9361 189.944M102.534 204.723L94.0002 189.946L76.9361 189.944" stroke="white" stroke-width="0.37912"/>
<path d="M63.2278 204.575L54.6939 189.798L46.1637 204.573L54.8872 219.021L63.2278 204.575Z" fill="#71DCD5"/>
<path d="M80.292 204.577L63.2278 204.575L54.8872 219.021L71.9513 219.023L80.292 204.577Z" fill="#71DCD5"/>
<path d="M80.292 204.577L71.758 189.8L54.6939 189.798L63.2278 204.575L80.292 204.577Z" fill="#71DCD5"/>
<path d="M54.8872 219.021L71.9513 219.023L80.292 204.577M54.8872 219.021L46.1637 204.573L54.6939 189.798M54.8872 219.021L63.2278 204.575M63.2278 204.575L80.292 204.577M63.2278 204.575L54.6939 189.798M80.292 204.577L71.758 189.8L54.6939 189.798" stroke="white" stroke-width="0.37912"/>
<path d="M117.972 223.487L109.438 208.71L100.908 223.485L109.631 237.933L117.972 223.487Z" fill="#71DCD5"/>
<path d="M135.036 223.489L117.972 223.487L109.631 237.933L126.695 237.936L135.036 223.489Z" fill="#71DCD5"/>
<path d="M135.036 223.489L126.502 208.712L109.438 208.71L117.972 223.487L135.036 223.489Z" fill="#71DCD5"/>
<path d="M109.631 237.933L126.695 237.936L135.036 223.489M109.631 237.933L100.908 223.485L109.438 208.71M109.631 237.933L117.972 223.487M117.972 223.487L135.036 223.489M117.972 223.487L109.438 208.71M135.036 223.489L126.502 208.712L109.438 208.71" stroke="white" stroke-width="0.37912"/>
<path d="M129.22 242.676L120.686 227.899L112.156 242.674L120.879 257.122L129.22 242.676Z" fill="#71DCD5"/>
<path d="M146.284 242.678L129.22 242.676L120.879 257.122L137.944 257.125L146.284 242.678Z" fill="#71DCD5"/>
<path d="M146.284 242.678L137.75 227.901L120.686 227.899L129.22 242.676L146.284 242.678Z" fill="#71DCD5"/>
<path d="M120.879 257.122L137.944 257.125L146.284 242.678M120.879 257.122L112.156 242.674L120.686 227.899M120.879 257.122L129.22 242.676M129.22 242.676L146.284 242.678M129.22 242.676L120.686 227.899M146.284 242.678L137.75 227.901L120.686 227.899" stroke="white" stroke-width="0.37912"/>
</g>
<path d="M86.722 240.465L78.188 225.688L69.6578 240.463L78.3813 254.911L86.722 240.465Z" fill="#71DCD5"/>
<path d="M103.786 240.467L86.722 240.465L78.3813 254.911L95.4455 254.913L103.786 240.467Z" fill="#71DCD5"/>
<path d="M103.786 240.467L95.2522 225.69L78.188 225.688L86.722 240.465L103.786 240.467Z" fill="#71DCD5"/>
<path d="M78.3813 254.911L95.4455 254.913L103.786 240.467M78.3813 254.911L69.6578 240.463L78.188 225.688M78.3813 254.911L86.722 240.465M86.722 240.465L103.786 240.467M86.722 240.465L78.188 225.688M103.786 240.467L95.2522 225.69L78.188 225.688" stroke="white" stroke-width="0.37912"/>
<path d="M64.6185 240.837L56.0845 226.06L47.5543 240.834L56.2778 255.283L64.6185 240.837Z" fill="#71DCD5"/>
<path d="M81.6826 240.839L64.6185 240.837L56.2778 255.283L73.342 255.285L81.6826 240.839Z" fill="#71DCD5"/>
<path d="M81.6826 240.839L73.1487 226.062L56.0845 226.06L64.6185 240.837L81.6826 240.839Z" fill="#71DCD5"/>
<path d="M56.2778 255.283L73.342 255.285L81.6826 240.839M56.2778 255.283L47.5543 240.834L56.0845 226.06M56.2778 255.283L64.6185 240.837M64.6185 240.837L81.6826 240.839M64.6185 240.837L56.0845 226.06M81.6826 240.839L73.1487 226.062L56.0845 226.06" stroke="white" stroke-width="0.37912"/>
<path d="M42.3763 240.69L33.8423 225.913L25.3121 240.688L34.0356 255.137L42.3763 240.69Z" fill="#71DCD5"/>
<path d="M59.4404 240.693L42.3763 240.69L34.0356 255.137L51.0998 255.139L59.4404 240.693Z" fill="#71DCD5"/>
<path d="M59.4404 240.693L50.9065 225.916L33.8423 225.913L42.3763 240.69L59.4404 240.693Z" fill="#71DCD5"/>
<path d="M34.0356 255.137L51.0998 255.139L59.4404 240.693M34.0356 255.137L25.3121 240.688L33.8423 225.913M34.0356 255.137L42.3763 240.69M42.3763 240.69L59.4404 240.693M42.3763 240.69L33.8423 225.913M59.4404 240.693L50.9065 225.916L33.8423 225.913" stroke="white" stroke-width="0.37912"/>
<path d="M97.12 259.603L114.184 259.605L105.654 274.38L88.7793 274.049L97.12 259.603Z" fill="#71DCD5"/>
<path d="M88.586 244.826L97.12 259.603L88.7793 274.049L80.2454 259.272L88.586 244.826Z" fill="#71DCD5"/>
<path d="M88.586 244.826L105.65 244.828L114.184 259.605L97.12 259.603L88.586 244.826Z" fill="#71DCD5"/>
<path d="M88.7793 274.049L80.2454 259.272L88.586 244.826M88.7793 274.049L105.654 274.38L114.184 259.605M88.7793 274.049L97.12 259.603M97.12 259.603L88.586 244.826M97.12 259.603L114.184 259.605M88.586 244.826L105.65 244.828L114.184 259.605" stroke="white" stroke-width="0.37912"/>
<path d="M108.37 278.792L99.8365 264.015L91.3063 278.79L100.03 293.238L108.37 278.792Z" fill="#71DCD5"/>
<path d="M125.435 278.794L108.37 278.792L100.03 293.238L117.094 293.241L125.435 278.794Z" fill="#71DCD5"/>
<path d="M125.435 278.794L116.901 264.017L99.8365 264.015L108.37 278.792L125.435 278.794Z" fill="#71DCD5"/>
<path d="M100.03 293.238L117.094 293.241L125.435 278.794M100.03 293.238L91.3063 278.79L99.8365 264.015M100.03 293.238L108.37 278.792M108.37 278.792L125.435 278.794M108.37 278.792L99.8365 264.015M125.435 278.794L116.901 264.017L99.8365 264.015" stroke="white" stroke-width="0.37912"/>
<path d="M54.3821 258.566L45.8482 243.789L37.318 258.564L46.0415 273.013L54.3821 258.566Z" fill="#71DCD5"/>
<path d="M71.4463 258.569L54.3821 258.566L46.0415 273.013L63.1056 273.015L71.4463 258.569Z" fill="#71DCD5"/>
<path d="M71.4463 258.569L62.9123 243.792L45.8482 243.789L54.3821 258.566L71.4463 258.569Z" fill="#71DCD5"/>
<path d="M46.0415 273.013L63.1056 273.015L71.4463 258.569M46.0415 273.013L37.318 258.564L45.8482 243.789M46.0415 273.013L54.3821 258.566M54.3821 258.566L71.4463 258.569M54.3821 258.566L45.8482 243.789M71.4463 258.569L62.9123 243.792L45.8482 243.789" stroke="white" stroke-width="0.37912"/>
<path d="M86.886 277.333L78.3521 262.556L69.8219 277.331L78.5454 291.779L86.886 277.333Z" fill="#71DCD5"/>
<path d="M103.95 277.335L86.886 277.333L78.5454 291.779L95.6095 291.781L103.95 277.335Z" fill="#71DCD5"/>
<path d="M103.95 277.335L95.4162 262.558L78.3521 262.556L86.886 277.333L103.95 277.335Z" fill="#71DCD5"/>
<path d="M78.5454 291.779L95.6095 291.781L103.95 277.335M78.5454 291.779L69.8219 277.331L78.3521 262.556M78.5454 291.779L86.886 277.333M86.886 277.333L103.95 277.335M86.886 277.333L78.3521 262.556M103.95 277.335L95.4162 262.558L78.3521 262.556" stroke="white" stroke-width="0.37912"/>
<path d="M64.9739 277.376L56.44 262.599L47.9098 277.374L56.6333 291.823L64.9739 277.376Z" fill="#71DCD5"/>
<path d="M82.0381 277.378L64.9739 277.376L56.6333 291.823L73.6974 291.825L82.0381 277.378Z" fill="#71DCD5"/>
<path d="M82.0381 277.378L73.5041 262.601L56.44 262.599L64.9739 277.376L82.0381 277.378Z" fill="#71DCD5"/>
<path d="M56.6333 291.823L73.6974 291.825L82.0381 277.378M56.6333 291.823L47.9098 277.374L56.44 262.599M56.6333 291.823L64.9739 277.376M64.9739 277.376L82.0381 277.378M64.9739 277.376L56.44 262.599M82.0381 277.378L73.5041 262.601L56.44 262.599" stroke="white" stroke-width="0.37912"/>
<path d="M97.1458 222.407L88.6118 207.63L80.0816 222.405L88.8052 236.853L97.1458 222.407Z" fill="#71DCD5"/>
<path d="M114.21 222.409L97.1458 222.407L88.8052 236.853L105.869 236.855L114.21 222.409Z" fill="#71DCD5"/>
<path d="M114.21 222.409L105.676 207.632L88.6118 207.63L97.1458 222.407L114.21 222.409Z" fill="#71DCD5"/>
<path d="M88.8052 236.853L105.869 236.855L114.21 222.409M88.8052 236.853L80.0816 222.405L88.6118 207.63M88.8052 236.853L97.1458 222.407M97.1458 222.407L114.21 222.409M97.1458 222.407L88.6118 207.63M114.21 222.409L105.676 207.632L88.6118 207.63" stroke="white" stroke-width="0.37912"/>
<path d="M75.0423 222.779L66.5083 208.002L57.9781 222.776L66.7016 237.225L75.0423 222.779Z" fill="#71DCD5"/>
<path d="M92.1064 222.781L75.0423 222.779L66.7016 237.225L83.7658 237.227L92.1064 222.781Z" fill="#71DCD5"/>
<path d="M92.1064 222.781L83.5725 208.004L66.5083 208.002L75.0423 222.779L92.1064 222.781Z" fill="#71DCD5"/>
<path d="M66.7016 237.225L83.7658 237.227L92.1064 222.781M66.7016 237.225L57.9781 222.776L66.5083 208.002M66.7016 237.225L75.0423 222.779M75.0423 222.779L92.1064 222.781M75.0423 222.779L66.5083 208.002M92.1064 222.781L83.5725 208.004L66.5083 208.002" stroke="white" stroke-width="0.37912"/>
<path d="M52.802 222.633L44.2681 207.856L35.7379 222.63L44.4614 237.079L52.802 222.633Z" fill="#71DCD5"/>
<path d="M69.8662 222.635L52.802 222.633L44.4614 237.079L61.5256 237.081L69.8662 222.635Z" fill="#71DCD5"/>
<path d="M69.8662 222.635L61.3323 207.858L44.2681 207.856L52.802 222.633L69.8662 222.635Z" fill="#71DCD5"/>
<path d="M44.4614 237.079L61.5256 237.081L69.8662 222.635M44.4614 237.079L35.7379 222.63L44.2681 207.856M44.4614 237.079L52.802 222.633M52.802 222.633L69.8662 222.635M52.802 222.633L44.2681 207.856M69.8662 222.635L61.3323 207.858L44.2681 207.856" stroke="white" stroke-width="0.37912"/>
<path d="M107.546 241.545L124.61 241.547L116.08 256.322L99.2051 255.992L107.546 241.545Z" fill="#71DCD5"/>
<path d="M99.0118 226.768L107.546 241.545L99.2051 255.992L90.6711 241.215L99.0118 226.768Z" fill="#71DCD5"/>
<path d="M99.0118 226.768L116.076 226.77L124.61 241.547L107.546 241.545L99.0118 226.768Z" fill="#71DCD5"/>
<path d="M99.2051 255.992L90.6711 241.215L99.0118 226.768M99.2051 255.992L116.08 256.322L124.61 241.547M99.2051 255.992L107.546 241.545M107.546 241.545L99.0118 226.768M107.546 241.545L124.61 241.547M99.0118 226.768L116.076 226.77L124.61 241.547" stroke="white" stroke-width="0.37912"/>
<path d="M118.796 260.734L110.262 245.957L101.732 260.732L110.456 275.181L118.796 260.734Z" fill="#71DCD5"/>
<path d="M135.86 260.736L118.796 260.734L110.456 275.181L127.52 275.183L135.86 260.736Z" fill="#71DCD5"/>
<path d="M135.86 260.736L127.326 245.959L110.262 245.957L118.796 260.734L135.86 260.736Z" fill="#71DCD5"/>
<path d="M110.456 275.181L127.52 275.183L135.86 260.736M110.456 275.181L101.732 260.732L110.262 245.957M110.456 275.181L118.796 260.734M118.796 260.734L135.86 260.736M118.796 260.734L110.262 245.957M135.86 260.736L127.326 245.959L110.262 245.957" stroke="white" stroke-width="0.37912"/>
<path d="M86.011 240.932L77.4771 226.155L68.9469 240.93L77.6704 255.378L86.011 240.932Z" fill="#71DCD5"/>
<path d="M103.075 240.934L86.011 240.932L77.6704 255.378L94.7345 255.38L103.075 240.934Z" fill="#71DCD5"/>
<path d="M103.075 240.934L94.5412 226.157L77.4771 226.155L86.011 240.932L103.075 240.934Z" fill="#71DCD5"/>
<path d="M77.6704 255.378L94.7345 255.38L103.075 240.934M77.6704 255.378L68.9469 240.93L77.4771 226.155M77.6704 255.378L86.011 240.932M86.011 240.932L103.075 240.934M86.011 240.932L77.4771 226.155M103.075 240.934L94.5412 226.157L77.4771 226.155" stroke="white" stroke-width="0.37912"/>
<path d="M64.6165 240.837L56.0826 226.06L47.5523 240.834L56.2759 255.283L64.6165 240.837Z" fill="#71DCD5"/>
<path d="M81.6807 240.839L64.6165 240.837L56.2759 255.283L73.34 255.285L81.6807 240.839Z" fill="#71DCD5"/>
<path d="M81.6807 240.839L73.1467 226.062L56.0826 226.06L64.6165 240.837L81.6807 240.839Z" fill="#71DCD5"/>
<path d="M56.2759 255.283L73.34 255.285L81.6807 240.839M56.2759 255.283L47.5523 240.834L56.0826 226.06M56.2759 255.283L64.6165 240.837M64.6165 240.837L81.6807 240.839M64.6165 240.837L56.0826 226.06M81.6807 240.839L73.1467 226.062L56.0826 226.06" stroke="white" stroke-width="0.37912"/>
<path d="M97.1224 259.603L88.5884 244.826L80.0582 259.601L88.7817 274.049L97.1224 259.603Z" fill="#71DCD5"/>
<path d="M114.187 259.605L97.1224 259.603L88.7817 274.049L105.846 274.052L114.187 259.605Z" fill="#71DCD5"/>
<path d="M114.187 259.605L105.653 244.828L88.5884 244.826L97.1224 259.603L114.187 259.605Z" fill="#71DCD5"/>
<path d="M88.7817 274.049L105.846 274.052L114.187 259.605M88.7817 274.049L80.0582 259.601L88.5884 244.826M88.7817 274.049L97.1224 259.603M97.1224 259.603L114.187 259.605M97.1224 259.603L88.5884 244.826M114.187 259.605L105.653 244.828L88.5884 244.826" stroke="white" stroke-width="0.37912"/>
<path d="M75.0188 259.975L66.4849 245.198L57.9547 259.973L66.6782 274.421L75.0188 259.975Z" fill="#71DCD5"/>
<path d="M92.083 259.977L75.0188 259.975L66.6782 274.421L83.7424 274.423L92.083 259.977Z" fill="#71DCD5"/>
<path d="M92.083 259.977L83.5491 245.2L66.4849 245.198L75.0188 259.975L92.083 259.977Z" fill="#71DCD5"/>
<path d="M66.6782 274.421L83.7424 274.423L92.083 259.977M66.6782 274.421L57.9547 259.973L66.4849 245.198M66.6782 274.421L75.0188 259.975M75.0188 259.975L92.083 259.977M75.0188 259.975L66.4849 245.198M92.083 259.977L83.5491 245.2L66.4849 245.198" stroke="white" stroke-width="0.37912"/>
<path d="M107.574 204.349L99.0396 189.572L90.5094 204.347L99.2329 218.795L107.574 204.349Z" fill="#71DCD5"/>
<path d="M124.638 204.351L107.574 204.349L99.2329 218.795L116.297 218.797L124.638 204.351Z" fill="#71DCD5"/>
<path d="M124.638 204.351L116.104 189.574L99.0396 189.572L107.574 204.349L124.638 204.351Z" fill="#71DCD5"/>
<path d="M99.2329 218.795L116.297 218.797L124.638 204.351M99.2329 218.795L90.5094 204.347L99.0396 189.572M99.2329 218.795L107.574 204.349M107.574 204.349L124.638 204.351M107.574 204.349L99.0396 189.572M124.638 204.351L116.104 189.574L99.0396 189.572" stroke="white" stroke-width="0.37912"/>
<path d="M85.47 204.721L76.9361 189.944L68.4059 204.719L77.1294 219.167L85.47 204.721Z" fill="#71DCD5"/>
<path d="M102.534 204.723L85.47 204.721L77.1294 219.167L94.1935 219.169L102.534 204.723Z" fill="#71DCD5"/>
<path d="M102.534 204.723L94.0002 189.946L76.9361 189.944L85.47 204.721L102.534 204.723Z" fill="#71DCD5"/>
<path d="M77.1294 219.167L94.1935 219.169L102.534 204.723M77.1294 219.167L68.4059 204.719L76.9361 189.944M77.1294 219.167L85.47 204.721M85.47 204.721L102.534 204.723M85.47 204.721L76.9361 189.944M102.534 204.723L94.0002 189.946L76.9361 189.944" stroke="white" stroke-width="0.37912"/>
<path d="M63.2278 204.575L54.6939 189.798L46.1637 204.573L54.8872 219.021L63.2278 204.575Z" fill="#71DCD5"/>
<path d="M80.292 204.577L63.2278 204.575L54.8872 219.021L71.9513 219.024L80.292 204.577Z" fill="#71DCD5"/>
<path d="M80.292 204.577L71.758 189.8L54.6939 189.798L63.2278 204.575L80.292 204.577Z" fill="#71DCD5"/>
<path d="M54.8872 219.021L71.9513 219.024L80.292 204.577M54.8872 219.021L46.1637 204.573L54.6939 189.798M54.8872 219.021L63.2278 204.575M63.2278 204.575L80.292 204.577M63.2278 204.575L54.6939 189.798M80.292 204.577L71.758 189.8L54.6939 189.798" stroke="white" stroke-width="0.37912"/>
<path d="M117.972 223.487L109.438 208.71L100.908 223.485L109.631 237.934L117.972 223.487Z" fill="#71DCD5"/>
<path d="M135.036 223.489L117.972 223.487L109.631 237.934L126.695 237.936L135.036 223.489Z" fill="#71DCD5"/>
<path d="M135.036 223.489L126.502 208.713L109.438 208.71L117.972 223.487L135.036 223.489Z" fill="#71DCD5"/>
<path d="M109.631 237.934L126.695 237.936L135.036 223.489M109.631 237.934L100.908 223.485L109.438 208.71M109.631 237.934L117.972 223.487M117.972 223.487L135.036 223.489M117.972 223.487L109.438 208.71M135.036 223.489L126.502 208.713L109.438 208.71" stroke="white" stroke-width="0.37912"/>
<path d="M129.22 242.676L120.686 227.9L112.156 242.674L120.879 257.123L129.22 242.676Z" fill="#71DCD5"/>
<path d="M146.284 242.679L129.22 242.676L120.879 257.123L137.944 257.125L146.284 242.679Z" fill="#71DCD5"/>
<path d="M146.284 242.679L137.75 227.902L120.686 227.9L129.22 242.676L146.284 242.679Z" fill="#71DCD5"/>
<path d="M120.879 257.123L137.944 257.125L146.284 242.679M120.879 257.123L112.156 242.674L120.686 227.9M120.879 257.123L129.22 242.676M129.22 242.676L146.284 242.679M129.22 242.676L120.686 227.9M146.284 242.679L137.75 227.902L120.686 227.9" stroke="white" stroke-width="0.37912"/>
<g filter="url(#filter1_f_282_1380)">
<path d="M238.331 127.657L211.867 134.752L231.237 154.122L257.271 146.597L238.331 127.657Z" fill="#71DCD5"/>
<path d="M245.426 101.192L238.331 127.657L257.271 146.597L264.366 120.132L245.426 101.192Z" fill="#71DCD5"/>
<path d="M245.426 101.192L218.961 108.287L211.867 134.752L238.331 127.657L245.426 101.192Z" fill="#71DCD5"/>
<path d="M257.271 146.597L264.366 120.132L245.426 101.192M257.271 146.597L231.237 154.122L211.867 134.752M257.271 146.597L238.331 127.657M238.331 127.657L245.426 101.192M238.331 127.657L211.867 134.752M245.426 101.192L218.961 108.287L211.867 134.752" stroke="white" stroke-width="0.608741"/>
<path d="M229.72 162.093L203.255 169.187L222.625 188.557L248.66 181.032L229.72 162.093Z" fill="#71DCD5"/>
<path d="M236.815 135.628L229.72 162.093L248.66 181.032L255.755 154.567L236.815 135.628Z" fill="#71DCD5"/>
<path d="M236.815 135.628L210.35 142.723L203.255 169.187L229.72 162.093L236.815 135.628Z" fill="#71DCD5"/>
<path d="M248.66 181.032L255.755 154.567L236.815 135.628M248.66 181.032L222.625 188.557L203.255 169.187M248.66 181.032L229.72 162.093M229.72 162.093L236.815 135.628M229.72 162.093L203.255 169.187M236.815 135.628L210.35 142.723L203.255 169.187" stroke="white" stroke-width="0.608741"/>
<path d="M220.251 196.528L193.787 203.623L213.157 222.993L239.191 215.468L220.251 196.528Z" fill="#71DCD5"/>
<path d="M227.346 170.063L220.251 196.528L239.191 215.468L246.286 189.003L227.346 170.063Z" fill="#71DCD5"/>
<path d="M227.346 170.063L200.881 177.158L193.787 203.623L220.251 196.528L227.346 170.063Z" fill="#71DCD5"/>
<path d="M239.191 215.468L246.286 189.003L227.346 170.063M239.191 215.468L213.157 222.993L193.787 203.623M239.191 215.468L220.251 196.528M220.251 196.528L227.346 170.063M220.251 196.528L193.787 203.623M227.346 170.063L200.881 177.158L193.787 203.623" stroke="white" stroke-width="0.608741"/>
<path d="M272.334 119.479L279.429 93.0139L298.799 112.384L291.274 138.418L272.334 119.479Z" fill="#71DCD5"/>
<path d="M245.869 126.574L272.334 119.479L291.274 138.418L264.809 145.513L245.869 126.574Z" fill="#71DCD5"/>
<path d="M245.869 126.574L252.964 100.109L279.429 93.0139L272.334 119.479L245.869 126.574Z" fill="#71DCD5"/>
<path d="M291.274 138.418L264.809 145.513L245.869 126.574M291.274 138.418L298.799 112.384L279.429 93.0139M291.274 138.418L272.334 119.479M272.334 119.479L245.869 126.574M272.334 119.479L279.429 93.0139M245.869 126.574L252.964 100.109L279.429 93.0139" stroke="white" stroke-width="0.608741"/>
<path d="M306.771 110.009L280.306 117.103L299.676 136.473L325.711 128.948L306.771 110.009Z" fill="#71DCD5"/>
<path d="M313.866 83.5438L306.771 110.009L325.711 128.948L332.805 102.483L313.866 83.5438Z" fill="#71DCD5"/>
<path d="M313.866 83.5438L287.401 90.6386L280.306 117.103L306.771 110.009L313.866 83.5438Z" fill="#71DCD5"/>
<path d="M325.711 128.948L332.805 102.483L313.866 83.5438M325.711 128.948L299.676 136.473L280.306 117.103M325.711 128.948L306.771 110.009M306.771 110.009L313.866 83.5438M306.771 110.009L280.306 117.103M313.866 83.5438L287.401 90.6386L280.306 117.103" stroke="white" stroke-width="0.608741"/>
<path d="M252.964 185.337L226.499 192.432L245.869 211.802L271.904 204.276L252.964 185.337Z" fill="#71DCD5"/>
<path d="M260.059 158.872L252.964 185.337L271.904 204.276L278.999 177.811L260.059 158.872Z" fill="#71DCD5"/>
<path d="M260.059 158.872L233.594 165.967L226.499 192.432L252.964 185.337L260.059 158.872Z" fill="#71DCD5"/>
<path d="M271.904 204.276L278.999 177.811L260.059 158.872M271.904 204.276L245.869 211.802L226.499 192.432M271.904 204.276L252.964 185.337M252.964 185.337L260.059 158.872M252.964 185.337L226.499 192.432M260.059 158.872L233.594 165.967L226.499 192.432" stroke="white" stroke-width="0.608741"/>
<path d="M295.58 142.723L269.115 149.817L288.485 169.187L314.519 161.662L295.58 142.723Z" fill="#71DCD5"/>
<path d="M302.674 116.258L295.58 142.723L314.519 161.662L321.614 135.197L302.674 116.258Z" fill="#71DCD5"/>
<path d="M302.674 116.258L276.21 123.352L269.115 149.817L295.58 142.723L302.674 116.258Z" fill="#71DCD5"/>
<path d="M314.519 161.662L321.614 135.197L302.674 116.258M314.519 161.662L288.485 169.187L269.115 149.817M314.519 161.662L295.58 142.723M295.58 142.723L302.674 116.258M295.58 142.723L269.115 149.817M302.674 116.258L276.21 123.352L269.115 149.817" stroke="white" stroke-width="0.608741"/>
<path d="M286.54 176.728L260.076 183.823L279.446 203.193L305.48 195.667L286.54 176.728Z" fill="#71DCD5"/>
<path d="M293.635 150.263L286.54 176.728L305.48 195.667L312.575 169.203L293.635 150.263Z" fill="#71DCD5"/>
<path d="M293.635 150.263L267.17 157.358L260.076 183.823L286.54 176.728L293.635 150.263Z" fill="#71DCD5"/>
<path d="M305.48 195.667L312.575 169.203L293.635 150.263M305.48 195.667L279.446 203.193L260.076 183.823M305.48 195.667L286.54 176.728M286.54 176.728L293.635 150.263M286.54 176.728L260.076 183.823M293.635 150.263L267.17 157.358L260.076 183.823" stroke="white" stroke-width="0.608741"/>
<path d="M214.656 103.983L188.191 111.077L207.561 130.447L233.595 122.922L214.656 103.983Z" fill="#71DCD5"/>
<path d="M221.751 77.5177L214.656 103.983L233.595 122.922L240.69 96.4572L221.751 77.5177Z" fill="#71DCD5"/>
<path d="M221.751 77.5177L195.286 84.6125L188.191 111.077L214.656 103.983L221.751 77.5177Z" fill="#71DCD5"/>
<path d="M233.595 122.922L240.69 96.4572L221.751 77.5177M233.595 122.922L207.561 130.447L188.191 111.077M233.595 122.922L214.656 103.983M214.656 103.983L221.751 77.5177M214.656 103.983L188.191 111.077M221.751 77.5177L195.286 84.6125L188.191 111.077" stroke="white" stroke-width="0.608741"/>
<path d="M206.048 138.418L179.583 145.513L198.953 164.883L224.988 157.358L206.048 138.418Z" fill="#71DCD5"/>
<path d="M213.143 111.953L206.048 138.418L224.988 157.358L232.083 130.893L213.143 111.953Z" fill="#71DCD5"/>
<path d="M213.143 111.953L186.678 119.048L179.583 145.513L206.048 138.418L213.143 111.953Z" fill="#71DCD5"/>
<path d="M224.988 157.358L232.083 130.893L213.143 111.953M224.988 157.358L198.953 164.883L179.583 145.513M224.988 157.358L206.048 138.418M206.048 138.418L213.143 111.953M206.048 138.418L179.583 145.513M213.143 111.953L186.678 119.048L179.583 145.513" stroke="white" stroke-width="0.608741"/>
<path d="M196.578 172.854L170.113 179.948L189.483 199.318L215.517 191.793L196.578 172.854Z" fill="#71DCD5"/>
<path d="M203.672 146.389L196.578 172.854L215.517 191.793L222.612 165.328L203.672 146.389Z" fill="#71DCD5"/>
<path d="M203.672 146.389L177.208 153.484L170.113 179.948L196.578 172.854L203.672 146.389Z" fill="#71DCD5"/>
<path d="M215.517 191.793L222.612 165.328L203.672 146.389M215.517 191.793L189.483 199.318L170.113 179.948M215.517 191.793L196.578 172.854M196.578 172.854L203.672 146.389M196.578 172.854L170.113 179.948M203.672 146.389L177.208 153.484L170.113 179.948" stroke="white" stroke-width="0.608741"/>
<path d="M248.661 95.8042L255.755 69.3393L275.125 88.7093L267.6 114.744L248.661 95.8042Z" fill="#71DCD5"/>
<path d="M222.196 102.899L248.661 95.8042L267.6 114.744L241.135 121.839L222.196 102.899Z" fill="#71DCD5"/>
<path d="M222.196 102.899L229.29 76.4341L255.755 69.3393L248.661 95.8042L222.196 102.899Z" fill="#71DCD5"/>
<path d="M267.6 114.744L241.135 121.839L222.196 102.899M267.6 114.744L275.125 88.7093L255.755 69.3393M267.6 114.744L248.661 95.8042M248.661 95.8042L222.196 102.899M248.661 95.8042L255.755 69.3393M222.196 102.899L229.29 76.4341L255.755 69.3393" stroke="white" stroke-width="0.608741"/>
<path d="M283.097 86.3343L256.632 93.4291L276.002 112.799L302.037 105.274L283.097 86.3343Z" fill="#71DCD5"/>
<path d="M290.192 59.8695L283.097 86.3343L302.037 105.274L309.132 78.809L290.192 59.8695Z" fill="#71DCD5"/>
<path d="M290.192 59.8695L263.727 66.9643L256.632 93.4291L283.097 86.3343L290.192 59.8695Z" fill="#71DCD5"/>
<path d="M302.037 105.274L309.132 78.809L290.192 59.8695M302.037 105.274L276.002 112.799L256.632 93.4291M302.037 105.274L283.097 86.3343M283.097 86.3343L290.192 59.8695M283.097 86.3343L256.632 93.4291M290.192 59.8695L263.727 66.9643L256.632 93.4291" stroke="white" stroke-width="0.608741"/>
<path d="M238.759 128.948L212.294 136.043L231.664 155.413L257.699 147.888L238.759 128.948Z" fill="#71DCD5"/>
<path d="M245.854 102.483L238.759 128.948L257.699 147.888L264.794 121.423L245.854 102.483Z" fill="#71DCD5"/>
<path d="M245.854 102.483L219.389 109.578L212.294 136.043L238.759 128.948L245.854 102.483Z" fill="#71DCD5"/>
<path d="M257.699 147.888L264.794 121.423L245.854 102.483M257.699 147.888L231.664 155.413L212.294 136.043M257.699 147.888L238.759 128.948M238.759 128.948L245.854 102.483M238.759 128.948L212.294 136.043M245.854 102.483L219.389 109.578L212.294 136.043" stroke="white" stroke-width="0.608741"/>
<path d="M229.72 162.093L203.255 169.187L222.625 188.557L248.66 181.032L229.72 162.093Z" fill="#71DCD5"/>
<path d="M236.815 135.628L229.72 162.093L248.66 181.032L255.755 154.567L236.815 135.628Z" fill="#71DCD5"/>
<path d="M236.815 135.628L210.35 142.723L203.255 169.187L229.72 162.093L236.815 135.628Z" fill="#71DCD5"/>
<path d="M248.66 181.032L255.755 154.567L236.815 135.628M248.66 181.032L222.625 188.557L203.255 169.187M248.66 181.032L229.72 162.093M229.72 162.093L236.815 135.628M229.72 162.093L203.255 169.187M236.815 135.628L210.35 142.723L203.255 169.187" stroke="white" stroke-width="0.608741"/>
<path d="M272.335 119.479L245.871 126.573L265.241 145.943L291.275 138.418L272.335 119.479Z" fill="#71DCD5"/>
<path d="M279.43 93.0138L272.335 119.479L291.275 138.418L298.37 111.953L279.43 93.0138Z" fill="#71DCD5"/>
<path d="M279.43 93.0138L252.965 100.109L245.871 126.573L272.335 119.479L279.43 93.0138Z" fill="#71DCD5"/>
<path d="M291.275 138.418L298.37 111.953L279.43 93.0138M291.275 138.418L265.241 145.943L245.871 126.573M291.275 138.418L272.335 119.479M272.335 119.479L279.43 93.0138M272.335 119.479L245.871 126.573M279.43 93.0138L252.965 100.109L245.871 126.573" stroke="white" stroke-width="0.608741"/>
<path d="M263.726 153.914L237.261 161.009L256.631 180.379L282.666 172.854L263.726 153.914Z" fill="#71DCD5"/>
<path d="M270.821 127.45L263.726 153.914L282.666 172.854L289.76 146.389L270.821 127.45Z" fill="#71DCD5"/>
<path d="M270.821 127.45L244.356 134.544L237.261 161.009L263.726 153.914L270.821 127.45Z" fill="#71DCD5"/>
<path d="M282.666 172.854L289.76 146.389L270.821 127.45M282.666 172.854L256.631 180.379L237.261 161.009M282.666 172.854L263.726 153.914M263.726 153.914L270.821 127.45M263.726 153.914L237.261 161.009M270.821 127.45L244.356 134.544L237.261 161.009" stroke="white" stroke-width="0.608741"/>
<path d="M190.982 80.3082L164.517 87.403L183.887 106.773L209.921 99.2478L190.982 80.3082Z" fill="#71DCD5"/>
<path d="M198.077 53.8433L190.982 80.3082L209.921 99.2478L217.016 72.7829L198.077 53.8433Z" fill="#71DCD5"/>
<path d="M198.077 53.8433L171.612 60.9382L164.517 87.403L190.982 80.3082L198.077 53.8433Z" fill="#71DCD5"/>
<path d="M209.921 99.2478L217.016 72.7829L198.077 53.8433M209.921 99.2478L183.887 106.773L164.517 87.403M209.921 99.2478L190.982 80.3082M190.982 80.3082L198.077 53.8433M190.982 80.3082L164.517 87.403M198.077 53.8433L171.612 60.9382L164.517 87.403" stroke="white" stroke-width="0.608741"/>
<path d="M182.373 114.743L155.908 121.838L175.278 141.208L201.312 133.683L182.373 114.743Z" fill="#71DCD5"/>
<path d="M189.467 88.2786L182.373 114.743L201.312 133.683L208.407 107.218L189.467 88.2786Z" fill="#71DCD5"/>
<path d="M189.467 88.2786L163.002 95.3735L155.908 121.838L182.373 114.743L189.467 88.2786Z" fill="#71DCD5"/>
<path d="M201.312 133.683L208.407 107.218L189.467 88.2786M201.312 133.683L175.278 141.208L155.908 121.838M201.312 133.683L182.373 114.743M182.373 114.743L189.467 88.2786M182.373 114.743L155.908 121.838M189.467 88.2786L163.002 95.3735L155.908 121.838" stroke="white" stroke-width="0.608741"/>
<path d="M172.902 149.179L146.437 156.274L165.807 175.644L191.841 168.119L172.902 149.179Z" fill="#71DCD5"/>
<path d="M179.997 122.714L172.902 149.179L191.841 168.119L198.936 141.654L179.997 122.714Z" fill="#71DCD5"/>
<path d="M179.997 122.714L153.532 129.809L146.437 156.274L172.902 149.179L179.997 122.714Z" fill="#71DCD5"/>
<path d="M191.841 168.119L198.936 141.654L179.997 122.714M191.841 168.119L165.807 175.644L146.437 156.274M191.841 168.119L172.902 149.179M172.902 149.179L179.997 122.714M172.902 149.179L146.437 156.274M179.997 122.714L153.532 129.809L146.437 156.274" stroke="white" stroke-width="0.608741"/>
<path d="M224.986 72.1297L198.521 79.2246L217.891 98.5946L243.925 91.0693L224.986 72.1297Z" fill="#71DCD5"/>
<path d="M232.081 45.6649L224.986 72.1297L243.925 91.0693L251.02 64.6045L232.081 45.6649Z" fill="#71DCD5"/>
<path d="M232.081 45.6649L205.616 52.7597L198.521 79.2246L224.986 72.1297L232.081 45.6649Z" fill="#71DCD5"/>
<path d="M243.925 91.0693L251.02 64.6045L232.081 45.6649M243.925 91.0693L217.891 98.5946L198.521 79.2246M243.925 91.0693L224.986 72.1297M224.986 72.1297L232.081 45.6649M224.986 72.1297L198.521 79.2246M232.081 45.6649L205.616 52.7597L198.521 79.2246" stroke="white" stroke-width="0.608741"/>
<path d="M259.421 62.66L232.956 69.7548L252.327 89.1249L278.361 81.5996L259.421 62.66Z" fill="#71DCD5"/>
<path d="M266.516 36.1952L259.421 62.66L278.361 81.5996L285.456 55.1347L266.516 36.1952Z" fill="#71DCD5"/>
<path d="M266.516 36.1952L240.051 43.29L232.956 69.7548L259.421 62.66L266.516 36.1952Z" fill="#71DCD5"/>
<path d="M278.361 81.5996L285.456 55.1347L266.516 36.1952M278.361 81.5996L252.327 89.1249L232.956 69.7548M278.361 81.5996L259.421 62.66M259.421 62.66L266.516 36.1952M259.421 62.66L232.956 69.7548M266.516 36.1952L240.051 43.29L232.956 69.7548" stroke="white" stroke-width="0.608741"/>
</g>
<path d="M238.331 127.657L211.867 134.752L231.237 154.122L257.271 146.597L238.331 127.657Z" fill="#71DCD5"/>
<path d="M245.426 101.192L238.331 127.657L257.271 146.597L264.366 120.132L245.426 101.192Z" fill="#71DCD5"/>
<path d="M245.426 101.192L218.961 108.287L211.867 134.752L238.331 127.657L245.426 101.192Z" fill="#71DCD5"/>
<path d="M257.271 146.597L264.366 120.132L245.426 101.192M257.271 146.597L231.237 154.122L211.867 134.752M257.271 146.597L238.331 127.657M238.331 127.657L245.426 101.192M238.331 127.657L211.867 134.752M245.426 101.192L218.961 108.287L211.867 134.752" stroke="white" stroke-width="0.608741"/>
<path d="M229.72 162.093L203.255 169.187L222.625 188.557L248.66 181.032L229.72 162.093Z" fill="#71DCD5"/>
<path d="M236.815 135.628L229.72 162.093L248.66 181.032L255.755 154.567L236.815 135.628Z" fill="#71DCD5"/>
<path d="M236.815 135.628L210.35 142.723L203.255 169.187L229.72 162.093L236.815 135.628Z" fill="#71DCD5"/>
<path d="M248.66 181.032L255.755 154.567L236.815 135.628M248.66 181.032L222.625 188.557L203.255 169.187M248.66 181.032L229.72 162.093M229.72 162.093L236.815 135.628M229.72 162.093L203.255 169.187M236.815 135.628L210.35 142.723L203.255 169.187" stroke="white" stroke-width="0.608741"/>
<path d="M220.251 196.528L193.787 203.623L213.157 222.993L239.191 215.468L220.251 196.528Z" fill="#71DCD5"/>
<path d="M227.346 170.063L220.251 196.528L239.191 215.468L246.286 189.003L227.346 170.063Z" fill="#71DCD5"/>
<path d="M227.346 170.063L200.881 177.158L193.787 203.623L220.251 196.528L227.346 170.063Z" fill="#71DCD5"/>
<path d="M239.191 215.468L246.286 189.003L227.346 170.063M239.191 215.468L213.157 222.993L193.787 203.623M239.191 215.468L220.251 196.528M220.251 196.528L227.346 170.063M220.251 196.528L193.787 203.623M227.346 170.063L200.881 177.158L193.787 203.623" stroke="white" stroke-width="0.608741"/>
<path d="M272.334 119.479L279.429 93.0139L298.799 112.384L291.274 138.418L272.334 119.479Z" fill="#71DCD5"/>
<path d="M245.869 126.574L272.334 119.479L291.274 138.418L264.809 145.513L245.869 126.574Z" fill="#71DCD5"/>
<path d="M245.869 126.574L252.964 100.109L279.429 93.0139L272.334 119.479L245.869 126.574Z" fill="#71DCD5"/>
<path d="M291.274 138.418L264.809 145.513L245.869 126.574M291.274 138.418L298.799 112.384L279.429 93.0139M291.274 138.418L272.334 119.479M272.334 119.479L245.869 126.574M272.334 119.479L279.429 93.0139M245.869 126.574L252.964 100.109L279.429 93.0139" stroke="white" stroke-width="0.608741"/>
<path d="M306.771 110.009L280.306 117.103L299.676 136.473L325.711 128.948L306.771 110.009Z" fill="#71DCD5"/>
<path d="M313.866 83.5438L306.771 110.009L325.711 128.948L332.805 102.483L313.866 83.5438Z" fill="#71DCD5"/>
<path d="M313.866 83.5438L287.401 90.6386L280.306 117.103L306.771 110.009L313.866 83.5438Z" fill="#71DCD5"/>
<path d="M325.711 128.948L332.805 102.483L313.866 83.5438M325.711 128.948L299.676 136.473L280.306 117.103M325.711 128.948L306.771 110.009M306.771 110.009L313.866 83.5438M306.771 110.009L280.306 117.103M313.866 83.5438L287.401 90.6386L280.306 117.103" stroke="white" stroke-width="0.608741"/>
<path d="M252.964 185.337L226.499 192.432L245.869 211.802L271.904 204.276L252.964 185.337Z" fill="#71DCD5"/>
<path d="M260.059 158.872L252.964 185.337L271.904 204.276L278.999 177.811L260.059 158.872Z" fill="#71DCD5"/>
<path d="M260.059 158.872L233.594 165.967L226.499 192.432L252.964 185.337L260.059 158.872Z" fill="#71DCD5"/>
<path d="M271.904 204.276L278.999 177.811L260.059 158.872M271.904 204.276L245.869 211.802L226.499 192.432M271.904 204.276L252.964 185.337M252.964 185.337L260.059 158.872M252.964 185.337L226.499 192.432M260.059 158.872L233.594 165.967L226.499 192.432" stroke="white" stroke-width="0.608741"/>
<path d="M295.58 142.723L269.115 149.817L288.485 169.187L314.519 161.662L295.58 142.723Z" fill="#71DCD5"/>
<path d="M302.674 116.258L295.58 142.723L314.519 161.662L321.614 135.197L302.674 116.258Z" fill="#71DCD5"/>
<path d="M302.674 116.258L276.21 123.352L269.115 149.817L295.58 142.723L302.674 116.258Z" fill="#71DCD5"/>
<path d="M314.519 161.662L321.614 135.197L302.674 116.258M314.519 161.662L288.485 169.187L269.115 149.817M314.519 161.662L295.58 142.723M295.58 142.723L302.674 116.258M295.58 142.723L269.115 149.817M302.674 116.258L276.21 123.352L269.115 149.817" stroke="white" stroke-width="0.608741"/>
<path d="M286.54 176.728L260.076 183.823L279.446 203.193L305.48 195.667L286.54 176.728Z" fill="#71DCD5"/>
<path d="M293.635 150.263L286.54 176.728L305.48 195.667L312.575 169.203L293.635 150.263Z" fill="#71DCD5"/>
<path d="M293.635 150.263L267.17 157.358L260.076 183.823L286.54 176.728L293.635 150.263Z" fill="#71DCD5"/>
<path d="M305.48 195.667L312.575 169.203L293.635 150.263M305.48 195.667L279.446 203.193L260.076 183.823M305.48 195.667L286.54 176.728M286.54 176.728L293.635 150.263M286.54 176.728L260.076 183.823M293.635 150.263L267.17 157.358L260.076 183.823" stroke="white" stroke-width="0.608741"/>
<path d="M214.656 103.983L188.191 111.077L207.561 130.447L233.595 122.922L214.656 103.983Z" fill="#71DCD5"/>
<path d="M221.751 77.5177L214.656 103.983L233.595 122.922L240.69 96.4572L221.751 77.5177Z" fill="#71DCD5"/>
<path d="M221.751 77.5177L195.286 84.6125L188.191 111.077L214.656 103.983L221.751 77.5177Z" fill="#71DCD5"/>
<path d="M233.595 122.922L240.69 96.4572L221.751 77.5177M233.595 122.922L207.561 130.447L188.191 111.077M233.595 122.922L214.656 103.983M214.656 103.983L221.751 77.5177M214.656 103.983L188.191 111.077M221.751 77.5177L195.286 84.6125L188.191 111.077" stroke="white" stroke-width="0.608741"/>
<path d="M206.048 138.418L179.583 145.513L198.953 164.883L224.988 157.358L206.048 138.418Z" fill="#71DCD5"/>
<path d="M213.143 111.953L206.048 138.418L224.988 157.358L232.083 130.893L213.143 111.953Z" fill="#71DCD5"/>
<path d="M213.143 111.953L186.678 119.048L179.583 145.513L206.048 138.418L213.143 111.953Z" fill="#71DCD5"/>
<path d="M224.988 157.358L232.083 130.893L213.143 111.953M224.988 157.358L198.953 164.883L179.583 145.513M224.988 157.358L206.048 138.418M206.048 138.418L213.143 111.953M206.048 138.418L179.583 145.513M213.143 111.953L186.678 119.048L179.583 145.513" stroke="white" stroke-width="0.608741"/>
<path d="M196.578 172.854L170.113 179.948L189.483 199.318L215.517 191.793L196.578 172.854Z" fill="#71DCD5"/>
<path d="M203.672 146.389L196.578 172.854L215.517 191.793L222.612 165.328L203.672 146.389Z" fill="#71DCD5"/>
<path d="M203.672 146.389L177.208 153.484L170.113 179.948L196.578 172.854L203.672 146.389Z" fill="#71DCD5"/>
<path d="M215.517 191.793L222.612 165.328L203.672 146.389M215.517 191.793L189.483 199.318L170.113 179.948M215.517 191.793L196.578 172.854M196.578 172.854L203.672 146.389M196.578 172.854L170.113 179.948M203.672 146.389L177.208 153.484L170.113 179.948" stroke="white" stroke-width="0.608741"/>
<path d="M248.661 95.8042L255.755 69.3393L275.125 88.7093L267.6 114.744L248.661 95.8042Z" fill="#71DCD5"/>
<path d="M222.196 102.899L248.661 95.8042L267.6 114.744L241.135 121.839L222.196 102.899Z" fill="#71DCD5"/>
<path d="M222.196 102.899L229.29 76.4341L255.755 69.3393L248.661 95.8042L222.196 102.899Z" fill="#71DCD5"/>
<path d="M267.6 114.744L241.135 121.839L222.196 102.899M267.6 114.744L275.125 88.7093L255.755 69.3393M267.6 114.744L248.661 95.8042M248.661 95.8042L222.196 102.899M248.661 95.8042L255.755 69.3393M222.196 102.899L229.29 76.4341L255.755 69.3393" stroke="white" stroke-width="0.608741"/>
<path d="M283.097 86.3343L256.632 93.4291L276.002 112.799L302.037 105.274L283.097 86.3343Z" fill="#71DCD5"/>
<path d="M290.192 59.8695L283.097 86.3343L302.037 105.274L309.132 78.809L290.192 59.8695Z" fill="#71DCD5"/>
<path d="M290.192 59.8695L263.727 66.9643L256.632 93.4291L283.097 86.3343L290.192 59.8695Z" fill="#71DCD5"/>
<path d="M302.037 105.274L309.132 78.809L290.192 59.8695M302.037 105.274L276.002 112.799L256.632 93.4291M302.037 105.274L283.097 86.3343M283.097 86.3343L290.192 59.8695M283.097 86.3343L256.632 93.4291M290.192 59.8695L263.727 66.9643L256.632 93.4291" stroke="white" stroke-width="0.608741"/>
<path d="M238.759 128.948L212.294 136.043L231.664 155.413L257.699 147.888L238.759 128.948Z" fill="#71DCD5"/>
<path d="M245.854 102.483L238.759 128.948L257.699 147.888L264.794 121.423L245.854 102.483Z" fill="#71DCD5"/>
<path d="M245.854 102.483L219.389 109.578L212.294 136.043L238.759 128.948L245.854 102.483Z" fill="#71DCD5"/>
<path d="M257.699 147.888L264.794 121.423L245.854 102.483M257.699 147.888L231.664 155.413L212.294 136.043M257.699 147.888L238.759 128.948M238.759 128.948L245.854 102.483M238.759 128.948L212.294 136.043M245.854 102.483L219.389 109.578L212.294 136.043" stroke="white" stroke-width="0.608741"/>
<path d="M229.72 162.093L203.255 169.187L222.625 188.557L248.66 181.032L229.72 162.093Z" fill="#71DCD5"/>
<path d="M236.815 135.628L229.72 162.093L248.66 181.032L255.755 154.567L236.815 135.628Z" fill="#71DCD5"/>
<path d="M236.815 135.628L210.35 142.723L203.255 169.187L229.72 162.093L236.815 135.628Z" fill="#71DCD5"/>
<path d="M248.66 181.032L255.755 154.567L236.815 135.628M248.66 181.032L222.625 188.557L203.255 169.187M248.66 181.032L229.72 162.093M229.72 162.093L236.815 135.628M229.72 162.093L203.255 169.187M236.815 135.628L210.35 142.723L203.255 169.187" stroke="white" stroke-width="0.608741"/>
<path d="M272.335 119.479L245.871 126.573L265.241 145.943L291.275 138.418L272.335 119.479Z" fill="#71DCD5"/>
<path d="M279.43 93.0138L272.335 119.479L291.275 138.418L298.37 111.953L279.43 93.0138Z" fill="#71DCD5"/>
<path d="M279.43 93.0138L252.965 100.109L245.871 126.573L272.335 119.479L279.43 93.0138Z" fill="#71DCD5"/>
<path d="M291.275 138.418L298.37 111.953L279.43 93.0138M291.275 138.418L265.241 145.943L245.871 126.573M291.275 138.418L272.335 119.479M272.335 119.479L279.43 93.0138M272.335 119.479L245.871 126.573M279.43 93.0138L252.965 100.109L245.871 126.573" stroke="white" stroke-width="0.608741"/>
<path d="M263.726 153.914L237.261 161.009L256.631 180.379L282.666 172.854L263.726 153.914Z" fill="#71DCD5"/>
<path d="M270.821 127.45L263.726 153.914L282.666 172.854L289.76 146.389L270.821 127.45Z" fill="#71DCD5"/>
<path d="M270.821 127.45L244.356 134.544L237.261 161.009L263.726 153.914L270.821 127.45Z" fill="#71DCD5"/>
<path d="M282.666 172.854L289.76 146.389L270.821 127.45M282.666 172.854L256.631 180.379L237.261 161.009M282.666 172.854L263.726 153.914M263.726 153.914L270.821 127.45M263.726 153.914L237.261 161.009M270.821 127.45L244.356 134.544L237.261 161.009" stroke="white" stroke-width="0.608741"/>
<path d="M190.982 80.3082L164.517 87.403L183.887 106.773L209.921 99.2478L190.982 80.3082Z" fill="#71DCD5"/>
<path d="M198.077 53.8433L190.982 80.3082L209.921 99.2478L217.016 72.7829L198.077 53.8433Z" fill="#71DCD5"/>
<path d="M198.077 53.8433L171.612 60.9382L164.517 87.403L190.982 80.3082L198.077 53.8433Z" fill="#71DCD5"/>
<path d="M209.921 99.2478L217.016 72.7829L198.077 53.8433M209.921 99.2478L183.887 106.773L164.517 87.403M209.921 99.2478L190.982 80.3082M190.982 80.3082L198.077 53.8433M190.982 80.3082L164.517 87.403M198.077 53.8433L171.612 60.9382L164.517 87.403" stroke="white" stroke-width="0.608741"/>
<path d="M182.373 114.743L155.908 121.838L175.278 141.208L201.312 133.683L182.373 114.743Z" fill="#71DCD5"/>
<path d="M189.467 88.2786L182.373 114.743L201.312 133.683L208.407 107.218L189.467 88.2786Z" fill="#71DCD5"/>
<path d="M189.467 88.2786L163.002 95.3735L155.908 121.838L182.373 114.743L189.467 88.2786Z" fill="#71DCD5"/>
<path d="M201.312 133.683L208.407 107.218L189.467 88.2786M201.312 133.683L175.278 141.208L155.908 121.838M201.312 133.683L182.373 114.743M182.373 114.743L189.467 88.2786M182.373 114.743L155.908 121.838M189.467 88.2786L163.002 95.3735L155.908 121.838" stroke="white" stroke-width="0.608741"/>
<path d="M172.902 149.179L146.437 156.274L165.807 175.644L191.841 168.119L172.902 149.179Z" fill="#71DCD5"/>
<path d="M179.997 122.714L172.902 149.179L191.841 168.119L198.936 141.654L179.997 122.714Z" fill="#71DCD5"/>
<path d="M179.997 122.714L153.532 129.809L146.437 156.274L172.902 149.179L179.997 122.714Z" fill="#71DCD5"/>
<path d="M191.841 168.119L198.936 141.654L179.997 122.714M191.841 168.119L165.807 175.644L146.437 156.274M191.841 168.119L172.902 149.179M172.902 149.179L179.997 122.714M172.902 149.179L146.437 156.274M179.997 122.714L153.532 129.809L146.437 156.274" stroke="white" stroke-width="0.608741"/>
<path d="M224.986 72.1297L198.521 79.2246L217.891 98.5946L243.925 91.0693L224.986 72.1297Z" fill="#71DCD5"/>
<path d="M232.081 45.6649L224.986 72.1297L243.925 91.0693L251.02 64.6045L232.081 45.6649Z" fill="#71DCD5"/>
<path d="M232.081 45.6649L205.616 52.7597L198.521 79.2246L224.986 72.1297L232.081 45.6649Z" fill="#71DCD5"/>
<path d="M243.925 91.0693L251.02 64.6045L232.081 45.6649M243.925 91.0693L217.891 98.5946L198.521 79.2246M243.925 91.0693L224.986 72.1297M224.986 72.1297L232.081 45.6649M224.986 72.1297L198.521 79.2246M232.081 45.6649L205.616 52.7597L198.521 79.2246" stroke="white" stroke-width="0.608741"/>
<path d="M259.421 62.66L232.956 69.7548L252.327 89.1249L278.361 81.5996L259.421 62.66Z" fill="#71DCD5"/>
<path d="M266.516 36.1952L259.421 62.66L278.361 81.5996L285.456 55.1347L266.516 36.1952Z" fill="#71DCD5"/>
<path d="M266.516 36.1952L240.051 43.29L232.956 69.7548L259.421 62.66L266.516 36.1952Z" fill="#71DCD5"/>
<path d="M278.361 81.5996L285.456 55.1347L266.516 36.1952M278.361 81.5996L252.327 89.1249L232.956 69.7548M278.361 81.5996L259.421 62.66M259.421 62.66L266.516 36.1952M259.421 62.66L232.956 69.7548M266.516 36.1952L240.051 43.29L232.956 69.7548" stroke="white" stroke-width="0.608741"/>
<g filter="url(#filter2_f_282_1380)">
<path d="M262.478 278.41L264.564 286.19L270.258 280.495L268.046 272.842L262.478 278.41Z" fill="#E1F1F0"/>
<path d="M254.698 276.324L262.478 278.41L268.046 272.842L260.266 270.756L254.698 276.324Z" fill="#E1F1F0"/>
<path d="M254.698 276.324L256.784 284.104L264.564 286.19L262.478 278.41L254.698 276.324Z" fill="#E1F1F0"/>
<path d="M268.046 272.842L260.266 270.756L254.698 276.324M268.046 272.842L270.258 280.495L264.564 286.19M268.046 272.842L262.478 278.41M262.478 278.41L254.698 276.324M262.478 278.41L264.564 286.19M254.698 276.324L256.784 284.104L264.564 286.19" stroke="white" stroke-width="0.178952"/>
<path d="M272.601 280.94L274.687 288.72L280.381 283.026L278.169 275.372L272.601 280.94Z" fill="#E1F1F0"/>
<path d="M264.821 278.854L272.601 280.94L278.169 275.372L270.389 273.287L264.821 278.854Z" fill="#E1F1F0"/>
<path d="M264.821 278.854L266.907 286.634L274.687 288.72L272.601 280.94L264.821 278.854Z" fill="#E1F1F0"/>
<path d="M278.169 275.372L270.389 273.287L264.821 278.854M278.169 275.372L280.381 283.026L274.687 288.72M278.169 275.372L272.601 280.94M272.601 280.94L264.821 278.854M272.601 280.94L274.687 288.72M264.821 278.854L266.907 286.634L274.687 288.72" stroke="white" stroke-width="0.178952"/>
<path d="M282.724 283.725L284.81 291.504L290.504 285.81L288.292 278.157L282.724 283.725Z" fill="#E1F1F0"/>
<path d="M274.944 281.639L282.724 283.725L288.292 278.157L280.512 276.071L274.944 281.639Z" fill="#E1F1F0"/>
<path d="M274.944 281.639L277.03 289.419L284.81 291.504L282.724 283.725L274.944 281.639Z" fill="#E1F1F0"/>
<path d="M288.292 278.157L280.512 276.071L274.944 281.639M288.292 278.157L290.504 285.81L284.81 291.504M288.292 278.157L282.724 283.725M282.724 283.725L274.944 281.639M282.724 283.725L284.81 291.504M274.944 281.639L277.03 289.419L284.81 291.504" stroke="white" stroke-width="0.178952"/>
<path d="M260.072 268.413L252.292 266.327L257.987 260.633L265.64 262.845L260.072 268.413Z" fill="#E1F1F0"/>
<path d="M262.158 276.193L260.072 268.413L265.64 262.845L267.726 270.625L262.158 276.193Z" fill="#E1F1F0"/>
<path d="M262.158 276.193L254.378 274.107L252.292 266.327L260.072 268.413L262.158 276.193Z" fill="#E1F1F0"/>
<path d="M265.64 262.845L267.726 270.625L262.158 276.193M265.64 262.845L257.987 260.633L252.292 266.327M265.64 262.845L260.072 268.413M260.072 268.413L262.158 276.193M260.072 268.413L252.292 266.327M262.158 276.193L254.378 274.107L252.292 266.327" stroke="white" stroke-width="0.178952"/>
<path d="M257.291 258.29L259.376 266.07L265.071 260.376L262.858 252.722L257.291 258.29Z" fill="#E1F1F0"/>
<path d="M249.511 256.204L257.291 258.29L262.858 252.722L255.079 250.637L249.511 256.204Z" fill="#E1F1F0"/>
<path d="M249.511 256.204L251.597 263.984L259.376 266.07L257.291 258.29L249.511 256.204Z" fill="#E1F1F0"/>
<path d="M262.858 252.722L255.079 250.637L249.511 256.204M262.858 252.722L265.071 260.376L259.376 266.07M262.858 252.722L257.291 258.29M257.291 258.29L249.511 256.204M257.291 258.29L259.376 266.07M249.511 256.204L251.597 263.984L259.376 266.07" stroke="white" stroke-width="0.178952"/>
<path d="M279.435 274.107L281.521 281.887L287.215 276.193L285.003 268.539L279.435 274.107Z" fill="#E1F1F0"/>
<path d="M271.655 272.021L279.435 274.107L285.003 268.539L277.223 266.454L271.655 272.021Z" fill="#E1F1F0"/>
<path d="M271.655 272.021L273.741 279.801L281.521 281.887L279.435 274.107L271.655 272.021Z" fill="#E1F1F0"/>
<path d="M285.003 268.539L277.223 266.454L271.655 272.021M285.003 268.539L287.215 276.193L281.521 281.887M285.003 268.539L279.435 274.107M279.435 274.107L271.655 272.021M279.435 274.107L281.521 281.887M271.655 272.021L273.741 279.801L281.521 281.887" stroke="white" stroke-width="0.178952"/>
<path d="M266.906 261.58L268.992 269.36L274.686 263.665L272.474 256.012L266.906 261.58Z" fill="#E1F1F0"/>
<path d="M259.126 259.494L266.906 261.58L272.474 256.012L264.694 253.926L259.126 259.494Z" fill="#E1F1F0"/>
<path d="M259.126 259.494L261.212 267.274L268.992 269.36L266.906 261.58L259.126 259.494Z" fill="#E1F1F0"/>
<path d="M272.474 256.012L264.694 253.926L259.126 259.494M272.474 256.012L274.686 263.665L268.992 269.36M272.474 256.012L266.906 261.58M266.906 261.58L259.126 259.494M266.906 261.58L268.992 269.36M259.126 259.494L261.212 267.274L268.992 269.36" stroke="white" stroke-width="0.178952"/>
<path d="M276.904 264.238L278.99 272.018L284.684 266.324L282.472 258.671L276.904 264.238Z" fill="#E1F1F0"/>
<path d="M269.124 262.153L276.904 264.238L282.472 258.671L274.692 256.585L269.124 262.153Z" fill="#E1F1F0"/>
<path d="M269.124 262.153L271.21 269.933L278.99 272.018L276.904 264.238L269.124 262.153Z" fill="#E1F1F0"/>
<path d="M282.472 258.671L274.692 256.585L269.124 262.153M282.472 258.671L284.684 266.324L278.99 272.018M282.472 258.671L276.904 264.238M276.904 264.238L269.124 262.153M276.904 264.238L278.99 272.018M269.124 262.153L271.21 269.933L278.99 272.018" stroke="white" stroke-width="0.178952"/>
<path d="M255.519 285.371L257.605 293.15L263.299 287.456L261.087 279.803L255.519 285.371Z" fill="#E1F1F0"/>
<path d="M247.739 283.285L255.519 285.371L261.087 279.803L253.307 277.717L247.739 283.285Z" fill="#E1F1F0"/>
<path d="M247.739 283.285L249.825 291.065L257.605 293.15L255.519 285.371L247.739 283.285Z" fill="#E1F1F0"/>
<path d="M261.087 279.803L253.307 277.717L247.739 283.285M261.087 279.803L263.299 287.456L257.605 293.15M261.087 279.803L255.519 285.371M255.519 285.371L247.739 283.285M255.519 285.371L257.605 293.15M247.739 283.285L249.825 291.065L257.605 293.15" stroke="white" stroke-width="0.178952"/>
<path d="M265.64 287.901L267.726 295.681L273.42 289.987L271.208 282.334L265.64 287.901Z" fill="#E1F1F0"/>
<path d="M257.86 285.816L265.64 287.901L271.208 282.334L263.428 280.248L257.86 285.816Z" fill="#E1F1F0"/>
<path d="M257.86 285.816L259.946 293.596L267.726 295.681L265.64 287.901L257.86 285.816Z" fill="#E1F1F0"/>
<path d="M271.208 282.334L263.428 280.248L257.86 285.816M271.208 282.334L273.42 289.987L267.726 295.681M271.208 282.334L265.64 287.901M265.64 287.901L257.86 285.816M265.64 287.901L267.726 295.681M257.86 285.816L259.946 293.596L267.726 295.681" stroke="white" stroke-width="0.178952"/>
<path d="M275.765 290.685L277.851 298.465L283.545 292.771L281.333 285.118L275.765 290.685Z" fill="#E1F1F0"/>
<path d="M267.985 288.6L275.765 290.685L281.333 285.118L273.553 283.032L267.985 288.6Z" fill="#E1F1F0"/>
<path d="M267.985 288.6L270.071 296.38L277.851 298.465L275.765 290.685L267.985 288.6Z" fill="#E1F1F0"/>
<path d="M281.333 285.118L273.553 283.032L267.985 288.6M281.333 285.118L283.545 292.771L277.851 298.465M281.333 285.118L275.765 290.685M275.765 290.685L267.985 288.6M275.765 290.685L277.851 298.465M267.985 288.6L270.071 296.38L277.851 298.465" stroke="white" stroke-width="0.178952"/>
<path d="M253.111 275.374L245.331 273.288L251.026 267.594L258.679 269.806L253.111 275.374Z" fill="#E1F1F0"/>
<path d="M255.197 283.154L253.111 275.374L258.679 269.806L260.765 277.586L255.197 283.154Z" fill="#E1F1F0"/>
<path d="M255.197 283.154L247.417 281.068L245.331 273.288L253.111 275.374L255.197 283.154Z" fill="#E1F1F0"/>
<path d="M258.679 269.806L260.765 277.586L255.197 283.154M258.679 269.806L251.026 267.594L245.331 273.288M258.679 269.806L253.111 275.374M253.111 275.374L255.197 283.154M253.111 275.374L245.331 273.288M255.197 283.154L247.417 281.068L245.331 273.288" stroke="white" stroke-width="0.178952"/>
<path d="M250.33 265.251L252.415 273.031L258.11 267.337L255.897 259.683L250.33 265.251Z" fill="#E1F1F0"/>
<path d="M242.55 263.165L250.33 265.251L255.897 259.683L248.118 257.598L242.55 263.165Z" fill="#E1F1F0"/>
<path d="M242.55 263.165L244.636 270.945L252.415 273.031L250.33 265.251L242.55 263.165Z" fill="#E1F1F0"/>
<path d="M255.897 259.683L248.118 257.598L242.55 263.165M255.897 259.683L258.11 267.337L252.415 273.031M255.897 259.683L250.33 265.251M250.33 265.251L242.55 263.165M250.33 265.251L252.415 273.031M242.55 263.165L244.636 270.945L252.415 273.031" stroke="white" stroke-width="0.178952"/>
<path d="M262.857 278.284L264.943 286.064L270.637 280.37L268.425 272.717L262.857 278.284Z" fill="#E1F1F0"/>
<path d="M255.077 276.199L262.857 278.284L268.425 272.717L260.645 270.631L255.077 276.199Z" fill="#E1F1F0"/>
<path d="M255.077 276.199L257.163 283.979L264.943 286.064L262.857 278.284L255.077 276.199Z" fill="#E1F1F0"/>
<path d="M268.425 272.717L260.645 270.631L255.077 276.199M268.425 272.717L270.637 280.37L264.943 286.064M268.425 272.717L262.857 278.284M262.857 278.284L255.077 276.199M262.857 278.284L264.943 286.064M255.077 276.199L257.163 283.979L264.943 286.064" stroke="white" stroke-width="0.178952"/>
<path d="M272.599 280.941L274.685 288.721L280.379 283.027L278.167 275.374L272.599 280.941Z" fill="#E1F1F0"/>
<path d="M264.819 278.856L272.599 280.941L278.167 275.374L270.387 273.288L264.819 278.856Z" fill="#E1F1F0"/>
<path d="M264.819 278.856L266.905 286.636L274.685 288.721L272.599 280.941L264.819 278.856Z" fill="#E1F1F0"/>
<path d="M278.167 275.374L270.387 273.288L264.819 278.856M278.167 275.374L280.379 283.027L274.685 288.721M278.167 275.374L272.599 280.941M272.599 280.941L264.819 278.856M272.599 280.941L274.685 288.721M264.819 278.856L266.905 286.636L274.685 288.721" stroke="white" stroke-width="0.178952"/>
<path d="M260.074 268.414L262.16 276.194L267.854 270.5L265.642 262.846L260.074 268.414Z" fill="#E1F1F0"/>
<path d="M252.294 266.328L260.074 268.414L265.642 262.846L257.862 260.761L252.294 266.328Z" fill="#E1F1F0"/>
<path d="M252.294 266.328L254.38 274.108L262.16 276.194L260.074 268.414L252.294 266.328Z" fill="#E1F1F0"/>
<path d="M265.642 262.846L257.862 260.761L252.294 266.328M265.642 262.846L267.854 270.5L262.16 276.194M265.642 262.846L260.074 268.414M260.074 268.414L252.294 266.328M260.074 268.414L262.16 276.194M252.294 266.328L254.38 274.108L262.16 276.194" stroke="white" stroke-width="0.178952"/>
<path d="M270.197 270.945L272.283 278.725L277.977 273.031L275.765 265.378L270.197 270.945Z" fill="#E1F1F0"/>
<path d="M262.417 268.86L270.197 270.945L275.765 265.378L267.985 263.292L262.417 268.86Z" fill="#E1F1F0"/>
<path d="M262.417 268.86L264.503 276.639L272.283 278.725L270.197 270.945L262.417 268.86Z" fill="#E1F1F0"/>
<path d="M275.765 265.378L267.985 263.292L262.417 268.86M275.765 265.378L277.977 273.031L272.283 278.725M275.765 265.378L270.197 270.945M270.197 270.945L262.417 268.86M270.197 270.945L272.283 278.725M262.417 268.86L264.503 276.639L272.283 278.725" stroke="white" stroke-width="0.178952"/>
<path d="M248.558 292.33L250.644 300.11L256.338 294.415L254.126 286.762L248.558 292.33Z" fill="#E1F1F0"/>
<path d="M240.778 290.244L248.558 292.33L254.126 286.762L246.346 284.676L240.778 290.244Z" fill="#E1F1F0"/>
<path d="M240.778 290.244L242.864 298.024L250.644 300.11L248.558 292.33L240.778 290.244Z" fill="#E1F1F0"/>
<path d="M254.126 286.762L246.346 284.676L240.778 290.244M254.126 286.762L256.338 294.415L250.644 300.11M254.126 286.762L248.558 292.33M248.558 292.33L240.778 290.244M248.558 292.33L250.644 300.11M240.778 290.244L242.864 298.024L250.644 300.11" stroke="white" stroke-width="0.178952"/>
<path d="M258.679 294.861L260.765 302.64L266.459 296.946L264.247 289.293L258.679 294.861Z" fill="#E1F1F0"/>
<path d="M250.9 292.775L258.679 294.861L264.247 289.293L256.467 287.207L250.9 292.775Z" fill="#E1F1F0"/>
<path d="M250.9 292.775L252.985 300.555L260.765 302.64L258.679 294.861L250.9 292.775Z" fill="#E1F1F0"/>
<path d="M264.247 289.293L256.467 287.207L250.899 292.775M264.247 289.293L266.459 296.946L260.765 302.64M264.247 289.293L258.679 294.861M258.679 294.861L250.899 292.775M258.679 294.861L260.765 302.64M250.899 292.775L252.985 300.555L260.765 302.64" stroke="white" stroke-width="0.178952"/>
<path d="M268.804 297.644L270.89 305.424L276.584 299.73L274.372 292.077L268.804 297.644Z" fill="#E1F1F0"/>
<path d="M261.025 295.559L268.804 297.644L274.372 292.077L266.592 289.991L261.025 295.559Z" fill="#E1F1F0"/>
<path d="M261.025 295.559L263.11 303.338L270.89 305.424L268.804 297.644L261.025 295.559Z" fill="#E1F1F0"/>
<path d="M274.372 292.077L266.592 289.991L261.024 295.559M274.372 292.077L276.584 299.73L270.89 305.424M274.372 292.077L268.804 297.644M268.804 297.644L261.024 295.559M268.804 297.644L270.89 305.424M261.024 295.559L263.11 303.338L270.89 305.424" stroke="white" stroke-width="0.178952"/>
<path d="M246.152 282.333L248.238 290.113L253.932 284.419L251.72 276.765L246.152 282.333Z" fill="#E1F1F0"/>
<path d="M238.372 280.248L246.152 282.333L251.72 276.765L243.94 274.68L238.372 280.248Z" fill="#E1F1F0"/>
<path d="M238.372 280.248L240.458 288.027L248.238 290.113L246.152 282.333L238.372 280.248Z" fill="#E1F1F0"/>
<path d="M251.72 276.765L243.94 274.68L238.372 280.248M251.72 276.765L253.932 284.419L248.238 290.113M251.72 276.765L246.152 282.333M246.152 282.333L238.372 280.248M246.152 282.333L248.238 290.113M238.372 280.248L240.458 288.027L248.238 290.113" stroke="white" stroke-width="0.178952"/>
<path d="M243.367 272.211L245.453 279.991L251.147 274.296L248.935 266.643L243.367 272.211Z" fill="#E1F1F0"/>
<path d="M235.587 270.125L243.367 272.211L248.935 266.643L241.155 264.557L235.587 270.125Z" fill="#E1F1F0"/>
<path d="M235.587 270.125L237.673 277.905L245.453 279.991L243.367 272.211L235.587 270.125Z" fill="#E1F1F0"/>
<path d="M248.935 266.643L241.155 264.557L235.587 270.125M248.935 266.643L251.147 274.296L245.453 279.991M248.935 266.643L243.367 272.211M243.367 272.211L235.587 270.125M243.367 272.211L245.453 279.991M235.587 270.125L237.673 277.905L245.453 279.991" stroke="white" stroke-width="0.178952"/>
</g>
<path d="M262.478 278.41L264.564 286.19L270.258 280.495L268.046 272.842L262.478 278.41Z" fill="#71DCD5"/>
<path d="M254.698 276.324L262.478 278.41L268.046 272.842L260.266 270.756L254.698 276.324Z" fill="#71DCD5"/>
<path d="M254.698 276.324L256.784 284.104L264.564 286.19L262.478 278.41L254.698 276.324Z" fill="#71DCD5"/>
<path d="M268.046 272.842L260.266 270.756L254.698 276.324M268.046 272.842L270.258 280.495L264.564 286.19M268.046 272.842L262.478 278.41M262.478 278.41L254.698 276.324M262.478 278.41L264.564 286.19M254.698 276.324L256.784 284.104L264.564 286.19" stroke="white" stroke-width="0.178952"/>
<path d="M272.601 280.94L274.687 288.72L280.381 283.026L278.169 275.372L272.601 280.94Z" fill="#71DCD5"/>
<path d="M264.821 278.854L272.601 280.94L278.169 275.372L270.389 273.287L264.821 278.854Z" fill="#71DCD5"/>
<path d="M264.821 278.854L266.907 286.634L274.687 288.72L272.601 280.94L264.821 278.854Z" fill="#71DCD5"/>
<path d="M278.169 275.372L270.389 273.287L264.821 278.854M278.169 275.372L280.381 283.026L274.687 288.72M278.169 275.372L272.601 280.94M272.601 280.94L264.821 278.854M272.601 280.94L274.687 288.72M264.821 278.854L266.907 286.634L274.687 288.72" stroke="white" stroke-width="0.178952"/>
<path d="M282.724 283.725L284.81 291.504L290.504 285.81L288.292 278.157L282.724 283.725Z" fill="#71DCD5"/>
<path d="M274.944 281.639L282.724 283.725L288.292 278.157L280.512 276.071L274.944 281.639Z" fill="#71DCD5"/>
<path d="M274.944 281.639L277.03 289.419L284.81 291.504L282.724 283.725L274.944 281.639Z" fill="#71DCD5"/>
<path d="M288.292 278.157L280.512 276.071L274.944 281.639M288.292 278.157L290.504 285.81L284.81 291.504M288.292 278.157L282.724 283.725M282.724 283.725L274.944 281.639M282.724 283.725L284.81 291.504M274.944 281.639L277.03 289.419L284.81 291.504" stroke="white" stroke-width="0.178952"/>
<path d="M260.072 268.413L252.292 266.327L257.987 260.633L265.64 262.845L260.072 268.413Z" fill="#71DCD5"/>
<path d="M262.158 276.193L260.072 268.413L265.64 262.845L267.726 270.625L262.158 276.193Z" fill="#71DCD5"/>
<path d="M262.158 276.193L254.378 274.107L252.292 266.327L260.072 268.413L262.158 276.193Z" fill="#71DCD5"/>
<path d="M265.64 262.845L267.726 270.625L262.158 276.193M265.64 262.845L257.987 260.633L252.292 266.327M265.64 262.845L260.072 268.413M260.072 268.413L262.158 276.193M260.072 268.413L252.292 266.327M262.158 276.193L254.378 274.107L252.292 266.327" stroke="white" stroke-width="0.178952"/>
<path d="M257.291 258.29L259.376 266.07L265.071 260.376L262.858 252.722L257.291 258.29Z" fill="#71DCD5"/>
<path d="M249.511 256.204L257.291 258.29L262.858 252.722L255.079 250.637L249.511 256.204Z" fill="#71DCD5"/>
<path d="M249.511 256.204L251.597 263.984L259.376 266.07L257.291 258.29L249.511 256.204Z" fill="#71DCD5"/>
<path d="M262.858 252.722L255.079 250.637L249.511 256.204M262.858 252.722L265.071 260.376L259.376 266.07M262.858 252.722L257.291 258.29M257.291 258.29L249.511 256.204M257.291 258.29L259.376 266.07M249.511 256.204L251.597 263.984L259.376 266.07" stroke="white" stroke-width="0.178952"/>
<path d="M279.435 274.107L281.521 281.887L287.215 276.193L285.003 268.539L279.435 274.107Z" fill="#71DCD5"/>
<path d="M271.655 272.021L279.435 274.107L285.003 268.539L277.223 266.454L271.655 272.021Z" fill="#71DCD5"/>
<path d="M271.655 272.021L273.741 279.801L281.521 281.887L279.435 274.107L271.655 272.021Z" fill="#71DCD5"/>
<path d="M285.003 268.539L277.223 266.454L271.655 272.021M285.003 268.539L287.215 276.193L281.521 281.887M285.003 268.539L279.435 274.107M279.435 274.107L271.655 272.021M279.435 274.107L281.521 281.887M271.655 272.021L273.741 279.801L281.521 281.887" stroke="white" stroke-width="0.178952"/>
<path d="M266.906 261.58L268.992 269.36L274.686 263.665L272.474 256.012L266.906 261.58Z" fill="#71DCD5"/>
<path d="M259.126 259.494L266.906 261.58L272.474 256.012L264.694 253.926L259.126 259.494Z" fill="#71DCD5"/>
<path d="M259.126 259.494L261.212 267.274L268.992 269.36L266.906 261.58L259.126 259.494Z" fill="#71DCD5"/>
<path d="M272.474 256.012L264.694 253.926L259.126 259.494M272.474 256.012L274.686 263.665L268.992 269.36M272.474 256.012L266.906 261.58M266.906 261.58L259.126 259.494M266.906 261.58L268.992 269.36M259.126 259.494L261.212 267.274L268.992 269.36" stroke="white" stroke-width="0.178952"/>
<path d="M276.904 264.238L278.99 272.018L284.684 266.324L282.472 258.671L276.904 264.238Z" fill="#71DCD5"/>
<path d="M269.124 262.153L276.904 264.238L282.472 258.671L274.692 256.585L269.124 262.153Z" fill="#71DCD5"/>
<path d="M269.124 262.153L271.21 269.933L278.99 272.018L276.904 264.238L269.124 262.153Z" fill="#71DCD5"/>
<path d="M282.472 258.671L274.692 256.585L269.124 262.153M282.472 258.671L284.684 266.324L278.99 272.018M282.472 258.671L276.904 264.238M276.904 264.238L269.124 262.153M276.904 264.238L278.99 272.018M269.124 262.153L271.21 269.933L278.99 272.018" stroke="white" stroke-width="0.178952"/>
<path d="M255.519 285.371L257.605 293.15L263.299 287.456L261.087 279.803L255.519 285.371Z" fill="#71DCD5"/>
<path d="M247.739 283.285L255.519 285.371L261.087 279.803L253.307 277.717L247.739 283.285Z" fill="#71DCD5"/>
<path d="M247.739 283.285L249.825 291.065L257.605 293.15L255.519 285.371L247.739 283.285Z" fill="#71DCD5"/>
<path d="M261.087 279.803L253.307 277.717L247.739 283.285M261.087 279.803L263.299 287.456L257.605 293.15M261.087 279.803L255.519 285.371M255.519 285.371L247.739 283.285M255.519 285.371L257.605 293.15M247.739 283.285L249.825 291.065L257.605 293.15" stroke="white" stroke-width="0.178952"/>
<path d="M265.64 287.901L267.726 295.681L273.42 289.987L271.208 282.334L265.64 287.901Z" fill="#71DCD5"/>
<path d="M257.86 285.816L265.64 287.901L271.208 282.334L263.428 280.248L257.86 285.816Z" fill="#71DCD5"/>
<path d="M257.86 285.816L259.946 293.596L267.726 295.681L265.64 287.901L257.86 285.816Z" fill="#71DCD5"/>
<path d="M271.208 282.334L263.428 280.248L257.86 285.816M271.208 282.334L273.42 289.987L267.726 295.681M271.208 282.334L265.64 287.901M265.64 287.901L257.86 285.816M265.64 287.901L267.726 295.681M257.86 285.816L259.946 293.596L267.726 295.681" stroke="white" stroke-width="0.178952"/>
<path d="M275.765 290.685L277.851 298.465L283.545 292.771L281.333 285.118L275.765 290.685Z" fill="#71DCD5"/>
<path d="M267.985 288.6L275.765 290.685L281.333 285.118L273.553 283.032L267.985 288.6Z" fill="#71DCD5"/>
<path d="M267.985 288.6L270.071 296.38L277.851 298.465L275.765 290.685L267.985 288.6Z" fill="#71DCD5"/>
<path d="M281.333 285.118L273.553 283.032L267.985 288.6M281.333 285.118L283.545 292.771L277.851 298.465M281.333 285.118L275.765 290.685M275.765 290.685L267.985 288.6M275.765 290.685L277.851 298.465M267.985 288.6L270.071 296.38L277.851 298.465" stroke="white" stroke-width="0.178952"/>
<path d="M253.111 275.374L245.331 273.288L251.026 267.594L258.679 269.806L253.111 275.374Z" fill="#71DCD5"/>
<path d="M255.197 283.154L253.111 275.374L258.679 269.806L260.765 277.586L255.197 283.154Z" fill="#71DCD5"/>
<path d="M255.197 283.154L247.417 281.068L245.331 273.288L253.111 275.374L255.197 283.154Z" fill="#71DCD5"/>
<path d="M258.679 269.806L260.765 277.586L255.197 283.154M258.679 269.806L251.026 267.594L245.331 273.288M258.679 269.806L253.111 275.374M253.111 275.374L255.197 283.154M253.111 275.374L245.331 273.288M255.197 283.154L247.417 281.068L245.331 273.288" stroke="white" stroke-width="0.178952"/>
<path d="M250.33 265.251L252.415 273.031L258.11 267.337L255.897 259.683L250.33 265.251Z" fill="#71DCD5"/>
<path d="M242.55 263.165L250.33 265.251L255.897 259.683L248.118 257.598L242.55 263.165Z" fill="#71DCD5"/>
<path d="M242.55 263.165L244.636 270.945L252.415 273.031L250.33 265.251L242.55 263.165Z" fill="#71DCD5"/>
<path d="M255.897 259.683L248.118 257.598L242.55 263.165M255.897 259.683L258.11 267.337L252.415 273.031M255.897 259.683L250.33 265.251M250.33 265.251L242.55 263.165M250.33 265.251L252.415 273.031M242.55 263.165L244.636 270.945L252.415 273.031" stroke="white" stroke-width="0.178952"/>
<path d="M262.857 278.284L264.943 286.064L270.637 280.37L268.425 272.717L262.857 278.284Z" fill="#71DCD5"/>
<path d="M255.077 276.199L262.857 278.284L268.425 272.717L260.645 270.631L255.077 276.199Z" fill="#71DCD5"/>
<path d="M255.077 276.199L257.163 283.979L264.943 286.064L262.857 278.284L255.077 276.199Z" fill="#71DCD5"/>
<path d="M268.425 272.717L260.645 270.631L255.077 276.199M268.425 272.717L270.637 280.37L264.943 286.064M268.425 272.717L262.857 278.284M262.857 278.284L255.077 276.199M262.857 278.284L264.943 286.064M255.077 276.199L257.163 283.979L264.943 286.064" stroke="white" stroke-width="0.178952"/>
<path d="M272.599 280.941L274.685 288.721L280.379 283.027L278.167 275.374L272.599 280.941Z" fill="#71DCD5"/>
<path d="M264.819 278.856L272.599 280.941L278.167 275.374L270.387 273.288L264.819 278.856Z" fill="#71DCD5"/>
<path d="M264.819 278.856L266.905 286.636L274.685 288.721L272.599 280.941L264.819 278.856Z" fill="#71DCD5"/>
<path d="M278.167 275.374L270.387 273.288L264.819 278.856M278.167 275.374L280.379 283.027L274.685 288.721M278.167 275.374L272.599 280.941M272.599 280.941L264.819 278.856M272.599 280.941L274.685 288.721M264.819 278.856L266.905 286.636L274.685 288.721" stroke="white" stroke-width="0.178952"/>
<path d="M260.074 268.414L262.16 276.194L267.854 270.5L265.642 262.846L260.074 268.414Z" fill="#71DCD5"/>
<path d="M252.294 266.328L260.074 268.414L265.642 262.846L257.862 260.761L252.294 266.328Z" fill="#71DCD5"/>
<path d="M252.294 266.328L254.38 274.108L262.16 276.194L260.074 268.414L252.294 266.328Z" fill="#71DCD5"/>
<path d="M265.642 262.846L257.862 260.761L252.294 266.328M265.642 262.846L267.854 270.5L262.16 276.194M265.642 262.846L260.074 268.414M260.074 268.414L252.294 266.328M260.074 268.414L262.16 276.194M252.294 266.328L254.38 274.108L262.16 276.194" stroke="white" stroke-width="0.178952"/>
<path d="M270.197 270.945L272.283 278.725L277.977 273.031L275.765 265.378L270.197 270.945Z" fill="#71DCD5"/>
<path d="M262.417 268.86L270.197 270.945L275.765 265.378L267.985 263.292L262.417 268.86Z" fill="#71DCD5"/>
<path d="M262.417 268.86L264.503 276.639L272.283 278.725L270.197 270.945L262.417 268.86Z" fill="#71DCD5"/>
<path d="M275.765 265.378L267.985 263.292L262.417 268.86M275.765 265.378L277.977 273.031L272.283 278.725M275.765 265.378L270.197 270.945M270.197 270.945L262.417 268.86M270.197 270.945L272.283 278.725M262.417 268.86L264.503 276.639L272.283 278.725" stroke="white" stroke-width="0.178952"/>
<path d="M248.558 292.33L250.644 300.11L256.338 294.415L254.126 286.762L248.558 292.33Z" fill="#71DCD5"/>
<path d="M240.778 290.244L248.558 292.33L254.126 286.762L246.346 284.676L240.778 290.244Z" fill="#71DCD5"/>
<path d="M240.778 290.244L242.864 298.024L250.644 300.11L248.558 292.33L240.778 290.244Z" fill="#71DCD5"/>
<path d="M254.126 286.762L246.346 284.676L240.778 290.244M254.126 286.762L256.338 294.415L250.644 300.11M254.126 286.762L248.558 292.33M248.558 292.33L240.778 290.244M248.558 292.33L250.644 300.11M240.778 290.244L242.864 298.024L250.644 300.11" stroke="white" stroke-width="0.178952"/>
<path d="M258.679 294.861L260.765 302.64L266.459 296.946L264.247 289.293L258.679 294.861Z" fill="#71DCD5"/>
<path d="M250.9 292.775L258.679 294.861L264.247 289.293L256.467 287.207L250.9 292.775Z" fill="#71DCD5"/>
<path d="M250.9 292.775L252.985 300.555L260.765 302.64L258.679 294.861L250.9 292.775Z" fill="#71DCD5"/>
<path d="M264.247 289.293L256.467 287.207L250.899 292.775M264.247 289.293L266.459 296.946L260.765 302.64M264.247 289.293L258.679 294.861M258.679 294.861L250.899 292.775M258.679 294.861L260.765 302.64M250.899 292.775L252.985 300.555L260.765 302.64" stroke="white" stroke-width="0.178952"/>
<path d="M268.804 297.644L270.89 305.424L276.584 299.73L274.372 292.077L268.804 297.644Z" fill="#71DCD5"/>
<path d="M261.025 295.559L268.804 297.644L274.372 292.077L266.592 289.991L261.025 295.559Z" fill="#71DCD5"/>
<path d="M261.025 295.559L263.11 303.338L270.89 305.424L268.804 297.644L261.025 295.559Z" fill="#71DCD5"/>
<path d="M274.372 292.077L266.592 289.991L261.024 295.559M274.372 292.077L276.584 299.73L270.89 305.424M274.372 292.077L268.804 297.644M268.804 297.644L261.024 295.559M268.804 297.644L270.89 305.424M261.024 295.559L263.11 303.338L270.89 305.424" stroke="white" stroke-width="0.178952"/>
<path d="M246.152 282.333L248.238 290.113L253.932 284.419L251.72 276.765L246.152 282.333Z" fill="#71DCD5"/>
<path d="M238.372 280.248L246.152 282.333L251.72 276.765L243.94 274.68L238.372 280.248Z" fill="#71DCD5"/>
<path d="M238.372 280.248L240.458 288.027L248.238 290.113L246.152 282.333L238.372 280.248Z" fill="#71DCD5"/>
<path d="M251.72 276.765L243.94 274.68L238.372 280.248M251.72 276.765L253.932 284.419L248.238 290.113M251.72 276.765L246.152 282.333M246.152 282.333L238.372 280.248M246.152 282.333L248.238 290.113M238.372 280.248L240.458 288.027L248.238 290.113" stroke="white" stroke-width="0.178952"/>
<path d="M243.367 272.211L245.453 279.991L251.147 274.296L248.935 266.643L243.367 272.211Z" fill="#71DCD5"/>
<path d="M235.587 270.125L243.367 272.211L248.935 266.643L241.155 264.557L235.587 270.125Z" fill="#71DCD5"/>
<path d="M235.587 270.125L237.673 277.905L245.453 279.991L243.367 272.211L235.587 270.125Z" fill="#71DCD5"/>
<path d="M248.935 266.643L241.155 264.557L235.587 270.125M248.935 266.643L251.147 274.296L245.453 279.991M248.935 266.643L243.367 272.211M243.367 272.211L235.587 270.125M243.367 272.211L245.453 279.991M235.587 270.125L237.673 277.905L245.453 279.991" stroke="white" stroke-width="0.178952"/>
<path d="M112.058 115.588L146.623 134.432L135.692 115.499L112.058 115.588Z" fill="#67B9C4"/>
<path d="M146.623 134.432L147.703 95.0078L135.692 115.499L146.623 134.432Z" fill="#7DEAF9"/>
<path d="M112.058 115.588L135.692 115.499L147.703 95.0078L124.069 95.0963L112.058 115.588Z" fill="#907FD5"/>
<path d="M146.623 134.432L147.703 95.0078M146.623 134.432L112.058 115.588M146.623 134.432L135.692 115.499M147.703 95.0078L135.692 115.499M147.703 95.0078L124.069 95.0963L112.058 115.588M112.058 115.588L135.692 115.499" stroke="white" stroke-width="0.500167"/>
<g style="mix-blend-mode:multiply" filter="url(#filter3_f_282_1380)">
<path d="M133.513 115.509L145.537 94.2309L116.355 107.651L111.987 115.471L133.513 115.509Z" fill="black" fill-opacity="0.5"/>
</g>
<path d="M110.823 113.184L134.409 113.28L111.737 74.0115L110.823 113.184Z" fill="#878787"/>
<path d="M146.352 92.6714L111.737 74.0115L134.409 113.28L146.352 92.6714Z" fill="#53CADB"/>
<path d="M111.737 74.0115L146.352 92.6714L134.409 113.28M111.737 74.0115L110.823 113.184L134.409 113.28M111.737 74.0115L134.409 113.28" stroke="white" stroke-width="0.500167"/>
<path d="M297.223 225.239L295.409 240.088L300.565 233.575L297.223 225.239Z" fill="#67B9C4"/>
<path d="M295.409 240.088L309.485 234.947L300.565 233.575L295.409 240.088Z" fill="#7DEAF9"/>
<path d="M297.223 225.239L300.565 233.575L309.485 234.947L306.143 226.611L297.223 225.239Z" fill="#907FD5"/>
<path d="M295.409 240.088L309.485 234.947M295.409 240.088L297.223 225.239M295.409 240.088L300.565 233.575M309.485 234.947L300.565 233.575M309.485 234.947L306.143 226.611L297.223 225.239M297.223 225.239L300.565 233.575" stroke="white" stroke-width="0.190055"/>
<g style="mix-blend-mode:multiply" filter="url(#filter4_f_282_1380)">
<path d="M300.256 232.807L309.456 234.073L300.628 225.645L297.254 225.198L300.256 232.807Z" fill="black" fill-opacity="0.5"/>
</g>
<path d="M297.899 224.466L301.169 232.81L311.864 219.302L297.899 224.466Z" fill="#878787"/>
<path d="M310.121 234.142L311.864 219.302L301.169 232.81L310.121 234.142Z" fill="#53CADB"/>
<path d="M311.864 219.302L310.121 234.142L301.169 232.81M311.864 219.302L297.899 224.466L301.169 232.81M311.864 219.302L301.169 232.81" stroke="white" stroke-width="0.190055"/>
<defs>
<filter id="filter0_f_282_1380" x="-10.2288" y="141.808" width="193.196" height="197.78" filterUnits="userSpaceOnUse" color-interpolation-filters="sRGB">
<feFlood flood-opacity="0" result="BackgroundImageFix"/>
<feBlend mode="normal" in="SourceGraphic" in2="BackgroundImageFix" result="shape"/>
<feGaussianBlur stdDeviation="10.6154" result="effect1_foregroundBlur_282_1380"/>
</filter>
<filter id="filter1_f_282_1380" x="77.2679" y="-32.9757" width="322.556" height="322.557" filterUnits="userSpaceOnUse" color-interpolation-filters="sRGB">
<feFlood flood-opacity="0" result="BackgroundImageFix"/>
<feBlend mode="normal" in="SourceGraphic" in2="BackgroundImageFix" result="shape"/>
<feGaussianBlur stdDeviation="17.0447" result="effect1_foregroundBlur_282_1380"/>
</filter>
<filter id="filter2_f_282_1380" x="210.059" y="225.739" width="105.216" height="105.217" filterUnits="userSpaceOnUse" color-interpolation-filters="sRGB">
<feFlood flood-opacity="0" result="BackgroundImageFix"/>
<feBlend mode="normal" in="SourceGraphic" in2="BackgroundImageFix" result="shape"/>
<feGaussianBlur stdDeviation="7.60926" result="effect1_foregroundBlur_282_1380"/>
</filter>
<filter id="filter3_f_282_1380" x="111.448" y="93.6912" width="34.6284" height="22.3574" filterUnits="userSpaceOnUse" color-interpolation-filters="sRGB">
<feFlood flood-opacity="0" result="BackgroundImageFix"/>
<feBlend mode="normal" in="SourceGraphic" in2="BackgroundImageFix" result="shape"/>
<feGaussianBlur stdDeviation="0.269898" result="effect1_foregroundBlur_282_1380"/>
</filter>
<filter id="filter4_f_282_1380" x="297.049" y="224.993" width="12.6114" height="9.28571" filterUnits="userSpaceOnUse" color-interpolation-filters="sRGB">
<feFlood flood-opacity="0" result="BackgroundImageFix"/>
<feBlend mode="normal" in="SourceGraphic" in2="BackgroundImageFix" result="shape"/>
<feGaussianBlur stdDeviation="0.102557" result="effect1_foregroundBlur_282_1380"/>
</filter>
</defs>
</svg>
