<svg width="473" height="273" viewBox="0 0 473 273" fill="none" xmlns="http://www.w3.org/2000/svg">
<path d="M29.8817 30.3263C27.34 30.3263 31.674 -1.28875 20.8369 2.28106C10.5334 5.67514 24.9406 30.3263 22.5197 30.3263C20.0987 30.3263 3.17807 28.9069 2.05158 36.6365C0.7935 45.2691 22.9596 40.4371 23.62 41.5445C24.2803 42.6518 14.9168 55.7628 20.8369 59.7739C26.9701 63.9294 34.8016 48.5558 36.1435 48.5558C37.4855 48.5558 44.4212 73.741 50.0586 66.7852C54.6401 61.1323 43.7187 48.5558 45.8841 48.5558C48.0494 48.5558 64.2041 49.8334 66.7567 41.5445C69.8763 31.4143 41.9972 38.6481 40.3181 36.6365C38.6389 34.625 53.7562 18.4782 45.8841 14.2003C38.1114 9.97639 32.4235 30.3263 29.8817 30.3263Z" stroke="#E9FAFE" stroke-width="4" stroke-linecap="round"/>
<path d="M391.3 44.9586C390.835 35.0289 390.82 15.1777 394.479 15.2109C399.053 15.2523 404.448 34.9939 403.93 39.885C403.413 44.7761 409.712 13.9605 416.334 9.81895C422.956 5.67737 416.35 38.0978 413.977 41.8028C411.604 45.5079 437.268 26.7053 444.674 29.3664C452.08 32.0276 419.047 61.0663 404.79 55.0183" stroke="#E9FAFE" stroke-width="4" stroke-linecap="round"/>
<path d="M33.847 216.721C31.3132 215.6 26.1891 201.409 24.4436 203.147C22.698 204.886 20.1078 216.721 18.4749 216.721C16.842 216.721 1.18834 212.515 2.03296 213.973C2.87758 215.431 15.2091 224.854 15.1527 227.042C15.0964 229.229 9.85979 240.896 11.4927 240.896C13.1257 240.896 23.9931 230.8 26.1891 230.912C28.3851 231.024 41.8991 242.186 42.9689 240.896C44.0388 239.606 37.0003 228.612 37.676 227.042C38.3517 225.471 52.8792 213.973 50.7958 213.973C48.7124 213.973 36.3809 217.843 33.847 216.721Z" stroke="#E9FAFE" stroke-width="4" stroke-linecap="round"/>
<path d="M418.151 203.876C432.903 207.737 442.401 215.52 445.307 218.928" stroke="#E9FAFE" stroke-width="4" stroke-linecap="round"/>
<path d="M405.323 236.422C426.415 241.738 439.919 252.746 444.034 257.586" stroke="#E9FAFE" stroke-width="4" stroke-linecap="round"/>
<path d="M409.829 220.06C439.498 225.007 457.541 239.029 462.854 245.422" stroke="#E9FAFE" stroke-width="4" stroke-linecap="round"/>
</svg>
