<svg width="398" height="220" viewBox="0 0 398 220" fill="none" xmlns="http://www.w3.org/2000/svg">
<g clip-path="url(#clip0_1001_180)">
<rect width="398" height="220" fill="#7BFF90"/>
<path d="M209.5 -320.433L1716.49 549.375M177.5 -320.433L1684.49 549.375M145 -320.433L1651.99 549.375M112.5 -320.433L1619.49 549.375M80 -320.433L1586.99 549.375M47.5 -320.433L1554.49 549.375M15 -320.433L1521.99 549.375M-17.5 -320.433L1489.49 549.375M-49.75 -320.433L1457.24 549.375M-82.25 -320.433L1424.74 549.375M-114.5 -320.433L1392.49 549.375M-147 -320.433L1359.99 549.375M-179.25 -320.433L1327.74 549.375M-211.75 -320.433L1295.24 549.375M-244.25 -320.433L1262.74 549.375M-276.5 -320.433L1230.49 549.375M-308.75 -320.433L1198.24 549.375M-341 -320.433L1165.99 549.375M-373.5 -320.433L1133.49 549.375M-406 -320.433L1100.99 549.375M-438.25 -320.433L1068.74 549.375M-470.75 -320.433L1036.24 549.375M-503.25 -320.433L1003.74 549.375M-535.5 -320.433L971.495 549.375M-567.75 -320.433L939.245 549.375M-600.25 -320.433L906.745 549.375M-632.75 -320.433L874.245 549.375M-664.75 -320.433L842.245 549.375M-697.25 -320.433L809.745 549.375M-729.75 -320.433L777.245 549.375M-762.25 -320.433L744.745 549.375M-794.75 -320.433L712.245 549.375M-827 -320.433L679.995 549.375M-859.25 -320.433L647.745 549.375M-891.75 -320.433L615.245 549.375M-924 -320.433L582.995 549.375M-956.25 -320.433L550.745 549.375M-988.5 -320.433L518.495 549.375M-1021 -320.433L485.995 549.375M-1053.25 -320.433L453.745 549.375M-1085.75 -320.433L421.245 549.375M-1118 -320.433L388.995 549.375M-1150.5 -320.433L356.495 549.375M-1182.75 -320.433L324.245 549.375M-1215.25 -320.433L291.745 549.375M-1247.75 -320.433L259.245 549.375M-1280.5 -320.433L226.495 549.375M-1317.5 -320.433L189.495 549.375M209 539.808L1715.99 -330M177 539.808L1683.99 -330M144.5 539.808L1651.49 -330M112 539.808L1618.99 -330M79.5 539.808L1586.49 -330M47 539.808L1553.99 -330M14.5 539.808L1521.49 -330M-18 539.808L1488.99 -330M-50.25 539.808L1456.74 -330M-82.75 539.808L1424.24 -330M-115 539.808L1391.99 -330M-147.5 539.808L1359.49 -330M-179.75 539.808L1327.24 -330M-212.25 539.808L1294.74 -330M-244.75 539.808L1262.24 -330M-277 539.808L1229.99 -330M-309.25 539.808L1197.74 -330M-341.5 539.808L1165.49 -330M-374 539.808L1132.99 -330M-406.5 539.808L1100.49 -330M-438.75 539.808L1068.24 -330M-471.25 539.808L1035.74 -330M-503.75 539.808L1003.24 -330M-536 539.808L970.995 -330M-568.25 539.808L938.745 -330M-600.75 539.808L906.245 -330M-633.25 539.808L873.745 -330M-665.25 539.808L841.745 -330M-697.75 539.808L809.245 -330M-730.25 539.808L776.745 -330M-762.75 539.808L744.245 -330M-795.25 539.808L711.745 -330M-827.5 539.808L679.495 -330M-859.75 539.808L647.245 -330M-892.25 539.808L614.745 -330M-924.5 539.808L582.495 -330M-956.75 539.808L550.245 -330M-989 539.808L517.995 -330M-1021.5 539.808L485.495 -330M-1053.75 539.808L453.245 -330M-1086.25 539.808L420.745 -330M-1118.5 539.808L388.495 -330M-1151 539.808L355.995 -330M-1183.25 539.808L323.745 -330M-1215.75 539.808L291.245 -330M-1248.25 539.808L258.745 -330M-1281 539.808L225.995 -330M-1318 539.808L188.995 -330" stroke="#8C8C8C"/>
<path d="M28.5 88L31.2315 35.1904L31.5 30L188.5 69.5L201 106L194.394 105.311L114 96.9217L114.548 101.501L117 122L109.7 106.776L104.5 95.9304L28.5 88Z" fill="#826FF9"/>
<path d="M26.5 34L23.5 92L28.5 88L31.2315 35.1904L31.5 30L26.5 34Z" fill="#826FF9"/>
<path d="M99.5 99.9304L112 126L117 122L109.7 106.776L104.5 95.9304L99.5 99.9304Z" fill="#FBF0F0"/>
<path d="M23.5 92L99.5 99.9304L104.5 95.9304L28.5 88L23.5 92Z" fill="#FBF0F0"/>
<path d="M196 110L201 106L194.394 105.311L114 96.9217L114.548 101.501L196 110Z" fill="#FBF0F0"/>
<path d="M23.5 92L26.5 34L31.5 30M23.5 92L99.5 99.9304M23.5 92L28.5 88M99.5 99.9304L112 126L117 122M99.5 99.9304L104.5 95.9304M31.5 30L188.5 69.5L201 106M31.5 30L31.2315 35.1904L28.5 88M28.5 88L104.5 95.9304M201 106L196 110L114.548 101.501M201 106L194.394 105.311L114 96.9217L114.548 101.501M104.5 95.9304L109.7 106.776L117 122M117 122L114.548 101.501" stroke="#BBB5DF" stroke-width="0.5"/>
<path d="M36.4648 52.1314C36.2139 52.0837 35.9832 52.2801 35.9903 52.5354L36.0365 54.2151C36.0417 54.4033 36.1775 54.5624 36.3625 54.5972L185.976 82.7226C186.32 82.7873 186.575 82.4096 186.387 82.1143L185.408 80.5811C185.349 80.4882 185.254 80.4239 185.146 80.4033L36.4648 52.1314Z" fill="black"/>
<path d="M36.6282 58.1255C36.3781 58.0796 36.1492 58.2757 36.1562 58.5299L36.2025 60.2108C36.2077 60.4 36.3448 60.5596 36.531 60.5934L186.121 87.728C186.464 87.7903 186.717 87.4135 186.529 87.1193L185.548 85.5806C185.488 85.487 185.392 85.4224 185.283 85.4023L36.6282 58.1255Z" fill="black"/>
<path d="M36.7916 64.1196C36.5422 64.0755 36.3151 64.2713 36.3221 64.5245L36.3685 66.2065C36.3737 66.3966 36.5121 66.5568 36.6994 66.5895L186.266 92.7333C186.609 92.7932 186.859 92.4174 186.672 92.1241L185.687 90.5801C185.627 90.4857 185.53 90.4209 185.419 90.4014L36.7916 64.1196Z" fill="black"/>
<path d="M372.965 151.008L371.033 113.67L370.844 110L259.838 137.928L251 163.735L255.671 163.248L312.513 157.316L312.125 160.554L310.392 175.048L315.553 164.284L319.23 156.616L372.965 151.008Z" fill="#826FF9"/>
<path d="M374.379 112.828L376.5 153.837L372.965 151.008L371.033 113.67L370.844 110L374.379 112.828Z" fill="#826FF9"/>
<path d="M322.765 159.444L313.927 177.876L310.392 175.048L315.553 164.284L319.23 156.616L322.765 159.444Z" fill="#FBF0F0"/>
<path d="M376.5 153.837L322.765 159.444L319.23 156.616L372.965 151.008L376.5 153.837Z" fill="#FBF0F0"/>
<path d="M254.535 166.563L251 163.735L255.671 163.248L312.513 157.316L312.125 160.554L254.535 166.563Z" fill="#FBF0F0"/>
<path d="M376.5 153.837L374.379 112.828L370.844 110M376.5 153.837L322.765 159.444M376.5 153.837L372.965 151.008M322.765 159.444L313.927 177.876L310.392 175.048M322.765 159.444L319.23 156.616M370.844 110L259.838 137.928L251 163.735M370.844 110L371.033 113.67L372.965 151.008M372.965 151.008L319.23 156.616M251 163.735L254.535 166.563L312.125 160.554M251 163.735L255.671 163.248L312.513 157.316L312.125 160.554M319.23 156.616L315.553 164.284L310.392 175.048M310.392 175.048L312.125 160.554" stroke="#BBB5DF" stroke-width="0.353521"/>
<path d="M367.333 125.648C367.51 125.614 367.673 125.753 367.668 125.933L367.635 127.121C367.632 127.254 367.536 127.367 367.405 127.391L261.622 147.277C261.379 147.323 261.198 147.056 261.331 146.847L262.023 145.763C262.065 145.697 262.132 145.652 262.209 145.637L367.333 125.648Z" fill="black"/>
<path d="M367.217 129.886C367.394 129.853 367.556 129.992 367.551 130.172L367.518 131.36C367.514 131.494 367.418 131.607 367.286 131.631L261.52 150.816C261.277 150.86 261.098 150.594 261.231 150.386L261.925 149.298C261.967 149.231 262.035 149.186 262.112 149.172L367.217 129.886Z" fill="black"/>
<path d="M367.102 134.124C367.278 134.093 367.439 134.231 367.434 134.41L367.401 135.599C367.397 135.734 367.299 135.847 367.167 135.87L261.417 154.355C261.175 154.397 260.998 154.132 261.13 153.924L261.827 152.833C261.869 152.766 261.938 152.72 262.016 152.706L367.102 134.124Z" fill="black"/>
</g>
<defs>
<clipPath id="clip0_1001_180">
<rect width="398" height="220" fill="white"/>
</clipPath>
</defs>
</svg>
