<svg width="398" height="220" viewBox="0 0 398 220" fill="none" xmlns="http://www.w3.org/2000/svg">
<g clip-path="url(#clip0_1001_2681)">
<rect width="398" height="220" fill="#F6E6C7"/>
<g clip-path="url(#clip1_1001_2681)">
<rect x="97.2891" y="46.4375" width="203.422" height="127.562" fill="#F9DC6F"/>
<mask id="path-3-inside-1_1001_2681" fill="white">
<path d="M97.2891 46.4375H300.711V55.4785H97.2891V46.4375Z"/>
</mask>
<path d="M97.2891 46.4375H300.711V55.4785H97.2891V46.4375Z" fill="#EEEEEE"/>
<path d="M300.711 55.0547H97.2891V55.9023H300.711V55.0547Z" fill="black" mask="url(#path-3-inside-1_1001_2681)"/>
<rect x="104.282" y="48.9097" width="4.09669" height="4.09669" rx="2.04835" fill="#FF5F5C"/>
<rect x="104.282" y="48.9097" width="4.09669" height="4.09669" rx="2.04835" stroke="black" stroke-width="0.423796"/>
<rect x="110.497" y="48.9097" width="4.09669" height="4.09669" rx="2.04835" fill="#FFBD43"/>
<rect x="110.497" y="48.9097" width="4.09669" height="4.09669" rx="2.04835" stroke="black" stroke-width="0.423796"/>
<rect x="116.714" y="48.9097" width="4.09669" height="4.09669" rx="2.04835" fill="#00BE44"/>
<rect x="116.714" y="48.9097" width="4.09669" height="4.09669" rx="2.04835" stroke="black" stroke-width="0.423796"/>
<rect x="292.446" y="50.0398" width="1.27139" height="1.27139" rx="0.635693" fill="#B2A7A7"/>
<rect x="292.446" y="50.0398" width="1.27139" height="1.27139" rx="0.635693" stroke="black" stroke-width="0.423796"/>
<rect x="289.622" y="50.0398" width="1.27139" height="1.27139" rx="0.635693" fill="#B2A7A7"/>
<rect x="289.622" y="50.0398" width="1.27139" height="1.27139" rx="0.635693" stroke="black" stroke-width="0.423796"/>
<rect x="286.796" y="50.0398" width="1.27139" height="1.27139" rx="0.635693" fill="#B2A7A7"/>
<rect x="286.796" y="50.0398" width="1.27139" height="1.27139" rx="0.635693" stroke="black" stroke-width="0.423796"/>
<rect x="147.226" y="50.0398" width="103.547" height="4.09669" rx="0.353163" fill="#B2A7A7" stroke="black" stroke-width="0.423796"/>
<rect x="116.854" y="76.5976" width="168.812" height="81.7926" rx="0.353163" fill="#F5EAEB" stroke="black" stroke-width="0.423796"/>
<rect x="114.595" y="74.3374" width="168.812" height="81.7926" rx="0.353163" fill="#826FF9" stroke="black" stroke-width="0.423796"/>
<mask id="path-14-inside-2_1001_2681" fill="white">
<rect x="121.162" y="92.2075" width="142.819" height="1.69518" rx="0.28253"/>
</mask>
<rect x="121.162" y="92.2075" width="142.819" height="1.69518" rx="0.28253" fill="black" stroke="black" stroke-width="0.847591" mask="url(#path-14-inside-2_1001_2681)"/>
<mask id="path-15-inside-3_1001_2681" fill="white">
<rect x="121.162" y="80.3411" width="44.7811" height="4.52049" rx="0.28253"/>
</mask>
<rect x="121.162" y="80.3411" width="44.7811" height="4.52049" rx="0.28253" fill="black" stroke="black" stroke-width="0.847591" mask="url(#path-15-inside-3_1001_2681)"/>
<mask id="path-16-inside-4_1001_2681" fill="white">
<rect x="168.205" y="80.3411" width="44.7811" height="4.52049" rx="0.28253"/>
</mask>
<rect x="168.205" y="80.3411" width="44.7811" height="4.52049" rx="0.28253" fill="black" stroke="black" stroke-width="0.847591" mask="url(#path-16-inside-4_1001_2681)"/>
<mask id="path-17-inside-5_1001_2681" fill="white">
<rect x="215.246" y="81.4712" width="12.0075" height="2.26024" rx="0.28253"/>
</mask>
<rect x="215.246" y="81.4712" width="12.0075" height="2.26024" rx="0.28253" fill="black" stroke="black" stroke-width="0.847591" mask="url(#path-17-inside-5_1001_2681)"/>
<mask id="path-18-inside-6_1001_2681" fill="white">
<rect x="121.162" y="96.1628" width="142.819" height="1.69518" rx="0.28253"/>
</mask>
<rect x="121.162" y="96.1628" width="142.819" height="1.69518" rx="0.28253" fill="black" stroke="black" stroke-width="0.847591" mask="url(#path-18-inside-6_1001_2681)"/>
<mask id="path-19-inside-7_1001_2681" fill="white">
<rect x="121.162" y="100.118" width="142.819" height="1.69518" rx="0.28253"/>
</mask>
<rect x="121.162" y="100.118" width="142.819" height="1.69518" rx="0.28253" fill="black" stroke="black" stroke-width="0.847591" mask="url(#path-19-inside-7_1001_2681)"/>
<mask id="path-20-inside-8_1001_2681" fill="white">
<rect x="121.162" y="104.074" width="142.819" height="1.69518" rx="0.28253"/>
</mask>
<rect x="121.162" y="104.074" width="142.819" height="1.69518" rx="0.28253" fill="black" stroke="black" stroke-width="0.847591" mask="url(#path-20-inside-8_1001_2681)"/>
<mask id="path-21-inside-9_1001_2681" fill="white">
<rect x="121.162" y="108.029" width="142.819" height="1.69518" rx="0.28253"/>
</mask>
<rect x="121.162" y="108.029" width="142.819" height="1.69518" rx="0.28253" fill="black" stroke="black" stroke-width="0.847591" mask="url(#path-21-inside-9_1001_2681)"/>
<mask id="path-22-inside-10_1001_2681" fill="white">
<rect x="121.162" y="111.985" width="142.819" height="1.69518" rx="0.28253"/>
</mask>
<rect x="121.162" y="111.985" width="142.819" height="1.69518" rx="0.28253" fill="black" stroke="black" stroke-width="0.847591" mask="url(#path-22-inside-10_1001_2681)"/>
<mask id="path-23-inside-11_1001_2681" fill="white">
<rect x="121.162" y="115.94" width="142.819" height="1.69518" rx="0.28253"/>
</mask>
<rect x="121.162" y="115.94" width="142.819" height="1.69518" rx="0.28253" fill="black" stroke="black" stroke-width="0.847591" mask="url(#path-23-inside-11_1001_2681)"/>
<mask id="path-24-inside-12_1001_2681" fill="white">
<rect x="121.162" y="119.896" width="142.819" height="1.69518" rx="0.28253"/>
</mask>
<rect x="121.162" y="119.896" width="142.819" height="1.69518" rx="0.28253" fill="black" stroke="black" stroke-width="0.847591" mask="url(#path-24-inside-12_1001_2681)"/>
<mask id="path-25-inside-13_1001_2681" fill="white">
<rect x="121.162" y="123.851" width="142.819" height="1.69518" rx="0.28253"/>
</mask>
<rect x="121.162" y="123.851" width="142.819" height="1.69518" rx="0.28253" fill="black" stroke="black" stroke-width="0.847591" mask="url(#path-25-inside-13_1001_2681)"/>
<mask id="path-26-inside-14_1001_2681" fill="white">
<rect x="121.162" y="127.806" width="142.819" height="1.69518" rx="0.28253"/>
</mask>
<rect x="121.162" y="127.806" width="142.819" height="1.69518" rx="0.28253" fill="black" stroke="black" stroke-width="0.847591" mask="url(#path-26-inside-14_1001_2681)"/>
<mask id="path-27-inside-15_1001_2681" fill="white">
<rect x="121.162" y="131.762" width="142.819" height="1.69518" rx="0.28253"/>
</mask>
<rect x="121.162" y="131.762" width="142.819" height="1.69518" rx="0.28253" fill="black" stroke="black" stroke-width="0.847591" mask="url(#path-27-inside-15_1001_2681)"/>
<mask id="path-28-inside-16_1001_2681" fill="white">
<rect x="121.162" y="135.717" width="74.3055" height="1.69518" rx="0.28253"/>
</mask>
<rect x="121.162" y="135.717" width="74.3055" height="1.69518" rx="0.28253" fill="black" stroke="black" stroke-width="0.847591" mask="url(#path-28-inside-16_1001_2681)"/>
<path d="M263.982 143.156C262.458 144.231 260.683 144.833 258.948 145.511C256.281 146.552 252.229 148.067 249.534 149.04C247.958 149.609 246.202 150.382 244.49 150.596C242.598 150.833 242.861 147.825 244.124 147.101C245.085 146.549 246.166 146.187 247.231 145.892C247.643 145.778 248.15 145.61 248.484 145.97C249.095 146.629 249.329 147.806 250.199 148.197C250.795 148.465 251.537 148.486 252.173 148.539C253.974 148.69 255.782 148.775 257.585 148.879C259.047 148.963 260.761 149.236 262.118 148.508C264.492 147.234 260.547 145.888 260.024 147.599C260.015 147.628 259.916 148.106 259.883 148.106C259.484 148.106 258.155 147.347 257.523 148.111C257.302 148.378 256.704 149.459 256.251 149.006C256.092 148.847 255.683 148.935 255.492 148.939C255.004 148.948 254.523 148.986 254.04 149.053C253.673 149.105 253.25 149.228 252.876 149.187C252.569 149.153 252.574 148.846 252.468 148.628C252.322 148.328 251.556 148.35 251.314 148.317C250.18 148.163 248.919 148.136 247.834 147.748C247.805 147.738 247.572 148.339 247.523 148.409C247.247 148.801 246.855 148.179 246.662 147.97C245.997 147.249 245.288 147.131 244.351 147.082C243.322 147.029 242.439 147.204 241.482 147.576C241.186 147.691 240.705 148.106 240.391 148.043" stroke="black" stroke-width="0.28253" stroke-linecap="round"/>
<path d="M134.906 150.737L134.98 151.21L135.28 150.838L141.174 143.534L137.796 152.29L137.624 152.736L138.07 152.564L146.826 149.186L139.522 155.08L139.15 155.38L139.623 155.454L148.895 156.907L139.623 158.359L139.15 158.433L139.522 158.734L146.826 164.628L138.07 161.25L137.624 161.077L137.796 161.524L141.174 170.28L135.28 162.976L134.98 162.604L134.906 163.076L133.453 172.348L132.001 163.076L131.927 162.604L131.626 162.976L125.732 170.28L129.11 161.524L129.283 161.077L128.836 161.25L120.08 164.628L127.384 158.734L127.756 158.433L127.284 158.359L118.012 156.907L127.284 155.454L127.756 155.38L127.384 155.08L120.08 149.186L128.836 152.564L129.283 152.736L129.11 152.29L125.732 143.534L131.626 150.838L131.927 151.21L132.001 150.737L133.453 141.465L134.906 150.737Z" fill="#A2A2A2" stroke="black" stroke-width="0.423796"/>
</g>
<rect x="97.8541" y="47.0026" width="202.292" height="126.432" stroke="black" stroke-width="1.13012"/>
<g clip-path="url(#clip2_1001_2681)">
<rect x="317" y="46.4375" width="203.422" height="127.562" fill="#F9DC6F"/>
<mask id="path-33-inside-17_1001_2681" fill="white">
<path d="M317 46.4375H520.422V55.4785H317V46.4375Z"/>
</mask>
<path d="M317 46.4375H520.422V55.4785H317V46.4375Z" fill="#EEEEEE"/>
<path d="M520.422 55.0547H317V55.9023H520.422V55.0547Z" fill="black" mask="url(#path-33-inside-17_1001_2681)"/>
<rect x="323.993" y="48.9097" width="4.09669" height="4.09669" rx="2.04835" fill="#FF5F5C"/>
<rect x="323.993" y="48.9097" width="4.09669" height="4.09669" rx="2.04835" stroke="black" stroke-width="0.423796"/>
<rect x="330.208" y="48.9097" width="4.09669" height="4.09669" rx="2.04835" fill="#FFBD43"/>
<rect x="330.208" y="48.9097" width="4.09669" height="4.09669" rx="2.04835" stroke="black" stroke-width="0.423796"/>
<rect x="336.425" y="48.9097" width="4.09669" height="4.09669" rx="2.04835" fill="#00BE44"/>
<rect x="336.425" y="48.9097" width="4.09669" height="4.09669" rx="2.04835" stroke="black" stroke-width="0.423796"/>
<rect x="366.937" y="50.0398" width="103.547" height="4.09669" rx="0.353163" fill="#B2A7A7" stroke="black" stroke-width="0.423796"/>
<rect x="336.565" y="76.5976" width="168.812" height="81.7926" rx="0.353163" fill="#F5EAEB" stroke="black" stroke-width="0.423796"/>
<rect x="334.306" y="74.3374" width="168.812" height="81.7926" rx="0.353163" fill="#826FF9" stroke="black" stroke-width="0.423796"/>
<mask id="path-41-inside-18_1001_2681" fill="white">
<rect x="340.873" y="92.2075" width="142.819" height="1.69518" rx="0.28253"/>
</mask>
<rect x="340.873" y="92.2075" width="142.819" height="1.69518" rx="0.28253" fill="black" stroke="black" stroke-width="0.847591" mask="url(#path-41-inside-18_1001_2681)"/>
<mask id="path-42-inside-19_1001_2681" fill="white">
<rect x="340.873" y="80.3411" width="44.7811" height="4.52049" rx="0.28253"/>
</mask>
<rect x="340.873" y="80.3411" width="44.7811" height="4.52049" rx="0.28253" fill="black" stroke="black" stroke-width="0.847591" mask="url(#path-42-inside-19_1001_2681)"/>
<mask id="path-43-inside-20_1001_2681" fill="white">
<rect x="387.916" y="80.3411" width="44.7811" height="4.52049" rx="0.28253"/>
</mask>
<rect x="387.916" y="80.3411" width="44.7811" height="4.52049" rx="0.28253" fill="black" stroke="black" stroke-width="0.847591" mask="url(#path-43-inside-20_1001_2681)"/>
<mask id="path-44-inside-21_1001_2681" fill="white">
<rect x="340.873" y="96.1628" width="142.819" height="1.69518" rx="0.28253"/>
</mask>
<rect x="340.873" y="96.1628" width="142.819" height="1.69518" rx="0.28253" fill="black" stroke="black" stroke-width="0.847591" mask="url(#path-44-inside-21_1001_2681)"/>
<mask id="path-45-inside-22_1001_2681" fill="white">
<rect x="340.873" y="100.118" width="142.819" height="1.69518" rx="0.28253"/>
</mask>
<rect x="340.873" y="100.118" width="142.819" height="1.69518" rx="0.28253" fill="black" stroke="black" stroke-width="0.847591" mask="url(#path-45-inside-22_1001_2681)"/>
<mask id="path-46-inside-23_1001_2681" fill="white">
<rect x="340.873" y="104.074" width="142.819" height="1.69518" rx="0.28253"/>
</mask>
<rect x="340.873" y="104.074" width="142.819" height="1.69518" rx="0.28253" fill="black" stroke="black" stroke-width="0.847591" mask="url(#path-46-inside-23_1001_2681)"/>
<mask id="path-47-inside-24_1001_2681" fill="white">
<rect x="340.873" y="108.029" width="142.819" height="1.69518" rx="0.28253"/>
</mask>
<rect x="340.873" y="108.029" width="142.819" height="1.69518" rx="0.28253" fill="black" stroke="black" stroke-width="0.847591" mask="url(#path-47-inside-24_1001_2681)"/>
<mask id="path-48-inside-25_1001_2681" fill="white">
<rect x="340.873" y="111.985" width="142.819" height="1.69518" rx="0.28253"/>
</mask>
<rect x="340.873" y="111.985" width="142.819" height="1.69518" rx="0.28253" fill="black" stroke="black" stroke-width="0.847591" mask="url(#path-48-inside-25_1001_2681)"/>
<mask id="path-49-inside-26_1001_2681" fill="white">
<rect x="340.873" y="115.94" width="142.819" height="1.69518" rx="0.28253"/>
</mask>
<rect x="340.873" y="115.94" width="142.819" height="1.69518" rx="0.28253" fill="black" stroke="black" stroke-width="0.847591" mask="url(#path-49-inside-26_1001_2681)"/>
<mask id="path-50-inside-27_1001_2681" fill="white">
<rect x="340.873" y="119.896" width="142.819" height="1.69518" rx="0.28253"/>
</mask>
<rect x="340.873" y="119.896" width="142.819" height="1.69518" rx="0.28253" fill="black" stroke="black" stroke-width="0.847591" mask="url(#path-50-inside-27_1001_2681)"/>
<mask id="path-51-inside-28_1001_2681" fill="white">
<rect x="340.873" y="123.851" width="142.819" height="1.69518" rx="0.28253"/>
</mask>
<rect x="340.873" y="123.851" width="142.819" height="1.69518" rx="0.28253" fill="black" stroke="black" stroke-width="0.847591" mask="url(#path-51-inside-28_1001_2681)"/>
<mask id="path-52-inside-29_1001_2681" fill="white">
<rect x="340.873" y="127.806" width="142.819" height="1.69518" rx="0.28253"/>
</mask>
<rect x="340.873" y="127.806" width="142.819" height="1.69518" rx="0.28253" fill="black" stroke="black" stroke-width="0.847591" mask="url(#path-52-inside-29_1001_2681)"/>
<mask id="path-53-inside-30_1001_2681" fill="white">
<rect x="340.873" y="131.762" width="142.819" height="1.69518" rx="0.28253"/>
</mask>
<rect x="340.873" y="131.762" width="142.819" height="1.69518" rx="0.28253" fill="black" stroke="black" stroke-width="0.847591" mask="url(#path-53-inside-30_1001_2681)"/>
<mask id="path-54-inside-31_1001_2681" fill="white">
<rect x="340.873" y="135.717" width="74.3055" height="1.69518" rx="0.28253"/>
</mask>
<rect x="340.873" y="135.717" width="74.3055" height="1.69518" rx="0.28253" fill="black" stroke="black" stroke-width="0.847591" mask="url(#path-54-inside-31_1001_2681)"/>
<path d="M354.617 150.737L354.691 151.21L354.991 150.838L360.885 143.534L357.507 152.29L357.335 152.736L357.781 152.564L366.537 149.186L359.233 155.08L358.861 155.38L359.334 155.454L368.606 156.907L359.334 158.359L358.861 158.433L359.233 158.734L366.537 164.628L357.781 161.25L357.335 161.077L357.507 161.524L360.885 170.28L354.991 162.976L354.691 162.604L354.617 163.076L353.164 172.348L351.712 163.076L351.638 162.604L351.337 162.976L345.443 170.28L348.821 161.524L348.993 161.077L348.547 161.25L339.791 164.628L347.095 158.734L347.467 158.433L346.995 158.359L337.723 156.907L346.995 155.454L347.467 155.38L347.095 155.08L339.791 149.186L348.547 152.564L348.993 152.736L348.821 152.29L345.443 143.534L351.337 150.838L351.638 151.21L351.712 150.737L353.164 141.465L354.617 150.737Z" fill="#A2A2A2" stroke="black" stroke-width="0.423796"/>
</g>
<rect x="317.565" y="47.0026" width="202.292" height="126.432" stroke="black" stroke-width="1.13012"/>
<g clip-path="url(#clip3_1001_2681)">
<rect x="-123" y="46.4375" width="203.422" height="127.562" fill="#F9DC6F"/>
<mask id="path-58-inside-32_1001_2681" fill="white">
<path d="M-123 46.4375H80.4219V55.4785H-123V46.4375Z"/>
</mask>
<path d="M-123 46.4375H80.4219V55.4785H-123V46.4375Z" fill="#EEEEEE"/>
<path d="M80.4219 55.0547H-123V55.9023H80.4219V55.0547Z" fill="black" mask="url(#path-58-inside-32_1001_2681)"/>
<rect x="72.1572" y="50.0398" width="1.27139" height="1.27139" rx="0.635693" fill="#B2A7A7"/>
<rect x="72.1572" y="50.0398" width="1.27139" height="1.27139" rx="0.635693" stroke="black" stroke-width="0.423796"/>
<rect x="69.333" y="50.0398" width="1.27139" height="1.27139" rx="0.635693" fill="#B2A7A7"/>
<rect x="69.333" y="50.0398" width="1.27139" height="1.27139" rx="0.635693" stroke="black" stroke-width="0.423796"/>
<rect x="66.5068" y="50.0398" width="1.27139" height="1.27139" rx="0.635693" fill="#B2A7A7"/>
<rect x="66.5068" y="50.0398" width="1.27139" height="1.27139" rx="0.635693" stroke="black" stroke-width="0.423796"/>
<rect x="-73.0635" y="50.0398" width="103.547" height="4.09669" rx="0.353163" fill="#B2A7A7" stroke="black" stroke-width="0.423796"/>
<rect x="-103.435" y="76.5976" width="168.812" height="81.7926" rx="0.353163" fill="#F5EAEB" stroke="black" stroke-width="0.423796"/>
<rect x="-105.694" y="74.3374" width="168.812" height="81.7926" rx="0.353163" fill="#826FF9" stroke="black" stroke-width="0.423796"/>
<mask id="path-66-inside-33_1001_2681" fill="white">
<rect x="-99.127" y="92.2075" width="142.819" height="1.69518" rx="0.28253"/>
</mask>
<rect x="-99.127" y="92.2075" width="142.819" height="1.69518" rx="0.28253" fill="black" stroke="black" stroke-width="0.847591" mask="url(#path-66-inside-33_1001_2681)"/>
<mask id="path-67-inside-34_1001_2681" fill="white">
<rect x="-5.04297" y="81.4712" width="12.0075" height="2.26024" rx="0.28253"/>
</mask>
<rect x="-5.04297" y="81.4712" width="12.0075" height="2.26024" rx="0.28253" fill="black" stroke="black" stroke-width="0.847591" mask="url(#path-67-inside-34_1001_2681)"/>
<mask id="path-68-inside-35_1001_2681" fill="white">
<rect x="-99.127" y="96.1628" width="142.819" height="1.69518" rx="0.28253"/>
</mask>
<rect x="-99.127" y="96.1628" width="142.819" height="1.69518" rx="0.28253" fill="black" stroke="black" stroke-width="0.847591" mask="url(#path-68-inside-35_1001_2681)"/>
<mask id="path-69-inside-36_1001_2681" fill="white">
<rect x="-99.127" y="100.118" width="142.819" height="1.69518" rx="0.28253"/>
</mask>
<rect x="-99.127" y="100.118" width="142.819" height="1.69518" rx="0.28253" fill="black" stroke="black" stroke-width="0.847591" mask="url(#path-69-inside-36_1001_2681)"/>
<mask id="path-70-inside-37_1001_2681" fill="white">
<rect x="-99.127" y="104.074" width="142.819" height="1.69518" rx="0.28253"/>
</mask>
<rect x="-99.127" y="104.074" width="142.819" height="1.69518" rx="0.28253" fill="black" stroke="black" stroke-width="0.847591" mask="url(#path-70-inside-37_1001_2681)"/>
<mask id="path-71-inside-38_1001_2681" fill="white">
<rect x="-99.127" y="108.029" width="142.819" height="1.69518" rx="0.28253"/>
</mask>
<rect x="-99.127" y="108.029" width="142.819" height="1.69518" rx="0.28253" fill="black" stroke="black" stroke-width="0.847591" mask="url(#path-71-inside-38_1001_2681)"/>
<mask id="path-72-inside-39_1001_2681" fill="white">
<rect x="-99.127" y="111.985" width="142.819" height="1.69518" rx="0.28253"/>
</mask>
<rect x="-99.127" y="111.985" width="142.819" height="1.69518" rx="0.28253" fill="black" stroke="black" stroke-width="0.847591" mask="url(#path-72-inside-39_1001_2681)"/>
<mask id="path-73-inside-40_1001_2681" fill="white">
<rect x="-99.127" y="115.94" width="142.819" height="1.69518" rx="0.28253"/>
</mask>
<rect x="-99.127" y="115.94" width="142.819" height="1.69518" rx="0.28253" fill="black" stroke="black" stroke-width="0.847591" mask="url(#path-73-inside-40_1001_2681)"/>
<mask id="path-74-inside-41_1001_2681" fill="white">
<rect x="-99.127" y="119.896" width="142.819" height="1.69518" rx="0.28253"/>
</mask>
<rect x="-99.127" y="119.896" width="142.819" height="1.69518" rx="0.28253" fill="black" stroke="black" stroke-width="0.847591" mask="url(#path-74-inside-41_1001_2681)"/>
<mask id="path-75-inside-42_1001_2681" fill="white">
<rect x="-99.127" y="123.851" width="142.819" height="1.69518" rx="0.28253"/>
</mask>
<rect x="-99.127" y="123.851" width="142.819" height="1.69518" rx="0.28253" fill="black" stroke="black" stroke-width="0.847591" mask="url(#path-75-inside-42_1001_2681)"/>
<mask id="path-76-inside-43_1001_2681" fill="white">
<rect x="-99.127" y="127.806" width="142.819" height="1.69518" rx="0.28253"/>
</mask>
<rect x="-99.127" y="127.806" width="142.819" height="1.69518" rx="0.28253" fill="black" stroke="black" stroke-width="0.847591" mask="url(#path-76-inside-43_1001_2681)"/>
<mask id="path-77-inside-44_1001_2681" fill="white">
<rect x="-99.127" y="131.762" width="142.819" height="1.69518" rx="0.28253"/>
</mask>
<rect x="-99.127" y="131.762" width="142.819" height="1.69518" rx="0.28253" fill="black" stroke="black" stroke-width="0.847591" mask="url(#path-77-inside-44_1001_2681)"/>
<path d="M43.6929 143.156C42.169 144.231 40.3939 144.833 38.6592 145.511C35.9921 146.552 31.9404 148.067 29.2446 149.04C27.6692 149.609 25.9131 150.382 24.2005 150.596C22.3092 150.833 22.5723 147.825 23.835 147.101C24.7958 146.549 25.8772 146.187 26.9419 145.892C27.354 145.778 27.8613 145.61 28.1951 145.97C28.8059 146.629 29.0403 147.806 29.9104 148.197C30.5061 148.465 31.2482 148.486 31.8842 148.539C33.6849 148.69 35.4925 148.775 37.2964 148.879C38.7584 148.963 40.4718 149.236 41.8287 148.508C44.2027 147.234 40.2576 145.888 39.7349 147.599C39.7262 147.628 39.6273 148.106 39.5939 148.106C39.1953 148.106 37.8658 147.347 37.2337 148.111C37.013 148.378 36.4146 149.459 35.9622 149.006C35.8033 148.847 35.3935 148.935 35.2025 148.939C34.7152 148.948 34.2337 148.986 33.7509 149.053C33.3838 149.105 32.9609 149.228 32.5865 149.187C32.2798 149.153 32.2852 148.846 32.1792 148.628C32.0331 148.328 31.267 148.35 31.0252 148.317C29.8911 148.163 28.6303 148.136 27.545 147.748C27.5158 147.738 27.2832 148.339 27.2343 148.409C26.9576 148.801 26.5655 148.179 26.3727 147.97C25.7077 147.249 24.9989 147.131 24.0622 147.082C23.0334 147.029 22.1499 147.204 21.1929 147.576C20.897 147.691 20.4164 148.106 20.1016 148.043" stroke="black" stroke-width="0.28253" stroke-linecap="round"/>
</g>
<rect x="-122.435" y="47.0026" width="202.292" height="126.432" stroke="black" stroke-width="1.13012"/>
</g>
<defs>
<clipPath id="clip0_1001_2681">
<rect width="398" height="220" fill="white"/>
</clipPath>
<clipPath id="clip1_1001_2681">
<rect x="97.2891" y="46.4375" width="203.422" height="127.562" fill="white"/>
</clipPath>
<clipPath id="clip2_1001_2681">
<rect x="317" y="46.4375" width="203.422" height="127.562" fill="white"/>
</clipPath>
<clipPath id="clip3_1001_2681">
<rect x="-123" y="46.4375" width="203.422" height="127.562" fill="white"/>
</clipPath>
</defs>
</svg>
