<svg width="1440" height="946" viewBox="0 0 1440 946" fill="none" xmlns="http://www.w3.org/2000/svg">
<path d="M720.25 -356.433L3734.24 1383.18M656.25 -356.433L3670.24 1383.18M591.25 -356.433L3605.24 1383.18M526.25 -356.433L3540.24 1383.18M461.25 -356.433L3475.24 1383.18M396.25 -356.433L3410.24 1383.18M331.25 -356.433L3345.24 1383.18M266.25 -356.433L3280.24 1383.18M201.75 -356.433L3215.74 1383.18M136.75 -356.433L3150.74 1383.18M72.25 -356.433L3086.24 1383.18M7.25 -356.433L3021.24 1383.18M-57.25 -356.433L2956.74 1383.18M-122.25 -356.433L2891.74 1383.18M-187.25 -356.433L2826.74 1383.18M-251.75 -356.433L2762.24 1383.18M-316.25 -356.433L2697.74 1383.18M-380.75 -356.433L2633.24 1383.18M-445.75 -356.433L2568.24 1383.18M-510.75 -356.433L2503.24 1383.18M-575.25 -356.433L2438.74 1383.18M-640.25 -356.433L2373.74 1383.18M-705.25 -356.433L2308.74 1383.19M-769.75 -356.433L2244.24 1383.18M-834.25 -356.433L2179.74 1383.18M-899.25 -356.433L2114.74 1383.18M-964.25 -356.433L2049.74 1383.18M-1028.25 -356.433L1985.74 1383.18M-1093.25 -356.433L1920.74 1383.18M-1158.25 -356.433L1855.74 1383.18M-1223.25 -356.433L1790.74 1383.18M-1288.25 -356.433L1725.74 1383.18M-1352.75 -356.433L1661.24 1383.18M-1417.25 -356.433L1596.74 1383.18M-1482.25 -356.433L1531.74 1383.18M-1546.75 -356.433L1467.24 1383.18M-1611.25 -356.433L1402.74 1383.18M-1675.75 -356.433L1338.24 1383.18M-1740.75 -356.433L1273.24 1383.18M-1805.25 -356.433L1208.74 1383.18M-1870.25 -356.433L1143.74 1383.18M-1934.75 -356.433L1079.24 1383.18M-1999.75 -356.433L1014.24 1383.18M-2064.25 -356.433L949.739 1383.18M-2129.25 -356.433L884.739 1383.18M-2194.25 -356.433L819.739 1383.18M-2259.75 -356.433L754.239 1383.18M-2333.75 -356.433L680.239 1383.18M719.25 1364.05L3733.24 -375.567M655.25 1364.05L3669.24 -375.567M590.25 1364.05L3604.24 -375.567M525.25 1364.05L3539.24 -375.567M460.25 1364.05L3474.24 -375.567M395.25 1364.05L3409.24 -375.567M330.25 1364.05L3344.24 -375.567M265.25 1364.05L3279.24 -375.567M200.75 1364.05L3214.74 -375.567M135.75 1364.05L3149.74 -375.567M71.25 1364.05L3085.24 -375.567M6.25 1364.05L3020.24 -375.567M-58.25 1364.05L2955.74 -375.567M-123.25 1364.05L2890.74 -375.567M-188.25 1364.05L2825.74 -375.567M-252.75 1364.05L2761.24 -375.567M-317.25 1364.05L2696.74 -375.567M-381.75 1364.05L2632.24 -375.567M-446.75 1364.05L2567.24 -375.567M-511.75 1364.05L2502.24 -375.567M-576.25 1364.05L2437.74 -375.567M-641.25 1364.05L2372.74 -375.567M-706.25 1364.05L2307.74 -375.567M-770.75 1364.05L2243.24 -375.567M-835.25 1364.05L2178.74 -375.567M-900.25 1364.05L2113.74 -375.567M-965.25 1364.05L2048.74 -375.567M-1029.25 1364.05L1984.74 -375.567M-1094.25 1364.05L1919.74 -375.567M-1159.25 1364.05L1854.74 -375.567M-1224.25 1364.05L1789.74 -375.567M-1289.25 1364.05L1724.74 -375.567M-1353.75 1364.05L1660.24 -375.567M-1418.25 1364.05L1595.74 -375.567M-1483.25 1364.05L1530.74 -375.567M-1547.75 1364.05L1466.24 -375.567M-1612.25 1364.05L1401.74 -375.567M-1676.75 1364.05L1337.24 -375.567M-1741.75 1364.05L1272.24 -375.567M-1806.25 1364.05L1207.74 -375.567M-1871.25 1364.05L1142.74 -375.567M-1935.75 1364.05L1078.24 -375.567M-2000.75 1364.05L1013.24 -375.567M-2065.25 1364.05L948.739 -375.567M-2130.25 1364.05L883.739 -375.567M-2195.25 1364.05L818.739 -375.567M-2260.75 1364.05L753.239 -375.567M-2334.75 1364.05L679.239 -375.567" stroke="black"/>
</svg>
