<svg xmlns="http://www.w3.org/2000/svg" width="154" height="40" viewBox="0 0 154 40" fill="none">
<path d="M44.5 3.5C46.4598 3.5 48.126 2.24755 48.7438 0.5H49.7562C50.374 2.24755 52.0402 3.5 54 3.5C55.9598 3.5 57.626 2.24755 58.2438 0.5H150C151.933 0.5 153.5 2.067 153.5 4V12.9269C150.587 13.9564 148.5 16.7338 148.5 20C148.5 23.2662 150.587 26.0436 153.5 27.0731V36C153.5 37.933 151.933 39.5 150 39.5H58.2438C57.626 37.7524 55.9598 36.5 54 36.5C52.0402 36.5 50.374 37.7524 49.7562 39.5H48.7438C48.126 37.7524 46.4598 36.5 44.5 36.5C42.5402 36.5 40.874 37.7524 40.2562 39.5H39.2438C38.626 37.7524 36.9598 36.5 35 36.5C33.0402 36.5 31.374 37.7524 30.7562 39.5H29.7438C29.126 37.7524 27.4598 36.5 25.5 36.5C23.5402 36.5 21.874 37.7524 21.2562 39.5H20.2438C19.626 37.7524 17.9598 36.5 16 36.5C14.0402 36.5 12.374 37.7524 11.7562 39.5H4C2.067 39.5 0.5 37.933 0.5 36V27.0731C3.41257 26.0436 5.5 23.2662 5.5 20C5.5 16.7338 3.41257 13.9564 0.5 12.9269V4C0.5 2.067 2.067 0.5 4 0.5H11.7562C12.374 2.24755 14.0402 3.5 16 3.5C17.9598 3.5 19.626 2.24756 20.2438 0.5H21.2562C21.874 2.24756 23.5402 3.5 25.5 3.5C27.4598 3.5 29.126 2.24756 29.7438 0.5H30.7562C31.374 2.24756 33.0402 3.5 35 3.5C36.9598 3.5 38.626 2.24755 39.2438 0.5H40.2562C40.874 2.24755 42.5402 3.5 44.5 3.5Z" fill="#F52762" stroke="#0400DE"/>
</svg>