<svg xmlns="http://www.w3.org/2000/svg" width="115" height="40" viewBox="0 0 115 40" fill="none">
<path d="M82.1873 4.7767L82.5 5.02739L82.8127 4.7767C86.1512 2.10046 90.388 0.5 95 0.5C105.77 0.5 114.5 9.23045 114.5 20C114.5 30.7696 105.77 39.5 95 39.5C90.388 39.5 86.1512 37.8995 82.8127 35.2233L82.5 34.9726L82.1873 35.2233C78.8488 37.8995 74.612 39.5 70 39.5C65.388 39.5 61.1512 37.8995 57.8127 35.2233L57.5 34.9726L57.1873 35.2233C53.8488 37.8995 49.612 39.5 45 39.5C40.388 39.5 36.1512 37.8995 32.8127 35.2233L32.5 34.9726L32.1873 35.2233C28.8488 37.8995 24.612 39.5 20 39.5C9.23045 39.5 0.5 30.7696 0.5 20C0.5 9.23045 9.23045 0.5 20 0.5C24.612 0.5 28.8488 2.10046 32.1873 4.7767L32.5 5.02739L32.8127 4.7767C36.1512 2.10046 40.388 0.5 45 0.5C49.612 0.5 53.8488 2.10046 57.1873 4.7767L57.5 5.02739L57.8127 4.7767C61.1512 2.10046 65.388 0.5 70 0.5C74.612 0.5 78.8488 2.10046 82.1873 4.7767Z" fill="#DFFF5F" stroke="black"/>
</svg>