<svg width="1440" height="946" viewBox="0 0 1440 946" fill="none" xmlns="http://www.w3.org/2000/svg">
<g opacity="0.03">
<mask id="mask0_365_7422" style="mask-type:alpha" maskUnits="userSpaceOnUse" x="-579" y="-246" width="2598" height="1501">
<path d="M1153.59 -245.82L-578.445 -245.842L287.776 1254.82L2018.95 1254.34L1153.59 -245.82Z" fill="#2891E7"/>
</mask>
<g mask="url(#mask0_365_7422)">
<path d="M1150.59 -241.123L2890.98 2772.42M1095.17 -273.123L2835.55 2740.42M1038.88 -305.623L2779.26 2707.92M982.585 -338.123L2722.97 2675.42M926.293 -370.623L2666.68 2642.92M870.001 -403.123L2610.38 2610.42M813.71 -435.623L2554.09 2577.92M757.418 -468.123L2497.8 2545.42M701.56 -500.373L2441.94 2513.17M645.268 -532.873L2385.65 2480.67M589.409 -565.123L2329.79 2448.42M533.118 -597.623L2273.5 2415.92M477.259 -629.873L2217.64 2383.67M420.967 -662.373L2161.35 2351.17M364.676 -694.873L2105.06 2318.67M308.817 -727.123L2049.2 2286.42M252.958 -759.373L1993.34 2254.17M197.1 -791.623L1937.48 2221.92M140.808 -824.123L1881.19 2189.42M84.5164 -856.623L1824.9 2156.92M28.6578 -888.873L1769.04 2124.67M-27.6339 -921.373L1712.75 2092.17M-83.9255 -953.873L1656.46 2059.67M-139.784 -986.123L1600.6 2027.42M-195.643 -1018.37L1544.74 1995.17M-251.934 -1050.87L1488.45 1962.67M-308.226 -1083.37L1432.16 1930.17M-363.652 -1115.37L1376.73 1898.17M-419.943 -1147.87L1320.44 1865.67M-476.235 -1180.37L1264.15 1833.17M-532.527 -1212.87L1207.86 1800.67M-588.818 -1245.37L1151.56 1768.17M-644.677 -1277.62L1095.71 1735.92M-700.536 -1309.87L1039.85 1703.67M-756.827 -1342.37L983.555 1671.17M-812.686 -1374.62L927.696 1638.92M-868.545 -1406.87L871.838 1606.67M-924.403 -1439.12L815.979 1574.42M-980.695 -1471.62L759.687 1541.92M-1036.55 -1503.87L703.829 1509.67M-1092.85 -1536.37L647.537 1477.17M-1148.7 -1568.62L591.678 1444.92M-1205 -1601.12L535.387 1412.42M-1260.85 -1633.37L479.528 1380.17M-1317.15 -1665.87L423.236 1347.67M-1373.44 -1698.37L366.945 1315.17M-1430.16 -1731.12L310.22 1282.42M-1494.25 -1768.12L246.134 1245.42M289.486 1248.36L3769.49 1248.8M234.06 1216.36L3714.06 1216.8M177.768 1183.86L3657.77 1184.3M121.477 1151.36L3601.48 1151.8M65.1851 1118.86L3545.19 1119.3M8.89347 1086.36L3488.89 1086.8M-47.3982 1053.86L3432.6 1054.3M-103.69 1021.36L3376.31 1021.8M-159.548 989.109L3320.45 989.551M-215.84 956.609L3264.16 957.051M-271.699 924.359L3208.3 924.801M-327.99 891.859L3152.01 892.301M-383.849 859.609L3096.15 860.051M-440.141 827.109L3039.86 827.551M-496.432 794.609L2983.57 795.051M-552.291 762.359L2927.71 762.801M-608.15 730.109L2871.85 730.551M-664.008 697.859L2815.99 698.301M-720.3 665.359L2759.7 665.801M-776.592 632.859L2703.41 633.301M-832.45 600.609L2647.55 601.051M-888.742 568.109L2591.26 568.551M-945.033 535.609L2534.97 536.051M-1000.89 503.359L2479.11 503.801M-1056.75 471.109L2423.25 471.551M-1113.04 438.609L2366.96 439.051M-1169.33 406.109L2310.67 406.551M-1224.76 374.109L2255.24 374.551M-1281.05 341.609L2198.95 342.051M-1337.34 309.109L2142.66 309.551M-1393.63 276.609L2086.37 277.051M-1449.93 244.109L2030.07 244.551M-1505.78 211.859L1974.22 212.301M-1561.64 179.609L1918.36 180.051M-1617.94 147.109L1862.06 147.551M-1673.79 114.859L1806.21 115.301M-1729.65 82.6094L1750.35 83.0507M-1785.51 50.3594L1694.49 50.8007M-1841.8 17.8594L1638.2 18.3007M-1897.66 -14.3906L1582.34 -13.9493M-1953.95 -46.8906L1526.05 -46.4493M-2009.81 -79.1406L1470.19 -78.6993M-2066.1 -111.641L1413.9 -111.199M-2121.96 -143.891L1358.04 -143.449M-2178.25 -176.391L1301.75 -175.949M-2234.55 -208.891L1245.45 -208.449M-2291.27 -241.641L1188.73 -241.199M-2355.36 -278.641L1124.64 -278.199" stroke="black"/>
</g>
</g>
</svg>
