<svg width="69" height="57" viewBox="0 0 69 57" fill="none" xmlns="http://www.w3.org/2000/svg">
<path d="M25.7519 0.0469437L14.7202 10.2506L19.8259 22.3942L30.8534 12.1945L30.8542 12.1949L30.858 12.1914L25.7519 0.0469437Z" fill="url(#paint0_linear_518_13934)"/>
<path d="M19.8262 22.395L54.5298 48.0437L54.5307 48.044L65.5624 37.8404L30.8542 12.1949L19.8262 22.395Z" fill="url(#paint1_linear_518_13934)"/>
<path d="M25.7519 0.0469437L30.858 12.1914L65.5624 37.8404L60.4563 25.6959L25.7519 0.0469437Z" fill="url(#paint2_linear_518_13934)"/>
<path d="M25.7519 0.0469432L14.7202 10.2506L19.8259 22.3942M25.7519 0.0469432L30.858 12.1914M25.7519 0.0469432L60.4563 25.6959L65.5624 37.8404M30.858 12.1914L65.5624 37.8404M30.858 12.1914L30.8542 12.1949M19.8216 22.3982L19.8259 22.3942M19.8262 22.395L30.8542 12.1949M19.8262 22.395L19.8259 22.3942M19.8262 22.395L54.5298 48.0437M65.5624 37.8404L54.5307 48.044L54.5298 48.0437M65.5624 37.8404L30.8542 12.1949M54.5261 48.0471L54.5298 48.0437M65.5578 37.8435L54.5298 48.0437M19.8259 22.3942L30.8534 12.1945L30.8542 12.1949" stroke="#F47EDA" stroke-width="0.0645917"/>
<path d="M25.3922 41.9854L22.4216 33.7065L14.711 33.6765L17.6805 41.9522L17.6801 41.9525L17.6811 41.9554L25.3922 41.9854Z" fill="url(#paint3_linear_518_13934)"/>
<path d="M14.7104 33.6765L9.55694 38.3429L9.55654 38.3433L12.5272 46.6222L17.6801 41.9525L14.7104 33.6765Z" fill="url(#paint4_linear_518_13934)"/>
<path d="M25.3922 41.9854L17.6811 41.9554L12.5272 46.6222L20.2383 46.6522L25.3922 41.9854Z" fill="url(#paint5_linear_518_13934)"/>
<path d="M25.3922 41.9854L22.4216 33.7065L14.711 33.6765M25.3922 41.9854L17.6811 41.9554M25.3922 41.9854L20.2383 46.6522L12.5272 46.6222M17.6811 41.9554L12.5272 46.6222M17.6811 41.9554L17.6801 41.9525M14.7098 33.6733L14.711 33.6765M14.7104 33.6765L17.6801 41.9525M14.7104 33.6765L14.711 33.6765M14.7104 33.6765L9.55694 38.3429M12.5272 46.6222L9.55654 38.3433L9.55694 38.3429M12.5272 46.6222L17.6801 41.9525M9.55592 38.3401L9.55694 38.3429M12.5266 46.619L9.55694 38.3429M14.711 33.6765L17.6805 41.9522L17.6801 41.9525" stroke="#F47EDA" stroke-width="0.0378071"/>
<path d="M16.9389 30.3119L14.6541 23.9445L8.7238 23.9214L11.0077 30.2863L11.0074 30.2866L11.0082 30.2888L16.9389 30.3119Z" fill="url(#paint6_linear_518_13934)"/>
<path d="M8.7234 23.9214L4.7598 27.5104L4.7595 27.5107L7.04426 33.878L11.0074 30.2866L8.7234 23.9214Z" fill="url(#paint7_linear_518_13934)"/>
<path d="M16.9389 30.3119L11.0082 30.2888L7.04426 33.878L12.975 33.9012L16.9389 30.3119Z" fill="url(#paint8_linear_518_13934)"/>
<path d="M16.9389 30.3119L14.6541 23.9445L8.7238 23.9214M16.9389 30.3119L11.0082 30.2888M16.9389 30.3119L12.975 33.9012L7.04426 33.878M11.0082 30.2888L7.04426 33.878M11.0082 30.2888L11.0074 30.2866M8.72292 23.9189L8.7238 23.9214M8.7234 23.9214L11.0074 30.2866M8.7234 23.9214L8.7238 23.9214M8.7234 23.9214L4.7598 27.5104M7.04426 33.878L4.7595 27.5107L4.7598 27.5104M7.04426 33.878L11.0074 30.2866M4.75902 27.5082L4.7598 27.5104M7.04378 33.8756L4.7598 27.5104M8.7238 23.9214L11.0077 30.2863L11.0074 30.2866" stroke="#F47EDA" stroke-width="0.0290777"/>
<path d="M10.1074 20.5899L8.32415 15.6202L3.69561 15.6022L5.47815 20.5699L5.47791 20.5701L5.47853 20.5718L10.1074 20.5899Z" fill="url(#paint9_linear_518_13934)"/>
<path d="M3.6953 15.6022L0.601756 18.4033L0.60152 18.4036L2.38475 23.3732L5.47791 20.5701L3.6953 15.6022Z" fill="url(#paint10_linear_518_13934)"/>
<path d="M10.1074 20.5899L5.47853 20.5718L2.38475 23.3732L7.01359 23.3912L10.1074 20.5899Z" fill="url(#paint11_linear_518_13934)"/>
<path d="M10.1074 20.5899L8.32415 15.6202L3.69561 15.6022M10.1074 20.5899L5.47853 20.5718M10.1074 20.5899L7.01359 23.3912L2.38475 23.3732M5.47853 20.5718L2.38475 23.3732M5.47853 20.5718L5.47791 20.5701M3.69492 15.6002L3.69561 15.6022M3.6953 15.6022L5.47791 20.5701M3.6953 15.6022L3.69561 15.6022M3.6953 15.6022L0.601755 18.4033M2.38475 23.3732L0.60152 18.4036L0.601755 18.4033M2.38475 23.3732L5.47791 20.5701M0.601145 18.4016L0.601755 18.4033M2.38437 23.3713L0.601755 18.4033M3.69561 15.6022L5.47815 20.5699L5.47791 20.5701" stroke="#F47EDA" stroke-width="0.0226948"/>
<defs>
<linearGradient id="paint0_linear_518_13934" x1="24.4076" y1="2.71295" x2="24.0582" y2="22.0638" gradientUnits="userSpaceOnUse">
<stop stop-color="#FF20A6"/>
<stop offset="1" stop-color="#E1FF26"/>
</linearGradient>
<linearGradient id="paint1_linear_518_13934" x1="27.4049" y1="10.322" x2="57.529" y2="45.714" gradientUnits="userSpaceOnUse">
<stop stop-color="#E37EC7"/>
<stop offset="0.606752" stop-color="#BDDF93"/>
<stop offset="1" stop-color="#ABB2F3"/>
</linearGradient>
<linearGradient id="paint2_linear_518_13934" x1="27.8602" y1="8.69875" x2="67.5883" y2="20.8261" gradientUnits="userSpaceOnUse">
<stop offset="0.0881515" stop-color="#DD91BD"/>
<stop offset="0.594065" stop-color="#C2D599"/>
<stop offset="1" stop-color="#B5AAEC"/>
</linearGradient>
<linearGradient id="paint3_linear_518_13934" x1="24.2639" y1="40.6509" x2="13.9199" y2="36.032" gradientUnits="userSpaceOnUse">
<stop stop-color="#FF20A6"/>
<stop offset="1" stop-color="#E1FF26"/>
</linearGradient>
<linearGradient id="paint4_linear_518_13934" x1="22.0594" y1="38.0058" x2="10.0889" y2="41.2007" gradientUnits="userSpaceOnUse">
<stop stop-color="#E37EC7"/>
<stop offset="0.606752" stop-color="#BDDF93"/>
<stop offset="1" stop-color="#ABB2F3"/>
</linearGradient>
<linearGradient id="paint5_linear_518_13934" x1="22.4505" y1="38.4986" x2="12.3486" y2="46.2138" gradientUnits="userSpaceOnUse">
<stop offset="0.0881515" stop-color="#DD91BD"/>
<stop offset="0.594065" stop-color="#C2D599"/>
<stop offset="1" stop-color="#B5AAEC"/>
</linearGradient>
<linearGradient id="paint6_linear_518_13934" x1="16.0711" y1="29.2855" x2="8.11542" y2="25.733" gradientUnits="userSpaceOnUse">
<stop stop-color="#FF20A6"/>
<stop offset="1" stop-color="#E1FF26"/>
</linearGradient>
<linearGradient id="paint7_linear_518_13934" x1="14.3755" y1="27.2511" x2="5.16892" y2="29.7084" gradientUnits="userSpaceOnUse">
<stop stop-color="#E37EC7"/>
<stop offset="0.606752" stop-color="#BDDF93"/>
<stop offset="1" stop-color="#ABB2F3"/>
</linearGradient>
<linearGradient id="paint8_linear_518_13934" x1="14.6764" y1="27.6301" x2="6.90694" y2="33.564" gradientUnits="userSpaceOnUse">
<stop offset="0.0881515" stop-color="#DD91BD"/>
<stop offset="0.594065" stop-color="#C2D599"/>
<stop offset="1" stop-color="#B5AAEC"/>
</linearGradient>
<linearGradient id="paint9_linear_518_13934" x1="9.43005" y1="19.7887" x2="3.22078" y2="17.0161" gradientUnits="userSpaceOnUse">
<stop stop-color="#FF20A6"/>
<stop offset="1" stop-color="#E1FF26"/>
</linearGradient>
<linearGradient id="paint10_linear_518_13934" x1="8.10672" y1="18.201" x2="0.921066" y2="20.1188" gradientUnits="userSpaceOnUse">
<stop stop-color="#E37EC7"/>
<stop offset="0.606752" stop-color="#BDDF93"/>
<stop offset="1" stop-color="#ABB2F3"/>
</linearGradient>
<linearGradient id="paint11_linear_518_13934" x1="8.34151" y1="18.4968" x2="2.27757" y2="23.1281" gradientUnits="userSpaceOnUse">
<stop offset="0.0881515" stop-color="#DD91BD"/>
<stop offset="0.594065" stop-color="#C2D599"/>
<stop offset="1" stop-color="#B5AAEC"/>
</linearGradient>
</defs>
</svg>
