<svg width="52" height="70" viewBox="0 0 52 70" fill="none" xmlns="http://www.w3.org/2000/svg">
<g style="mix-blend-mode:multiply" filter="url(#filter0_f_518_13973)">
<path d="M22.4026 66.3023L-3.33969 54.478L-16.25 48.9998L-25.7136 43.7683C-26.0489 43.5829 -26.0597 43.1047 -25.7329 42.9044L-16.625 37.3222L-24.4704 33.548C-24.8271 33.3763 -24.8524 32.8779 -24.5149 32.6711L-19.8689 29.8236C-19.7241 29.7348 -19.544 29.7257 -19.3909 29.7993L-10.9647 33.853L13.7853 44.728L31.0261 53.4699C31.2957 53.6066 31.3833 53.9495 31.2122 54.1987L23.0236 66.1308C22.8859 66.3315 22.6237 66.4038 22.4026 66.3023Z" fill="black" fill-opacity="0.5"/>
</g>
<g filter="url(#filter1_f_518_13973)">
<path d="M2.18283 56.5578L18.9496 64.1146C19.1319 64.1968 19.3455 64.1624 19.4929 64.0273L30.7078 53.747C30.968 53.5085 30.9059 53.0829 30.5884 52.9287L14.0597 44.9004C13.8732 44.8098 13.6502 44.8437 13.499 44.9856L2.04606 55.7374C1.78613 55.9814 1.85779 56.4113 2.18283 56.5578Z" fill="url(#paint0_linear_518_13973)" fill-opacity="0.5"/>
</g>
<path d="M50.9081 16.3494L49.1581 17.3389V19.3369L50.9081 18.3474V16.3494Z" fill="#FDCF86"/>
<path d="M45.1582 19.6008V21.5988L46.9189 20.6032V18.6052L45.1582 19.6008Z" fill="#E5EAFC"/>
<path d="M43.1582 20.7317V22.7297L44.9082 21.7402V19.7421L43.1582 20.7317Z" fill="#E5EAFC"/>
<path d="M44.9082 22.1781L43.1582 23.1677V25.0182L44.9082 24.0287V22.1781Z" fill="#E5EAFC"/>
<path d="M46.9189 22.8917V21.0412L45.1582 22.0368V23.8873L46.9189 22.8917Z" fill="#E5EAFC"/>
<path d="M48.9084 21.7667V19.9162L47.1581 20.9058V22.7564L48.9084 21.7667Z" fill="#E5EAFC"/>
<path d="M49.1581 19.7749V21.6255L50.9081 20.6359V18.7854L49.1581 19.7749Z" fill="#E5EAFC"/>
<path d="M50.9081 21.0739L49.1581 22.0634V24.0005L50.9081 23.0109V21.0739Z" fill="#E5EAFC"/>
<path d="M47.1581 23.1944V25.1314L48.9084 24.1417V22.2047L47.1581 23.1944Z" fill="#E5EAFC"/>
<path d="M45.1582 24.3253V26.2623L46.9189 25.2667V23.3297L45.1582 24.3253Z" fill="#E5EAFC"/>
<path d="M43.1582 25.4562V27.3932L44.9082 26.4037V24.4667L43.1582 25.4562Z" fill="#E5EAFC"/>
<path d="M44.9082 26.8417L43.1582 27.8312V29.7297L44.9082 28.7402V26.8417Z" fill="#E5EAFC"/>
<path d="M46.9189 27.6032V25.7047L45.1582 26.7003V28.5988L46.9189 27.6032Z" fill="#E5EAFC"/>
<path d="M46.9189 28.0412L45.1582 29.0368V30.9117L46.9189 29.9161V28.0412Z" fill="#E5EAFC"/>
<path d="M43.1582 30.1677V32.0427L44.9082 31.0531V29.1781L43.1582 30.1677Z" fill="#E5EAFC"/>
<path d="M44.9082 31.4911L43.1582 32.4806V34.3932L44.9082 33.4037V31.4911Z" fill="#E5EAFC"/>
<path d="M46.9189 32.2667V30.3541L45.1582 31.3497V33.2623L46.9189 32.2667Z" fill="#E5EAFC"/>
<path d="M48.9084 31.1417V29.2291L47.1581 30.2188V32.1314L48.9084 31.1417Z" fill="#E5EAFC"/>
<path d="M48.9084 24.5797L47.1581 25.5694V27.4679L48.9084 26.4782V24.5797Z" fill="#E5EAFC"/>
<path d="M49.1581 24.4384V26.3369L50.9081 25.3474V23.4489L49.1581 24.4384Z" fill="#FDCF86"/>
<path d="M49.1581 28.6499L50.9081 27.6603V25.7854L49.1581 26.7749V28.6499Z" fill="#E5EAFC"/>
<path d="M47.1581 27.9058V29.7808L48.9084 28.7911V26.9162L47.1581 27.9058Z" fill="#E5EAFC"/>
<path d="M50.9081 28.0983L49.1581 29.0879V31.0005L50.9081 30.0109V28.0983Z" fill="#E5EAFC"/>
<path d="M50.9081 30.4489L49.1581 31.4384V33.3369L50.9081 32.3474V30.4489Z" fill="#E5EAFC"/>
<path d="M47.1581 32.5694V34.4679L48.9084 33.4782V31.5797L47.1581 32.5694Z" fill="#E5EAFC"/>
<path d="M45.1582 33.7003V35.5988L46.9189 34.6032V32.7047L45.1582 33.7003Z" fill="#E5EAFC"/>
<path d="M43.1582 34.8312V36.7297L44.9082 35.7402V33.8417L43.1582 34.8312Z" fill="#E5EAFC"/>
<path d="M44.9082 52.5531L43.1582 53.5427V55.4797L44.9082 54.4902V52.5531Z" fill="#E5EAFC"/>
<path d="M48.9084 52.6662L47.1581 53.6559V55.5064L48.9084 54.5167V52.6662Z" fill="#E5EAFC"/>
<path d="M49.1581 52.5249V54.3755L50.9081 53.3859V51.5354L49.1581 52.5249Z" fill="#E5EAFC"/>
<path d="M49.1581 52.0869L50.9081 51.0974V49.1604L49.1581 50.1499V52.0869Z" fill="#E5EAFC"/>
<path d="M50.9081 46.7854L49.1581 47.7749V49.7119L50.9081 48.7224V46.7854Z" fill="#E5EAFC"/>
<path d="M50.9081 44.5354L49.1581 45.5249V47.3369L50.9081 46.3474V44.5354Z" fill="#E5EAFC"/>
<path d="M50.9081 42.1604L49.1581 43.1499V45.0869L50.9081 44.0974V42.1604Z" fill="#E5EAFC"/>
<path d="M50.9081 39.7854L49.1581 40.7749V42.7119L50.9081 41.7224V39.7854Z" fill="#E5EAFC"/>
<path d="M50.9081 37.4104L49.1581 38.3999V40.3369L50.9081 39.3474V37.4104Z" fill="#E5EAFC"/>
<path d="M50.9081 35.1604L49.1581 36.1499V37.9619L50.9081 36.9724V35.1604Z" fill="#E5EAFC"/>
<path d="M50.9081 32.7854L49.1581 33.7749V35.7119L50.9081 34.7224V32.7854Z" fill="#E5EAFC"/>
<path d="M47.1581 34.9058V36.8429L48.9084 35.8532V33.9162L47.1581 34.9058Z" fill="#E5EAFC"/>
<path d="M47.1581 39.0929L48.9084 38.1032V36.2912L47.1581 37.2808V39.0929Z" fill="#E5EAFC"/>
<path d="M46.9189 36.9782V35.0412L45.1582 36.0368V37.9738L46.9189 36.9782Z" fill="#E5EAFC"/>
<path d="M46.9189 37.4162L45.1582 38.4118V40.2238L46.9189 39.2282V37.4162Z" fill="#E5EAFC"/>
<path d="M44.9082 38.1152V36.1781L43.1582 37.1677V39.1047L44.9082 38.1152Z" fill="#E5EAFC"/>
<path d="M43.1582 41.3547L44.9082 40.3652V38.5531L43.1582 39.5427V41.3547Z" fill="#E5EAFC"/>
<path d="M43.1582 43.7297L44.9082 42.7402V40.8031L43.1582 41.7927V43.7297Z" fill="#E5EAFC"/>
<path d="M45.1582 40.6618V42.5988L46.9189 41.6032V39.6662L45.1582 40.6618Z" fill="#FDCF86"/>
<path d="M47.1581 39.5308V41.4679L48.9084 40.4782V38.5412L47.1581 39.5308Z" fill="#E5EAFC"/>
<path d="M47.1581 43.8429L48.9084 42.8532V40.9162L47.1581 41.9058V43.8429Z" fill="#E5EAFC"/>
<path d="M46.9189 43.9782V42.0412L45.1582 43.0368V44.9738L46.9189 43.9782Z" fill="#E5EAFC"/>
<path d="M44.9082 45.1152V43.1781L43.1582 44.1677V46.1047L44.9082 45.1152Z" fill="#E5EAFC"/>
<path d="M43.1582 48.4797L44.9082 47.4902V45.5531L43.1582 46.5427V48.4797Z" fill="#E5EAFC"/>
<path d="M43.1582 50.7297L44.9082 49.7402V47.9281L43.1582 48.9177V50.7297Z" fill="#E5EAFC"/>
<path d="M45.1582 47.7868V49.5988L46.9189 48.6032V46.7912L45.1582 47.7868Z" fill="#E5EAFC"/>
<path d="M46.9189 44.4162L45.1582 45.4118V47.3488L46.9189 46.3532V44.4162Z" fill="#E5EAFC"/>
<path d="M48.9084 45.2282V43.2912L47.1581 44.2808V46.2179L48.9084 45.2282Z" fill="#FDCF86"/>
<path d="M48.9084 45.6662L47.1581 46.6558V48.4679L48.9084 47.4782V45.6662Z" fill="#E5EAFC"/>
<path d="M47.1581 50.8429L48.9084 49.8532V47.9162L47.1581 48.9058V50.8429Z" fill="#E5EAFC"/>
<path d="M46.9189 50.9782V49.0412L45.1582 50.0368V51.9738L46.9189 50.9782Z" fill="#E5EAFC"/>
<path d="M44.9082 52.1152V50.1781L43.1582 51.1677V53.1047L44.9082 52.1152Z" fill="#E5EAFC"/>
<path d="M44.9082 59.6161L43.1582 60.6056V62.6047L44.9082 61.6152V59.6161Z" fill="#E5EAFC"/>
<path d="M45.1582 61.4738L46.9189 60.4782V58.4791L45.1582 59.4747V61.4738Z" fill="#E5EAFC"/>
<path d="M47.1581 60.3429L48.9084 59.3532V57.3541L47.1581 58.3438V60.3429Z" fill="#E5EAFC"/>
<path d="M49.1581 59.212L50.9081 58.2224V56.2233L49.1581 57.2129V59.212Z" fill="#E5EAFC"/>
<path d="M50.9081 53.8239L49.1581 54.8135V56.7749L50.9081 55.7853V53.8239Z" fill="#E5EAFC"/>
<path d="M47.1581 55.9444V57.9058L48.9084 56.9161V54.9547L47.1581 55.9444Z" fill="#E5EAFC"/>
<path d="M48.9084 50.2912L47.1581 51.2808V53.2179L48.9084 52.2282V50.2912Z" fill="#E5EAFC"/>
<path d="M45.1582 52.4118V54.3488L46.9189 53.3532V51.4162L45.1582 52.4118Z" fill="#FDCF86"/>
<path d="M45.1582 56.6373L46.9189 55.6417V53.7912L45.1582 54.7868V56.6373Z" fill="#E5EAFC"/>
<path d="M43.1582 55.9177V57.7683L44.9082 56.7787V54.9281L43.1582 55.9177Z" fill="#E5EAFC"/>
<path d="M43.1582 60.1677L44.9082 59.1781V57.2167L43.1582 58.2062V60.1677Z" fill="#E5EAFC"/>
<path d="M45.1582 57.0753V59.0367L46.9189 58.0411V56.0797L45.1582 57.0753Z" fill="#E5EAFC"/>
<path d="M41.7832 48.3791L31.1582 42.2465V49.7465L41.7832 55.8791V48.3791Z" fill="#E5EAFC"/>
<path d="M31.1582 41.4965L41.7832 47.6291V40.0041L31.1582 33.8715V41.4965Z" fill="#E5EAFC"/>
<path d="M31.1582 32.9965L41.7832 39.1291V31.6291L31.1582 25.4965V32.9965Z" fill="#E5EAFC"/>
<path d="M31.1582 24.7465L41.7832 30.8791V23.1291L31.1582 16.9965V24.7465Z" fill="#E5EAFC"/>
<path d="M45.4082 63.996V68.0422L48.6581 66.2045V62.1582L45.4082 63.996Z" fill="#FBE6C5"/>
<path d="M22.6601 57.4782L20.9101 56.4919V58.7443L22.6601 59.7305V57.4782Z" fill="#E5EAFC"/>
<path d="M20.6601 58.6034V56.3511L18.8854 55.3509V57.6032L20.6601 58.6034Z" fill="#E5EAFC"/>
<path d="M20.6601 53.4761L18.8854 52.4782V54.7259L20.6601 55.7261V53.4761Z" fill="#E5EAFC"/>
<path d="M20.9101 53.617V55.867L22.6601 56.8532V54.6032L20.9101 53.617Z" fill="#E5EAFC"/>
<path d="M22.6601 51.7314L20.9101 50.7451V52.992L22.6601 53.9782V51.7314Z" fill="#E5EAFC"/>
<path d="M18.8854 49.604V51.8532L20.6601 52.8511V50.6042L18.8854 49.604Z" fill="#E5EAFC"/>
<path d="M22.6601 48.9813L20.9101 47.9951V50.1201L22.6601 51.1064V48.9813Z" fill="#E5EAFC"/>
<path d="M20.6601 49.9792V47.8542L18.8854 46.854V48.979L20.6601 49.9792Z" fill="#E5EAFC"/>
<path d="M22.6601 46.2316L20.9101 45.2454V47.3701L22.6601 48.3564V46.2316Z" fill="#E5EAFC"/>
<path d="M22.6601 43.3566L20.9101 42.3704V44.6204L22.6601 45.6066V43.3566Z" fill="#E5EAFC"/>
<path d="M18.8854 41.2293V43.4793L20.6601 44.4795V42.2295L18.8854 41.2293Z" fill="#E5EAFC"/>
<path d="M18.6602 46.1021V43.9773L16.8892 42.9793V45.104L18.6602 46.1021Z" fill="#E5EAFC"/>
<path d="M18.6602 38.3523L16.8892 37.3543V39.4793L18.6602 40.4774V38.3523Z" fill="#E5EAFC"/>
<path d="M20.6601 36.7295L18.8854 35.7293V37.8543L20.6601 38.8545V36.7295Z" fill="#E5EAFC"/>
<path d="M20.6601 33.8545L18.8854 32.8543V35.1043L20.6601 36.1045V33.8545Z" fill="#E5EAFC"/>
<path d="M20.6601 31.1045L18.8854 30.1043V32.2293L20.6601 33.2295V31.1045Z" fill="#E5EAFC"/>
<path d="M20.6601 28.3545L18.8854 27.3543V29.4793L20.6601 30.4795V28.3545Z" fill="#E5EAFC"/>
<path d="M20.6601 25.4795L18.8854 24.4793V26.7293L20.6601 27.7295V25.4795Z" fill="#E5EAFC"/>
<path d="M20.6601 22.6045L18.8854 21.6043V23.8543L20.6601 24.8545V22.6045Z" fill="#E5EAFC"/>
<path d="M20.6601 19.7295L18.8854 18.7293V20.9793L20.6601 21.9795V19.7295Z" fill="#E5EAFC"/>
<path d="M20.9101 19.8704V22.1204L22.6601 23.1066V20.8566L20.9101 19.8704Z" fill="#E5EAFC"/>
<path d="M20.9101 24.9954L22.6601 25.9816V23.7316L20.9101 22.7454V24.9954Z" fill="#E5EAFC"/>
<path d="M20.9101 27.8704L22.6601 28.8566V26.6066L20.9101 25.6204V27.8704Z" fill="#E5EAFC"/>
<path d="M20.9101 30.6204L22.6601 31.6066V29.4816L20.9101 28.4954V30.6204Z" fill="#E5EAFC"/>
<path d="M20.9101 33.3704L22.6601 34.3566V32.2316L20.9101 31.2454V33.3704Z" fill="#E5EAFC"/>
<path d="M20.9101 36.2454L22.6601 37.2316V34.9816L20.9101 33.9954V36.2454Z" fill="#E5EAFC"/>
<path d="M20.9101 38.9954L22.6601 39.9816V37.8566L20.9101 36.8704V38.9954Z" fill="#E5EAFC"/>
<path d="M20.9101 41.7454L22.6601 42.7316V40.6066L20.9101 39.6204V41.7454Z" fill="#E5EAFC"/>
<path d="M18.8854 38.4793V40.6043L20.6601 41.6045V39.4795L18.8854 38.4793Z" fill="#E5EAFC"/>
<path d="M16.8892 34.6043V36.7293L18.6602 37.7274V35.6023L16.8892 34.6043Z" fill="#E5EAFC"/>
<path d="M16.8892 33.9793L18.6602 34.9774V32.7274L16.8892 31.7293V33.9793Z" fill="#E5EAFC"/>
<path d="M16.8892 28.3543L18.6602 29.3524V27.2274L16.8892 26.2293V28.3543Z" fill="#E5EAFC"/>
<path d="M16.8892 31.1043L18.6602 32.1024V29.9773L16.8892 28.9793V31.1043Z" fill="#E5EAFC"/>
<path d="M16.8892 25.6043L18.6602 26.6024V24.3523L16.8892 23.3543V25.6043Z" fill="#E5EAFC"/>
<path d="M16.8892 22.7293L18.6602 23.7274V21.4774L16.8892 20.4793V22.7293Z" fill="#E5EAFC"/>
<path d="M16.8892 19.8543L18.6602 20.8524V18.6024L16.8892 17.6043V19.8543Z" fill="#E5EAFC"/>
<path d="M16.8892 42.3543L18.6602 43.3524V41.1024L16.8892 40.1043V42.3543Z" fill="#E5EAFC"/>
<path d="M20.6601 47.2292V45.1045L18.8854 44.1043V46.229L20.6601 47.2292Z" fill="#E5EAFC"/>
<path d="M18.6602 46.7271L16.8892 45.729V47.854L18.6602 48.8521V46.7271Z" fill="#E5EAFC"/>
<path d="M18.6602 49.4771L16.8892 48.479V50.7282L18.6602 51.724V49.4771Z" fill="#E5EAFC"/>
<path d="M16.8892 56.4782L18.6602 57.4763V55.2239L16.8892 54.2259V56.4782Z" fill="#E5EAFC"/>
<path d="M16.8892 53.6009L18.6602 54.5989V52.349L16.8892 51.3532V53.6009Z" fill="#E5EAFC"/>
<path d="M41.7832 68.1291V56.7541L36.7065 53.8239V65.1989L41.7832 68.1291Z" fill="#E5EAFC"/>
<path d="M31.1582 50.6215V61.9965L36.0351 64.8114V53.4364L31.1582 50.6215Z" fill="#E5EAFC"/>
<path d="M30.6933 16.75L23.763 20.75V21.4782V23.7282V24.3532V26.6032V27.2282V29.4782V30.1032V32.2282V32.8532V34.9782V35.6032V37.8532V38.4782V40.6032V41.2282V43.3532V43.9782V46.2282V46.8532V48.9779V49.6029V51.7279V52.3529V54.6021V55.2271V57.4771V58.1021V60.3521V67L30.6933 63V61.7282V50.3532V49.4782V41.9782V41.2282V33.6032V32.7282V25.2282V24.4782V16.75Z" fill="#DE82AD"/>
<path d="M47.1581 18.4698V20.4679L48.9084 19.4782V17.4802L47.1581 18.4698Z" fill="#E5EAFC"/>
<path fill-rule="evenodd" clip-rule="evenodd" d="M42.388 20.5V69.75L45.4082 68.0422V63.996L48.6581 62.1582V66.2045L51.4082 64.6494V15.3994L50.9081 15.6822L49.1581 16.6717L48.9084 16.813L47.1581 17.8027L46.9189 17.938L45.1582 18.9336L44.9082 19.0749L43.1582 20.0645L42.388 20.5ZM44.9082 61.6152L43.1582 62.6047V60.6056L44.9082 59.6161V61.6152ZM46.9189 60.4782L45.1582 61.4738V59.4747L46.9189 58.4791V60.4782ZM48.9084 59.3532L47.1581 60.3429V58.3438L48.9084 57.3541V59.3532ZM50.9081 58.2224L49.1581 59.212V57.2129L50.9081 56.2233V58.2224ZM49.1581 17.3389L50.9081 16.3494V18.3474L49.1581 19.3369V17.3389ZM47.1581 20.4679V18.4698L48.9084 17.4802V19.4782L47.1581 20.4679ZM45.1582 21.5988V19.6008L46.9189 18.6052V20.6032L45.1582 21.5988ZM43.1582 22.7297V20.7317L44.9082 19.7421V21.7402L43.1582 22.7297ZM43.1582 23.1677L44.9082 22.1781V24.0287L43.1582 25.0182V23.1677ZM46.9189 21.0412V22.8917L45.1582 23.8873V22.0368L46.9189 21.0412ZM48.9084 19.9162V21.7667L47.1581 22.7564V20.9058L48.9084 19.9162ZM49.1581 21.6255V19.7749L50.9081 18.7854V20.6359L49.1581 21.6255ZM49.1581 22.0634L50.9081 21.0739V23.0109L49.1581 24.0005V22.0634ZM47.1581 25.1314V23.1944L48.9084 22.2047V24.1417L47.1581 25.1314ZM45.1582 26.2623V24.3253L46.9189 23.3297V25.2667L45.1582 26.2623ZM43.1582 27.3932V25.4562L44.9082 24.4667V26.4037L43.1582 27.3932ZM43.1582 27.8312L44.9082 26.8417V28.7402L43.1582 29.7297V30.1677L44.9082 29.1781V31.0531L43.1582 32.0427V30.1677V29.7297V27.8312ZM46.9189 25.7047V27.6032L45.1582 28.5988V26.7003L46.9189 25.7047ZM45.1582 29.0368L46.9189 28.0412V29.9161L45.1582 30.9117V29.0368ZM43.1582 32.4806L44.9082 31.4911V33.4037L43.1582 34.3932V32.4806ZM46.9189 30.3541V32.2667L45.1582 33.2623V33.7003L46.9189 32.7047V34.6032L45.1582 35.5988V33.7003V33.2623V31.3497L46.9189 30.3541ZM48.9084 29.2291V31.1417L47.1581 32.1314V30.2188L48.9084 29.2291ZM47.1581 25.5694L48.9084 24.5797V26.4782L47.1581 27.4679V25.5694ZM49.1581 26.3369V24.4384L50.9081 23.4489V25.3474L49.1581 26.3369ZM50.9081 27.6603L49.1581 28.6499V26.7749L50.9081 25.7854V27.6603ZM47.1581 29.7808V27.9058L48.9084 26.9162V28.7911L47.1581 29.7808ZM49.1581 29.0879L50.9081 28.0983V30.0109L49.1581 31.0005V29.0879ZM49.1581 31.4384L50.9081 30.4489V32.3474L49.1581 33.3369V31.4384ZM47.1581 34.4679V32.5694L48.9084 31.5797V33.4782L47.1581 34.4679ZM43.1582 36.7297V34.8312L44.9082 33.8417V35.7402L43.1582 36.7297ZM43.1582 53.5427L44.9082 52.5531V54.4902L43.1582 55.4797V53.5427ZM47.1581 53.6559L48.9084 52.6662V54.5167L47.1581 55.5064V53.6559ZM49.1581 54.3755V52.5249L50.9081 51.5354V53.3859L49.1581 54.3755ZM50.9081 51.0974L49.1581 52.0869V50.1499L50.9081 49.1604V51.0974ZM49.1581 47.7749L50.9081 46.7854V48.7224L49.1581 49.7119V47.7749ZM49.1581 45.5249L50.9081 44.5354V46.3474L49.1581 47.3369V45.5249ZM49.1581 43.1499L50.9081 42.1604V44.0974L49.1581 45.0869V43.1499ZM49.1581 40.7749L50.9081 39.7854V41.7224L49.1581 42.7119V40.7749ZM49.1581 38.3999L50.9081 37.4104V39.3474L49.1581 40.3369V38.3999ZM49.1581 36.1499L50.9081 35.1604V36.9724L49.1581 37.9619V36.1499ZM49.1581 33.7749L50.9081 32.7854V34.7224L49.1581 35.7119V33.7749ZM47.1581 36.8429V34.9058L48.9084 33.9162V35.8532L47.1581 36.8429ZM48.9084 38.1032L47.1581 39.0929V39.5308L48.9084 38.5412V40.4782L47.1581 41.4679V39.5308V39.0929V37.2808L48.9084 36.2912V38.1032ZM46.9189 35.0412V36.9782L45.1582 37.9738V36.0368L46.9189 35.0412ZM45.1582 38.4118L46.9189 37.4162V39.2282L45.1582 40.2238V38.4118ZM44.9082 36.1781V38.1152L43.1582 39.1047V37.1677L44.9082 36.1781ZM44.9082 40.3652L43.1582 41.3547V39.5427L44.9082 38.5531V40.3652ZM44.9082 42.7402L43.1582 43.7297V41.7927L44.9082 40.8031V42.7402V43.1781V45.1152L43.1582 46.1047V44.1677L44.9082 43.1781V42.7402ZM45.1582 42.5988V40.6618L46.9189 39.6662V41.6032L45.1582 42.5988ZM48.9084 42.8532L47.1581 43.8429V41.9058L48.9084 40.9162V42.8532ZM46.9189 42.0412V43.9782L45.1582 44.9738V43.0368L46.9189 42.0412ZM44.9082 47.4902L43.1582 48.4797V46.5427L44.9082 45.5531V47.4902ZM44.9082 49.7402L43.1582 50.7297V48.9177L44.9082 47.9281V49.7402ZM45.1582 49.5988V47.7868L46.9189 46.7912V48.6032L45.1582 49.5988ZM45.1582 45.4118L46.9189 44.4162V46.3532L45.1582 47.3488V45.4118ZM48.9084 43.2912V45.2282L47.1581 46.2179V44.2808L48.9084 43.2912ZM47.1581 46.6558L48.9084 45.6662V47.4782L47.1581 48.4679V46.6558ZM48.9084 49.8532L47.1581 50.8429V48.9058L48.9084 47.9162V49.8532ZM46.9189 49.0412V50.9782L45.1582 51.9738V50.0368L46.9189 49.0412ZM44.9082 50.1781V52.1152L43.1582 53.1047V51.1677L44.9082 50.1781ZM49.1581 54.8135L50.9081 53.8239V55.7853L49.1581 56.7749V54.8135ZM47.1581 57.9058V55.9444L48.9084 54.9547V56.9161L47.1581 57.9058ZM47.1581 51.2808L48.9084 50.2912V52.2282L47.1581 53.2179V51.2808ZM45.1582 54.3488V52.4118L46.9189 51.4162V53.3532L45.1582 54.3488ZM46.9189 55.6417L45.1582 56.6373V54.7868L46.9189 53.7912V55.6417ZM43.1582 57.7683V55.9177L44.9082 54.9281V56.7787L43.1582 57.7683ZM44.9082 59.1781L43.1582 60.1677V58.2062L44.9082 57.2167V59.1781ZM45.1582 59.0367V57.0753L46.9189 56.0797V58.0411L45.1582 59.0367Z" fill="#202A4C"/>
<path d="M51.4082 15.3994L42.638 10.25L39.8895 8.52955L35.388 11L33.0137 9.47817L30.2462 11.0554L28.122 12.2659L42.388 20.5L43.1582 20.0645L44.9082 19.0749L45.1582 18.9336L46.9189 17.938L47.1581 17.8027L48.9084 16.813L49.1581 16.6717L50.9081 15.6822L51.4082 15.3994Z" fill="#FBE6C5"/>
<path d="M27.6366 3.65101L35.388 8.125L39.8895 5.47399L32.138 1L27.6366 3.65101Z" fill="#FBE6C5"/>
<path fill-rule="evenodd" clip-rule="evenodd" d="M30.6933 16.75L23.763 20.75L22.6601 20.1284L20.9101 19.1422L20.6601 19.0013L18.8854 18.0011L18.6602 17.8742L16.8892 16.8761L16 16.375L27.6337 9.66023L30.2462 11.0554L28.122 12.2659V15.2659L30.6933 16.75Z" fill="#C4B59D"/>
<path fill-rule="evenodd" clip-rule="evenodd" d="M16 62.625L23.763 67V60.3521V58.1021V57.4771V55.2271V54.6021V52.3529V51.7279V49.6029V48.9779V46.8532V46.2282V43.9782V43.3532V41.2282V40.6032V38.4782V37.8532V35.6032V34.9782V32.8532V32.2282V30.1032V29.4782V27.2282V26.6032V24.3532V23.7282V21.4782V20.75L22.6601 20.1284L20.9101 19.1422L20.6601 19.0013L18.8854 18.0011L18.6602 17.8742L16.8892 16.8761L16 16.375V62.625ZM22.6601 59.7305L20.9101 58.7443V56.4919L22.6601 57.4782V59.7305ZM20.6601 58.6034L18.8854 57.6032V55.3509L20.6601 56.3511V58.6034ZM18.6602 57.4763L16.8892 56.4782V54.2259L18.6602 55.2239V57.4763ZM18.8854 52.4782L20.6601 53.4761V55.7261L18.8854 54.7259V52.4782ZM20.9101 55.867V53.617L22.6601 54.6032V56.8532L20.9101 55.867ZM20.9101 50.7451L22.6601 51.7314V53.9782L20.9101 52.992V50.7451ZM18.8854 51.8532V49.604L20.6601 50.6042V52.8511L18.8854 51.8532ZM20.9101 47.9951L22.6601 48.9813V51.1064L20.9101 50.1201V47.9951ZM20.6601 47.8542V49.9792L18.8854 48.979V46.854L20.6601 47.8542ZM20.9101 45.2454L22.6601 46.2316V48.3564L20.9101 47.3701V45.2454ZM20.9101 42.3704L22.6601 43.3566V45.6066L20.9101 44.6204V42.3704ZM18.8854 43.4793V41.2293L20.6601 42.2295V44.4795L18.8854 43.4793ZM18.6602 43.9773V46.1021L16.8892 45.104V42.9793L18.6602 43.9773ZM16.8892 37.3543L18.6602 38.3523V40.4774L16.8892 39.4793V37.3543ZM18.8854 35.7293L20.6601 36.7295V38.8545L18.8854 37.8543V35.7293ZM18.8854 32.8543L20.6601 33.8545V36.1045L18.8854 35.1043V32.8543ZM18.8854 30.1043L20.6601 31.1045V33.2295L18.8854 32.2293V30.1043ZM18.8854 27.3543L20.6601 28.3545V30.4795L18.8854 29.4793V27.3543ZM18.8854 24.4793L20.6601 25.4795V27.7295L18.8854 26.7293V24.4793ZM18.8854 21.6043L20.6601 22.6045V24.8545L18.8854 23.8543V21.6043ZM18.8854 18.7293L20.6601 19.7295V21.9795L18.8854 20.9793V18.7293ZM20.9101 22.1204V19.8704L22.6601 20.8566V23.1066L20.9101 22.1204ZM22.6601 25.9816L20.9101 24.9954V22.7454L22.6601 23.7316V25.9816ZM22.6601 28.8566L20.9101 27.8704V25.6204L22.6601 26.6066V28.8566ZM22.6601 31.6066L20.9101 30.6204V28.4954L22.6601 29.4816V31.6066ZM22.6601 34.3566L20.9101 33.3704V31.2454L22.6601 32.2316V34.3566ZM22.6601 37.2316L20.9101 36.2454V33.9954L22.6601 34.9816V37.2316ZM22.6601 39.9816L20.9101 38.9954V36.8704L22.6601 37.8566V39.9816ZM22.6601 42.7316L20.9101 41.7454V39.6204L22.6601 40.6066V42.7316ZM18.8854 40.6043V38.4793L20.6601 39.4795V41.6045L18.8854 40.6043ZM16.8892 36.7293V34.6043L18.6602 35.6023V37.7274L16.8892 36.7293ZM18.6602 34.9774L16.8892 33.9793V31.7293L18.6602 32.7274V34.9774ZM18.6602 29.3524L16.8892 28.3543V26.2293L18.6602 27.2274V29.3524ZM18.6602 32.1024L16.8892 31.1043V28.9793L18.6602 29.9773V32.1024ZM18.6602 26.6024L16.8892 25.6043V23.3543L18.6602 24.3523V26.6024ZM18.6602 23.7274L16.8892 22.7293V20.4793L18.6602 21.4774V23.7274ZM18.6602 20.8524L16.8892 19.8543V17.6043L18.6602 18.6024V20.8524ZM18.6602 43.3524L16.8892 42.3543V40.1043L18.6602 41.1024V43.3524ZM20.6601 45.1045V47.2292L18.8854 46.229V44.1043L20.6601 45.1045ZM16.8892 45.729L18.6602 46.7271V48.8521L16.8892 47.854V45.729ZM16.8892 48.479L18.6602 49.4771V51.724L16.8892 50.7282V48.479ZM18.6602 54.5989L16.8892 53.6009V51.3532L18.6602 52.349V54.5989Z" fill="#9D2A60"/>
<path d="M35.388 8.125L27.6366 3.65101L27.6337 9.66023L30.2462 11.0554L33.0137 9.47817L35.388 11V8.125Z" fill="#9D2A60"/>
<path d="M35.388 8.125V11L39.8895 8.52955V5.47399L35.388 8.125Z" fill="#202A4C"/>
<path fill-rule="evenodd" clip-rule="evenodd" d="M42.388 69.75V20.5L28.122 12.2659V15.2659L30.6933 16.75V24.4782V25.2282V32.7282V33.6032V41.2282V41.9782V49.4782V50.3532V61.7282V63L42.388 69.75ZM41.7832 23.1291L31.1582 16.9965V24.7465L41.7832 30.8791V23.1291ZM31.1582 42.2465L41.7832 48.3791V55.8791L31.1582 49.7465V42.2465ZM41.7832 47.6291L31.1582 41.4965V33.8715L41.7832 40.0041V47.6291ZM41.7832 39.1291L31.1582 32.9965V25.4965L41.7832 31.6291V39.1291ZM36.0351 64.8114L31.1582 61.9965V50.6215L36.0351 53.4364V64.8114ZM41.7832 68.1291L36.7065 65.1989V53.8239L41.7832 56.7541V68.1291Z" fill="#9D2A60"/>
<path d="M23.763 67L30.6933 63M23.763 67L16 62.625V16.375M23.763 67V60.3521M23.763 20.75L30.6933 16.75M23.763 20.75L22.6601 20.1284L20.9101 19.1422L20.6601 19.0013L18.8854 18.0011L18.6602 17.8742L16.8892 16.8761L16 16.375M23.763 20.75V21.4782V23.7282V24.3532V26.6032V27.2282V29.4782V30.1032V32.2282V32.8532V34.9782V35.6032V37.8532V38.4782V40.6032V41.2282V43.3532V43.9782V46.2282V46.8532V48.9779M23.763 20.75V48.9779M35.388 8.125L27.6366 3.65101M35.388 8.125V11M35.388 8.125L39.8895 5.47399M35.388 11L39.8895 8.52955M35.388 11L33.0137 9.47817L30.2462 11.0554M42.388 69.75V20.5M42.388 69.75L30.6933 63M42.388 69.75L45.4082 68.0422M30.6933 16.75V63M30.6933 16.75L28.122 15.2659V12.2659M30.6933 16.75V24.4782V25.2282V32.7282V33.6032V41.2282V41.9782V49.4782V50.3532V61.7282V63M42.388 20.5L28.122 12.2659M42.388 20.5L43.1582 20.0645L44.9082 19.0749L45.1582 18.9336L46.9189 17.938L47.1581 17.8027L48.9084 16.813L49.1581 16.6717L50.9081 15.6822L51.4082 15.3994M51.4082 15.3994L42.638 10.25L39.8895 8.52955M51.4082 15.3994V64.6494L48.6581 66.2045M16 16.375L27.6337 9.66023M28.122 12.2659L30.2462 11.0554M27.6366 3.65101L32.138 1L39.8895 5.47399M27.6366 3.65101L27.6337 9.66023M27.6337 9.66023L30.138 11L30.2462 11.0554M27.6337 9.66023L30.2462 11.0554M39.8895 8.52955V5.47399M45.4082 68.0422V63.996L48.6581 62.1582V66.2045M45.4082 68.0422L48.6581 66.2045M23.7635 48.9782L23.763 48.9779M23.7635 49.6032L23.763 49.6029M23.7635 51.7282L23.763 51.7279M23.7635 52.3532L23.763 52.3529M23.765 54.6032L23.763 54.6021M23.765 55.2282L23.763 55.2271M23.765 57.4782L23.763 57.4771M23.765 58.1032L23.763 58.1021M23.765 60.3532L23.763 60.3521M43.1582 29.7297V27.8312L44.9082 26.8417V28.7402L43.1582 29.7297ZM43.1582 29.7297V30.1677M43.1582 30.1677V32.0427L44.9082 31.0531V29.1781L43.1582 30.1677ZM45.1582 33.2623V31.3497L46.9189 30.3541V32.2667L45.1582 33.2623ZM45.1582 33.2623V33.7003M45.1582 33.7003V35.5988L46.9189 34.6032V32.7047L45.1582 33.7003ZM47.1581 39.0929L48.9084 38.1032V36.2912L47.1581 37.2808V39.0929ZM47.1581 39.0929V39.5308M44.9082 42.7402L43.1582 43.7297V41.7927L44.9082 40.8031V42.7402ZM44.9082 42.7402V43.1781M47.1581 39.5308V41.4679L48.9084 40.4782V38.5412L47.1581 39.5308ZM44.9082 43.1781V45.1152L43.1582 46.1047V44.1677L44.9082 43.1781ZM23.763 48.9779V49.6029M23.763 49.6029V51.7279M23.763 51.7279V52.3529M23.763 52.3529V54.6021M23.763 54.6021V55.2271M23.763 55.2271V57.4771M23.763 57.4771V58.1021M23.763 58.1021V60.3521M41.7832 23.1291L31.1582 16.9965V24.7465L41.7832 30.8791V23.1291ZM41.7832 68.1291L36.7065 65.1989V53.8239L41.7832 56.7541V68.1291ZM31.1582 61.9965L36.0351 64.8114V53.4364L31.1582 50.6215V61.9965ZM43.1582 62.6047L44.9082 61.6152V59.6161L43.1582 60.6056V62.6047ZM45.1582 61.4738L46.9189 60.4782V58.4791L45.1582 59.4747V61.4738ZM47.1581 60.3429L48.9084 59.3532V57.3541L47.1581 58.3438V60.3429ZM49.1581 59.212L50.9081 58.2224V56.2233L49.1581 57.2129V59.212ZM22.6601 59.7305L20.9101 58.7443V56.4919L22.6601 57.4782V59.7305ZM20.6601 58.6034L18.8854 57.6032V55.3509L20.6601 56.3511V58.6034ZM18.6602 57.4763L16.8892 56.4782V54.2259L18.6602 55.2239V57.4763ZM50.9081 16.3494L49.1581 17.3389V19.3369L50.9081 18.3474V16.3494ZM47.1581 18.4698V20.4679L48.9084 19.4782V17.4802L47.1581 18.4698ZM45.1582 19.6008V21.5988L46.9189 20.6032V18.6052L45.1582 19.6008ZM43.1582 20.7317V22.7297L44.9082 21.7402V19.7421L43.1582 20.7317ZM44.9082 22.1781L43.1582 23.1677V25.0182L44.9082 24.0287V22.1781ZM46.9189 22.8917V21.0412L45.1582 22.0368V23.8873L46.9189 22.8917ZM48.9084 21.7667V19.9162L47.1581 20.9058V22.7564L48.9084 21.7667ZM49.1581 19.7749V21.6255L50.9081 20.6359V18.7854L49.1581 19.7749ZM50.9081 21.0739L49.1581 22.0634V24.0005L50.9081 23.0109V21.0739ZM47.1581 23.1944V25.1314L48.9084 24.1417V22.2047L47.1581 23.1944ZM45.1582 24.3253V26.2623L46.9189 25.2667V23.3297L45.1582 24.3253ZM43.1582 25.4562V27.3932L44.9082 26.4037V24.4667L43.1582 25.4562ZM46.9189 27.6032V25.7047L45.1582 26.7003V28.5988L46.9189 27.6032ZM46.9189 28.0412L45.1582 29.0368V30.9117L46.9189 29.9161V28.0412ZM44.9082 31.4911L43.1582 32.4806V34.3932L44.9082 33.4037V31.4911ZM48.9084 31.1417V29.2291L47.1581 30.2188V32.1314L48.9084 31.1417ZM48.9084 24.5797L47.1581 25.5694V27.4679L48.9084 26.4782V24.5797ZM49.1581 24.4384V26.3369L50.9081 25.3474V23.4489L49.1581 24.4384ZM49.1581 28.6499L50.9081 27.6603V25.7854L49.1581 26.7749V28.6499ZM47.1581 27.9058V29.7808L48.9084 28.7911V26.9162L47.1581 27.9058ZM50.9081 28.0983L49.1581 29.0879V31.0005L50.9081 30.0109V28.0983ZM50.9081 30.4489L49.1581 31.4384V33.3369L50.9081 32.3474V30.4489ZM47.1581 32.5694V34.4679L48.9084 33.4782V31.5797L47.1581 32.5694ZM43.1582 34.8312V36.7297L44.9082 35.7402V33.8417L43.1582 34.8312ZM44.9082 52.5531L43.1582 53.5427V55.4797L44.9082 54.4902V52.5531ZM48.9084 52.6662L47.1581 53.6559V55.5064L48.9084 54.5167V52.6662ZM49.1581 52.5249V54.3755L50.9081 53.3859V51.5354L49.1581 52.5249ZM49.1581 52.0869L50.9081 51.0974V49.1604L49.1581 50.1499V52.0869ZM50.9081 46.7854L49.1581 47.7749V49.7119L50.9081 48.7224V46.7854ZM50.9081 44.5354L49.1581 45.5249V47.3369L50.9081 46.3474V44.5354ZM50.9081 42.1604L49.1581 43.1499V45.0869L50.9081 44.0974V42.1604ZM50.9081 39.7854L49.1581 40.7749V42.7119L50.9081 41.7224V39.7854ZM50.9081 37.4104L49.1581 38.3999V40.3369L50.9081 39.3474V37.4104ZM50.9081 35.1604L49.1581 36.1499V37.9619L50.9081 36.9724V35.1604ZM50.9081 32.7854L49.1581 33.7749V35.7119L50.9081 34.7224V32.7854ZM47.1581 34.9058V36.8429L48.9084 35.8532V33.9162L47.1581 34.9058ZM46.9189 36.9782V35.0412L45.1582 36.0368V37.9738L46.9189 36.9782ZM46.9189 37.4162L45.1582 38.4118V40.2238L46.9189 39.2282V37.4162ZM44.9082 38.1152V36.1781L43.1582 37.1677V39.1047L44.9082 38.1152ZM43.1582 41.3547L44.9082 40.3652V38.5531L43.1582 39.5427V41.3547ZM45.1582 40.6618V42.5988L46.9189 41.6032V39.6662L45.1582 40.6618ZM47.1581 43.8429L48.9084 42.8532V40.9162L47.1581 41.9058V43.8429ZM46.9189 43.9782V42.0412L45.1582 43.0368V44.9738L46.9189 43.9782ZM43.1582 48.4797L44.9082 47.4902V45.5531L43.1582 46.5427V48.4797ZM43.1582 50.7297L44.9082 49.7402V47.9281L43.1582 48.9177V50.7297ZM45.1582 47.7868V49.5988L46.9189 48.6032V46.7912L45.1582 47.7868ZM46.9189 44.4162L45.1582 45.4118V47.3488L46.9189 46.3532V44.4162ZM48.9084 45.2282V43.2912L47.1581 44.2808V46.2179L48.9084 45.2282ZM48.9084 45.6662L47.1581 46.6558V48.4679L48.9084 47.4782V45.6662ZM47.1581 50.8429L48.9084 49.8532V47.9162L47.1581 48.9058V50.8429ZM46.9189 50.9782V49.0412L45.1582 50.0368V51.9738L46.9189 50.9782ZM44.9082 52.1152V50.1781L43.1582 51.1677V53.1047L44.9082 52.1152ZM50.9081 53.8239L49.1581 54.8135V56.7749L50.9081 55.7853V53.8239ZM47.1581 55.9444V57.9058L48.9084 56.9161V54.9547L47.1581 55.9444ZM48.9084 50.2912L47.1581 51.2808V53.2179L48.9084 52.2282V50.2912ZM45.1582 52.4118V54.3488L46.9189 53.3532V51.4162L45.1582 52.4118ZM45.1582 56.6373L46.9189 55.6417V53.7912L45.1582 54.7868V56.6373ZM43.1582 55.9177V57.7683L44.9082 56.7787V54.9281L43.1582 55.9177ZM43.1582 60.1677L44.9082 59.1781V57.2167L43.1582 58.2062V60.1677ZM45.1582 57.0753V59.0367L46.9189 58.0411V56.0797L45.1582 57.0753ZM41.7832 48.3791L31.1582 42.2465V49.7465L41.7832 55.8791V48.3791ZM31.1582 41.4965L41.7832 47.6291V40.0041L31.1582 33.8715V41.4965ZM31.1582 32.9965L41.7832 39.1291V31.6291L31.1582 25.4965V32.9965ZM20.6601 53.4761L18.8854 52.4782V54.7259L20.6601 55.7261V53.4761ZM20.9101 53.617V55.867L22.6601 56.8532V54.6032L20.9101 53.617ZM22.6601 51.7314L20.9101 50.7451V52.992L22.6601 53.9782V51.7314ZM18.8854 49.604V51.8532L20.6601 52.8511V50.6042L18.8854 49.604ZM22.6601 48.9813L20.9101 47.9951V50.1201L22.6601 51.1064V48.9813ZM20.6601 49.9792V47.8542L18.8854 46.854V48.979L20.6601 49.9792ZM22.6601 46.2316L20.9101 45.2454V47.3701L22.6601 48.3564V46.2316ZM22.6601 43.3566L20.9101 42.3704V44.6204L22.6601 45.6066V43.3566ZM18.8854 41.2293V43.4793L20.6601 44.4795V42.2295L18.8854 41.2293ZM18.6602 46.1021V43.9773L16.8892 42.9793V45.104L18.6602 46.1021ZM18.6602 38.3523L16.8892 37.3543V39.4793L18.6602 40.4774V38.3523ZM20.6601 36.7295L18.8854 35.7293V37.8543L20.6601 38.8545V36.7295ZM20.6601 33.8545L18.8854 32.8543V35.1043L20.6601 36.1045V33.8545ZM20.6601 31.1045L18.8854 30.1043V32.2293L20.6601 33.2295V31.1045ZM20.6601 28.3545L18.8854 27.3543V29.4793L20.6601 30.4795V28.3545ZM20.6601 25.4795L18.8854 24.4793V26.7293L20.6601 27.7295V25.4795ZM20.6601 22.6045L18.8854 21.6043V23.8543L20.6601 24.8545V22.6045ZM20.6601 19.7295L18.8854 18.7293V20.9793L20.6601 21.9795V19.7295ZM20.9101 19.8704V22.1204L22.6601 23.1066V20.8566L20.9101 19.8704ZM20.9101 24.9954L22.6601 25.9816V23.7316L20.9101 22.7454V24.9954ZM20.9101 27.8704L22.6601 28.8566V26.6066L20.9101 25.6204V27.8704ZM20.9101 30.6204L22.6601 31.6066V29.4816L20.9101 28.4954V30.6204ZM20.9101 33.3704L22.6601 34.3566V32.2316L20.9101 31.2454V33.3704ZM20.9101 36.2454L22.6601 37.2316V34.9816L20.9101 33.9954V36.2454ZM20.9101 38.9954L22.6601 39.9816V37.8566L20.9101 36.8704V38.9954ZM20.9101 41.7454L22.6601 42.7316V40.6066L20.9101 39.6204V41.7454ZM18.8854 38.4793V40.6043L20.6601 41.6045V39.4795L18.8854 38.4793ZM16.8892 34.6043V36.7293L18.6602 37.7274V35.6023L16.8892 34.6043ZM16.8892 33.9793L18.6602 34.9774V32.7274L16.8892 31.7293V33.9793ZM16.8892 28.3543L18.6602 29.3524V27.2274L16.8892 26.2293V28.3543ZM16.8892 31.1043L18.6602 32.1024V29.9773L16.8892 28.9793V31.1043ZM16.8892 25.6043L18.6602 26.6024V24.3523L16.8892 23.3543V25.6043ZM16.8892 22.7293L18.6602 23.7274V21.4774L16.8892 20.4793V22.7293ZM16.8892 19.8543L18.6602 20.8524V18.6024L16.8892 17.6043V19.8543ZM16.8892 42.3543L18.6602 43.3524V41.1024L16.8892 40.1043V42.3543ZM20.6601 47.2292V45.1045L18.8854 44.1043V46.229L20.6601 47.2292ZM18.6602 46.7271L16.8892 45.729V47.854L18.6602 48.8521V46.7271ZM18.6602 49.4771L16.8892 48.479V50.7282L18.6602 51.724V49.4771ZM16.8892 53.6009L18.6602 54.5989V52.349L16.8892 51.3532V53.6009Z" stroke="#222A4C" stroke-width="0.125"/>
<g style="mix-blend-mode:multiply" filter="url(#filter2_f_518_13973)">
<path d="M22.5 12.75L27.5 9.75L28.5 8.75L31.75 10.1944L28 12.25L33.25 15.2177L29.75 17.25L22.5 12.75Z" fill="black" fill-opacity="0.1"/>
</g>
<g style="mix-blend-mode:multiply" filter="url(#filter3_f_518_13973)">
<path d="M28.25 28.5241V63.3942C28.25 63.5963 28.3717 63.7785 28.5583 63.856L40.7851 68.9315L31.2541 62.3786C31.1172 62.2844 31.036 62.1285 31.0374 61.9623L31.408 17.8556C31.4094 17.6968 31.3351 17.5468 31.208 17.4514L31.0546 17.3363C30.7579 17.1138 30.3307 17.2804 30.263 17.645L28.2584 28.4327C28.2528 28.4629 28.25 28.4934 28.25 28.5241Z" fill="black" fill-opacity="0.31"/>
</g>
<g style="mix-blend-mode:multiply" filter="url(#filter4_f_518_13973)">
<path d="M25.6602 13.728L28.1602 15.228V13.728V11.978L25.6602 13.728Z" fill="black" fill-opacity="0.2"/>
</g>
<g style="mix-blend-mode:multiply" filter="url(#filter5_f_518_13973)">
<path d="M33.6407 8.94849L35.2867 10.1007C35.4204 10.1943 35.5 10.3472 35.5 10.5103V10.7929C35.5 10.9255 35.4473 11.0527 35.3536 11.1464L35.25 11.25L35.0466 11.4534C34.8751 11.6249 34.6051 11.6486 34.4063 11.5094L32.7907 10.3785C32.5307 10.1965 32.5351 9.80994 32.7992 9.63387L32.8187 9.62088C32.932 9.54536 33 9.41822 33 9.28208C33 8.95265 33.3708 8.75958 33.6407 8.94849Z" fill="black" fill-opacity="0.14"/>
</g>
<defs>
<filter id="filter0_f_518_13973" x="-26.4717" y="29.25" width="58.2715" height="37.5981" filterUnits="userSpaceOnUse" color-interpolation-filters="sRGB">
<feFlood flood-opacity="0" result="BackgroundImageFix"/>
<feBlend mode="normal" in="SourceGraphic" in2="BackgroundImageFix" result="shape"/>
<feGaussianBlur stdDeviation="0.25" result="effect1_foregroundBlur_518_13973"/>
</filter>
<filter id="filter1_f_518_13973" x="1.3877" y="44.3501" width="29.9824" height="20.3086" filterUnits="userSpaceOnUse" color-interpolation-filters="sRGB">
<feFlood flood-opacity="0" result="BackgroundImageFix"/>
<feBlend mode="normal" in="SourceGraphic" in2="BackgroundImageFix" result="shape"/>
<feGaussianBlur stdDeviation="0.25" result="effect1_foregroundBlur_518_13973"/>
</filter>
<filter id="filter2_f_518_13973" x="22" y="8.25" width="11.75" height="9.5" filterUnits="userSpaceOnUse" color-interpolation-filters="sRGB">
<feFlood flood-opacity="0" result="BackgroundImageFix"/>
<feBlend mode="normal" in="SourceGraphic" in2="BackgroundImageFix" result="shape"/>
<feGaussianBlur stdDeviation="0.25" result="effect1_foregroundBlur_518_13973"/>
</filter>
<filter id="filter3_f_518_13973" x="28" y="16.9858" width="13.0352" height="52.1958" filterUnits="userSpaceOnUse" color-interpolation-filters="sRGB">
<feFlood flood-opacity="0" result="BackgroundImageFix"/>
<feBlend mode="normal" in="SourceGraphic" in2="BackgroundImageFix" result="shape"/>
<feGaussianBlur stdDeviation="0.125" result="effect1_foregroundBlur_518_13973"/>
</filter>
<filter id="filter4_f_518_13973" x="25.2852" y="11.603" width="3.25" height="4" filterUnits="userSpaceOnUse" color-interpolation-filters="sRGB">
<feFlood flood-opacity="0" result="BackgroundImageFix"/>
<feBlend mode="normal" in="SourceGraphic" in2="BackgroundImageFix" result="shape"/>
<feGaussianBlur stdDeviation="0.1875" result="effect1_foregroundBlur_518_13973"/>
</filter>
<filter id="filter5_f_518_13973" x="32.3486" y="8.62402" width="3.40137" height="3.22559" filterUnits="userSpaceOnUse" color-interpolation-filters="sRGB">
<feFlood flood-opacity="0" result="BackgroundImageFix"/>
<feBlend mode="normal" in="SourceGraphic" in2="BackgroundImageFix" result="shape"/>
<feGaussianBlur stdDeviation="0.125" result="effect1_foregroundBlur_518_13973"/>
</filter>
<linearGradient id="paint0_linear_518_13973" x1="10.75" y1="48.75" x2="18.75" y2="54.5" gradientUnits="userSpaceOnUse">
<stop stop-opacity="0"/>
<stop offset="1"/>
</linearGradient>
</defs>
</svg>
